<svg width="24" height="24" viewBox="0 0 24 24" fill="none" xmlns="http://www.w3.org/2000/svg">
<rect width="24" height="24" rx="4" fill="white"/>
<g clip-path="url(#clip0_4572_29360)">
<path opacity="0.12" d="M19.7305 5.21857V18.5914L14.6082 20.957L9.80518 18.5914V17.9983V6.80219V5.21857L14.7711 2.80078L19.7305 5.21857Z" fill="#CD1103"/>
<path opacity="0.12" d="M9.80537 6.80096V17.9971L9.21233 18.4077L4.42236 15.5467L4.67652 9.32954L9.55773 6.625L9.80537 6.80096Z" fill="#418AEC"/>
<path d="M9.39372 19.2057L9.55665 19.297L9.38721 19.1992L9.39372 19.2057Z" fill="#CD1103"/>
<path d="M8.7805 18.4107C8.75443 18.3065 8.7414 18.1957 8.7414 18.0784V17.3289L4.83122 15.061V10.5969L8.7414 12.8648V11.3594L5.52854 9.50858L8.7414 7.65124V6.15234L4.17953 8.77216C3.97099 8.89598 3.80806 9.05239 3.69727 9.2479C3.57997 9.44341 3.52783 9.65847 3.52783 9.8996V15.0806C3.52783 15.3217 3.57997 15.5368 3.69727 15.7323C3.80806 15.9278 3.97099 16.0842 4.17953 16.2015L8.51331 18.6975L9.5886 19.3231L8.7805 18.4107Z" fill="#418AEC"/>
<path d="M20.3038 5.27803C20.1865 5.076 20.03 4.9196 19.8215 4.80229L15.2596 2.18247C15.0511 2.05865 14.836 2 14.6079 2C14.3798 2 14.1648 2.05865 13.9562 2.18247L9.39437 4.80229C9.18583 4.9196 9.02942 5.076 8.91212 5.27803C8.80133 5.47354 8.74268 5.6886 8.74268 5.92973V18.0773C8.74268 18.1946 8.75571 18.3054 8.78178 18.4097C8.80785 18.5075 8.84043 18.6052 8.89257 18.6964C8.89257 18.6964 8.89908 18.716 8.9056 18.729C8.95774 18.8138 9.01639 18.892 9.08807 18.9636C9.17279 19.0549 9.27055 19.1331 9.38134 19.2048L9.55078 19.3025L13.9497 21.8311C14.1583 21.9484 14.3733 22.0071 14.6014 22.0071C14.8295 22.0071 15.0446 21.9484 15.2531 21.8311L19.815 19.2113C20.0235 19.0875 20.1799 18.9311 20.2972 18.7356C20.408 18.54 20.4667 18.325 20.4667 18.0839V5.92973C20.4667 5.6886 20.408 5.47354 20.2972 5.27803H20.3038ZM14.6079 3.30339L18.466 5.53871L14.6079 7.76751L10.7434 5.53871L14.6079 3.30339ZM13.9562 20.3257L10.5283 18.3445L10.0461 18.0643V6.83558L13.9562 9.09697V20.3257ZM19.1698 18.0643L15.2596 20.3257V8.88843L19.1698 6.62704V18.0643Z" fill="#CD1103"/>
</g>
<defs>
<clipPath id="clip0_4572_29360">
<rect width="16.9441" height="20.0005" fill="white" transform="translate(3.52783 2)"/>
</clipPath>
</defs>
</svg>
