<svg width="20" height="20" viewBox="0 0 20 20" fill="none" xmlns="http://www.w3.org/2000/svg">
<path d="M8 13.9984C9.7 13.9984 11.1 13.3984 12.3 12.1984C13.5 10.9984 14.1 9.59844 14.1 7.89844C14.1 6.19844 13.5 4.79844 12.3 3.59844C11.1 2.39844 9.7 1.79844 8 1.79844C6.3 1.79844 4.9 2.39844 3.7 3.59844C2.5 4.79844 1.9 6.19844 1.9 7.89844C1.9 9.59844 2.5 10.9984 3.7 12.1984C4.9 13.3984 6.3 13.9984 8 13.9984ZM18.5 19.4984L12.8 13.7984C12.1 14.2984 11.4 14.6984 10.6 14.9984C9.8 15.2984 8.9 15.3984 8 15.3984C5.9 15.3984 4.1 14.6984 2.7 13.1984C1.3 11.6984 0.5 9.99844 0.5 7.89844C0.5 5.79844 1.2 3.99844 2.7 2.59844C4.2 1.09844 5.9 0.398438 8 0.398438C10.1 0.398438 11.9 1.09844 13.3 2.59844C14.8 4.09844 15.5 5.79844 15.5 7.89844C15.5 9.99844 15.4 9.69844 15.1 10.4984C14.8 11.2984 14.4 11.9984 13.9 12.6984L19.6 18.3984L18.6 19.4984H18.5Z" fill="#CD1103"/>
<path d="M8.80005 4.29688H7.30005V10.7969H8.80005V4.29688Z" fill="#FFD0CC"/>
<path d="M5.30005 6.29688H3.80005V10.7969H5.30005V6.29688Z" fill="#FFD0CC"/>
<path d="M12.2 7.19922H10.7V10.6992H12.2V7.19922Z" fill="#FFD0CC"/>
</svg>
