<svg width="24" height="24" viewBox="0 0 24 24" fill="none" xmlns="http://www.w3.org/2000/svg">
<rect width="24" height="24" rx="4" fill="#000000CC"/>
<mask id="mask0_5261_38751" style="mask-type:alpha" maskUnits="userSpaceOnUse" x="0" y="0" width="24" height="24">
<rect width="24" height="24" fill="#D9D9D9"/>
</mask>
<g mask="url(#mask0_5261_38751)">
<path fill-rule="evenodd" clip-rule="evenodd" d="M15.8077 21C15.3026 21 14.875 20.825 14.525 20.475C14.175 20.125 14 19.6974 14 19.1923V5.80775C14 5.30258 14.175 4.875 14.525 4.525C14.875 4.175 15.3026 4 15.8077 4H19.1923C19.6974 4 20.125 4.175 20.475 4.525C20.825 4.875 21 5.30258 21 5.80775V19.1923C21 19.6974 20.825 20.125 20.475 20.475C20.125 20.825 19.6974 21 19.1923 21H15.8077ZM15.5 5.80775V19.1923C15.5 19.2692 15.5321 19.3398 15.5963 19.4038C15.6603 19.4679 15.7307 19.5 15.8077 19.5H19.1923C19.2692 19.5 19.3398 19.4679 19.4037 19.4038C19.4679 19.3398 19.5 19.2692 19.5 19.1923V5.80775C19.5 5.73075 19.4679 5.66025 19.4037 5.59625C19.3398 5.53208 19.2692 5.5 19.1923 5.5H15.8077C15.7307 5.5 15.6603 5.53208 15.5963 5.59625C15.5321 5.66025 15.5 5.73075 15.5 5.80775Z" fill="#418AEC"/>
<path d="M15.5 19.1923V5.80775C15.5 5.73075 15.5321 5.66025 15.5963 5.59625C15.6603 5.53208 15.7307 5.5 15.8077 5.5H19.1923C19.2693 5.5 19.3398 5.53208 19.4037 5.59625C19.4679 5.66025 19.5 5.73075 19.5 5.80775V19.1923C19.5 19.2692 19.4679 19.3398 19.4037 19.4038C19.3398 19.4679 19.2693 19.5 19.1923 19.5H15.8077C15.7307 19.5 15.6603 19.4679 15.5963 19.4038C15.5321 19.3398 15.5 19.2692 15.5 19.1923Z" fill="#418AEC" fill-opacity="0.2"/>
<path fill-rule="evenodd" clip-rule="evenodd" d="M4.80775 21C4.30258 21 3.875 20.825 3.525 20.475C3.175 20.125 3 19.6974 3 19.1923V5.80775C3 5.30258 3.175 4.875 3.525 4.525C3.875 4.175 4.30258 4 4.80775 4H8.19225C8.69742 4 9.125 4.175 9.475 4.525C9.825 4.875 10 5.30258 10 5.80775V19.1923C10 19.6974 9.825 20.125 9.475 20.475C9.125 20.825 8.69742 21 8.19225 21H4.80775ZM4.5 5.80775V19.1923C4.5 19.2692 4.53208 19.3398 4.59625 19.4038C4.66025 19.4679 4.73075 19.5 4.80775 19.5H8.19225C8.26925 19.5 8.33975 19.4679 8.40375 19.4038C8.46792 19.3398 8.5 19.2692 8.5 19.1923V5.80775C8.5 5.73075 8.46792 5.66025 8.40375 5.59625C8.33975 5.53208 8.26925 5.5 8.19225 5.5H4.80775C4.73075 5.5 4.66025 5.53208 4.59625 5.59625C4.53208 5.66025 4.5 5.73075 4.5 5.80775Z" fill="#CD1103"/>
<path d="M4.5 19.1923V5.80775C4.5 5.73075 4.53208 5.66025 4.59625 5.59625C4.66025 5.53208 4.73075 5.5 4.80775 5.5H8.19225C8.26925 5.5 8.33975 5.53208 8.40375 5.59625C8.46792 5.66025 8.5 5.73075 8.5 5.80775V19.1923C8.5 19.2692 8.46792 19.3398 8.40375 19.4038C8.33975 19.4679 8.26925 19.5 8.19225 19.5H4.80775C4.73075 19.5 4.66025 19.4679 4.59625 19.4038C4.53208 19.3398 4.5 19.2692 4.5 19.1923Z" fill="#CD1103" fill-opacity="0.2"/>
</g>
</svg>
