<svg width="25" height="24" viewBox="0 0 25 24" fill="none" xmlns="http://www.w3.org/2000/svg">
<mask id="mask0_6115_35395" style="mask-type:alpha" maskUnits="userSpaceOnUse" x="0" y="0" width="25" height="24">
<rect x="0.75" width="24" height="24" rx="4" fill="#D9D9D9"/>
</mask>
<g mask="url(#mask0_6115_35395)">
<path d="M13.3036 19.7341C13.8131 20.2423 14.4307 20.4964 15.1566 20.4964C15.8826 20.4964 16.4996 20.2415 17.0076 19.7319C17.5157 19.2224 17.7698 18.6046 17.7698 17.8786C17.7698 17.1528 17.515 16.5359 17.0053 16.0279C16.4956 15.5197 15.8779 15.2656 15.1521 15.2656C14.4262 15.2656 13.8093 15.5205 13.3013 16.0301C12.7931 16.5396 12.5391 17.1573 12.5391 17.8831C12.5391 18.6091 12.7939 19.2261 13.3036 19.7341Z" fill="#418AEC"/>
<path d="M7.8655 17.6133C6.87117 17.6133 6.02 17.2593 5.312 16.5513C4.604 15.8433 4.25 14.9922 4.25 13.9981C4.25 13.0039 4.604 12.1528 5.312 11.4448C6.02 10.7368 6.87117 10.3828 7.8655 10.3828C8.85967 10.3828 9.71075 10.7368 10.4188 11.4448C11.1268 12.1528 11.4808 13.0039 11.4808 13.9981C11.4808 14.9922 11.1268 15.8433 10.4188 16.5513C9.71075 17.2593 8.85967 17.6133 7.8655 17.6133Z" fill="#F9C74F"/>
<path d="M13.701 12.049C14.6683 13.0163 15.8513 13.5 17.25 13.5C18.6487 13.5 19.8317 13.0163 20.799 12.049C21.7663 11.0817 22.25 9.89867 22.25 8.5C22.25 7.10133 21.7663 5.91833 20.799 4.951C19.8317 3.98367 18.6487 3.5 17.25 3.5C15.8513 3.5 14.6683 3.98367 13.701 4.951C12.7337 5.91833 12.25 7.10133 12.25 8.5C12.25 9.89867 12.7337 11.0817 13.701 12.049Z" fill="#D63457"/>
</g>
</svg>
