<svg width="21" height="14" viewBox="0 0 21 14" fill="none" xmlns="http://www.w3.org/2000/svg">
<path d="M6.72041 6.90986C7.13862 7.19215 7.13862 7.80785 6.72041 8.09014L1.11035 11.8769C0.637467 12.1961 0 11.8573 0 11.2868V3.71321C0 3.14268 0.637467 2.80387 1.11035 3.12307L6.72041 6.90986ZM13.6031 6.90986C14.0213 7.19215 14.0213 7.80785 13.6031 8.09014L7.99304 11.8769C7.52016 12.1961 6.88269 11.8573 6.88269 11.2868V3.71321C6.88269 3.14268 7.52016 2.80387 7.99304 3.12307L13.6031 6.90986Z" fill="#999999"/>
<path d="M20.486 6.90986C20.9042 7.19215 20.9042 7.80785 20.486 8.09014L14.876 11.8769C14.4031 12.1961 13.7656 11.8573 13.7656 11.2868V3.71321C13.7656 3.14268 14.4031 2.80387 14.876 3.12307L20.486 6.90986Z" fill="#999999"/>
</svg>
