<svg width="24" height="24" viewBox="0 0 24 24" fill="none" xmlns="http://www.w3.org/2000/svg">
<rect width="24" height="24" rx="4" fill="white"/>
<path d="M10 15.9984C11.7 15.9984 13.1 15.3984 14.3 14.1984C15.5 12.9984 16.1 11.5984 16.1 9.89844C16.1 8.19844 15.5 6.79844 14.3 5.59844C13.1 4.39844 11.7 3.79844 10 3.79844C8.3 3.79844 6.9 4.39844 5.7 5.59844C4.5 6.79844 3.9 8.19844 3.9 9.89844C3.9 11.5984 4.5 12.9984 5.7 14.1984C6.9 15.3984 8.3 15.9984 10 15.9984ZM20.5 21.4984L14.8 15.7984C14.1 16.2984 13.4 16.6984 12.6 16.9984C11.8 17.2984 10.9 17.3984 10 17.3984C7.9 17.3984 6.1 16.6984 4.7 15.1984C3.3 13.6984 2.5 11.9984 2.5 9.89844C2.5 7.79844 3.2 5.99844 4.7 4.59844C6.2 3.09844 7.9 2.39844 10 2.39844C12.1 2.39844 13.9 3.09844 15.3 4.59844C16.8 6.09844 17.5 7.79844 17.5 9.89844C17.5 11.9984 17.4 11.6984 17.1 12.4984C16.8 13.2984 16.4 13.9984 15.9 14.6984L21.6 20.3984L20.6 21.4984H20.5Z" fill="#CD1103"/>
<path d="M10.8 6.29688H9.30005V12.7969H10.8V6.29688Z" fill="#FFD0CC"/>
<path d="M7.30005 8.29688H5.80005V12.7969H7.30005V8.29688Z" fill="#FFD0CC"/>
<path d="M14.2 9.19922H12.7V12.6992H14.2V9.19922Z" fill="#FFD0CC"/>
</svg>
