<svg width="24" height="24" viewBox="0 0 24 24" fill="none" xmlns="http://www.w3.org/2000/svg">
<rect width="24" height="24" rx="4" fill="white"/>
<mask id="mask0_5261_38743" style="mask-type:alpha" maskUnits="userSpaceOnUse" x="0" y="0" width="24" height="24">
<rect width="24" height="24" fill="#D9D9D9"/>
</mask>
<g mask="url(#mask0_5261_38743)">
<path d="M13.25 8.75V7.25H16.25V3.25H17.75V7.25H20.75V8.75H13.25ZM16.25 20.75V11.25H17.75V20.75H16.25ZM6.25 20.75V16.75H3.25V15.25H10.75V16.75H7.75V20.75H6.25ZM6.25 12.75V3.25H7.75V12.75H6.25Z" fill="#FFD0CC"/>
<path d="M13.25 7.25V8.75H20.75V7.25H17.75V3.25H16.25V7.25H13.25Z" fill="#CD1103"/>
<path d="M16.25 11.25V20.75H17.75V11.25H16.25Z" fill="#FFD0CC"/>
<path d="M6.25 16.75V20.75H7.75V16.75H10.75V15.25H3.25V16.75H6.25Z" fill="#CD1103"/>
<path d="M6.25 3.25V12.75H7.75V3.25H6.25Z" fill="#FFD0CC"/>
</g>
</svg>
