<svg width="24" height="24" viewBox="0 0 24 24" fill="none" xmlns="http://www.w3.org/2000/svg">
<rect width="24" height="24" rx="4" fill="white"/>
<path d="M12.9844 21.4469V19.9469C13.71 19.8405 14.402 19.6489 15.0604 19.3719C15.7187 19.0949 16.3267 18.743 16.8844 18.3161L17.9594 19.4006C17.2339 19.9725 16.4564 20.4282 15.6269 20.7679C14.7974 21.1077 13.9165 21.334 12.9844 21.4469ZM19.3884 17.9506L18.3344 16.8969C18.7677 16.3469 19.1177 15.7427 19.3844 15.0844C19.651 14.426 19.8344 13.7302 19.9344 12.9969H21.4651C21.3511 13.934 21.1195 14.8196 20.7701 15.6536C20.4206 16.4876 19.96 17.2533 19.3884 17.9506ZM19.9344 10.9969C19.8344 10.2469 19.651 9.54271 19.3844 8.88438C19.1177 8.22604 18.7677 7.63021 18.3344 7.09688L19.3979 6.05262C19.9992 6.79879 20.4685 7.56421 20.8056 8.34888C21.1428 9.13338 21.3626 10.016 21.4651 10.9969H19.9344ZM16.9344 5.69688C16.3344 5.24688 15.7027 4.88021 15.0394 4.59687C14.3759 4.31354 13.6973 4.13021 13.0036 4.04688V2.54688C13.9165 2.64304 14.786 2.86262 15.6124 3.20562C16.4387 3.54846 17.221 4.01096 17.9594 4.59312L16.9344 5.69688Z" fill="#CD1103" fill-opacity="0.6"/>
<path d="M4.9495 18.3256C6.56167 20.1128 8.57217 21.1532 10.981 21.4469V19.9469C8.981 19.6469 7.32267 18.751 6.006 17.2594C4.68933 15.7677 4.031 14.0135 4.031 11.9969C4.031 9.98021 4.68933 8.22188 6.006 6.72188C7.32267 5.22188 8.981 4.33021 10.981 4.04688V2.54688C8.56567 2.82388 6.5535 3.85754 4.9445 5.64787C3.33567 7.43821 2.53125 9.55454 2.53125 11.9969C2.53125 14.4289 3.33733 16.5385 4.9495 18.3256Z" fill="#418AEC" fill-opacity="0.6"/>
<path fill-rule="evenodd" clip-rule="evenodd" d="M11.9981 16.5106C11.1276 15.7645 10.3074 14.9696 9.53756 14.1261C8.76773 13.2825 8.38281 12.2934 8.38281 11.1589C8.38281 10.1345 8.73181 9.26079 9.42981 8.53763C10.1278 7.81463 10.9839 7.45312 11.9981 7.45312C13.0122 7.45312 13.8683 7.81463 14.5663 8.53763C15.2643 9.26079 15.6133 10.1345 15.6133 11.1589C15.6133 12.2934 15.2284 13.2825 14.4586 14.1261C13.6887 14.9696 12.8686 15.7645 11.9981 16.5106ZM12.0005 11.9917C12.2748 11.9917 12.505 11.8987 12.691 11.7127C12.8768 11.5269 12.9697 11.2968 12.9697 11.0225C12.9697 10.7583 12.8768 10.5307 12.691 10.3397C12.505 10.1487 12.2748 10.0532 12.0005 10.0532C11.7262 10.0532 11.496 10.1487 11.31 10.3397C11.1242 10.5307 11.0312 10.7583 11.0312 11.0225C11.0312 11.2968 11.1242 11.5269 11.31 11.7127C11.496 11.8987 11.7262 11.9917 12.0005 11.9917Z" fill="#CD1103"/>
</svg>
