<svg width="24" height="24" viewBox="0 0 24 24" fill="none" xmlns="http://www.w3.org/2000/svg">
<rect width="24" height="24" rx="4" fill="white"/>
<mask id="mask0_5261_38765" style="mask-type:alpha" maskUnits="userSpaceOnUse" x="0" y="0" width="24" height="24">
<rect width="24" height="24" fill="#D9D9D9"/>
</mask>
<g mask="url(#mask0_5261_38765)">
<path d="M16.2536 10.9003L10.9498 16.2041L7.74609 13.0003L8.81534 11.9311L10.9498 14.0658L15.1843 9.83105L16.2536 10.9003Z" fill="#E68881"/>
<path d="M11.9999 21.5002C10.8204 21.5002 9.71534 21.2771 8.68468 20.8309C7.65384 20.3848 6.75509 19.7783 5.98843 19.0117C5.22176 18.245 4.61534 17.3463 4.16918 16.3154C3.72301 15.2848 3.49993 14.1797 3.49993 13.0002C3.49993 11.8207 3.72301 10.7156 4.16918 9.68492C4.61534 8.65409 5.22176 7.75534 5.98843 6.98867C6.75509 6.22201 7.65384 5.61559 8.68468 5.16942C9.71534 4.72326 10.8204 4.50017 11.9999 4.50017C13.1794 4.50017 14.2845 4.72326 15.3152 5.16942C16.346 5.61559 17.2448 6.22201 18.0114 6.98867C18.7781 7.75534 19.3845 8.65409 19.8307 9.68492C20.2768 10.7156 20.4999 11.8207 20.4999 13.0002C20.4999 14.1797 20.2768 15.2848 19.8307 16.3154C19.3845 17.3463 18.7781 18.245 18.0114 19.0117C17.2448 19.7783 16.346 20.3848 15.3152 20.8309C14.2845 21.2771 13.1794 21.5002 11.9999 21.5002ZM5.75368 2.88867L6.80768 3.94242L2.94218 7.80792L1.88843 6.75392L5.75368 2.88867ZM18.2462 2.88867L22.1114 6.75392L21.0577 7.80792L17.1922 3.94242L18.2462 2.88867ZM11.9999 20.0002C13.9436 20.0002 15.5962 19.3194 16.9577 17.9579C18.3192 16.5964 18.9999 14.9438 18.9999 13.0002C18.9999 11.0565 18.3192 9.40392 16.9577 8.04242C15.5962 6.68092 13.9436 6.00017 11.9999 6.00017C10.0563 6.00017 8.40368 6.68092 7.04218 8.04242C5.68068 9.40392 4.99993 11.0565 4.99993 13.0002C4.99993 14.9438 5.68068 16.5964 7.04218 17.9579C8.40368 19.3194 10.0563 20.0002 11.9999 20.0002Z" fill="#CD1103"/>
</g>
</svg>
