<svg width="12" height="13" viewBox="0 0 12 13" fill="none" xmlns="http://www.w3.org/2000/svg">
<path fill-rule="evenodd" clip-rule="evenodd" d="M6 10.7617C8.34721 10.7617 10.25 8.85893 10.25 6.51172C10.25 4.16451 8.34721 2.26172 6 2.26172C3.65279 2.26172 1.75 4.16451 1.75 6.51172C1.75 8.85893 3.65279 10.7617 6 10.7617ZM6 11.5117C8.76142 11.5117 11 9.27314 11 6.51172C11 3.75029 8.76142 1.51172 6 1.51172C3.23858 1.51172 1 3.75029 1 6.51172C1 9.27314 3.23858 11.5117 6 11.5117Z" fill="white"/>
<path fill-rule="evenodd" clip-rule="evenodd" d="M6.0779 3.85984L8.46438 6.24632C8.61083 6.39277 8.61083 6.6302 8.46438 6.77665L6.0779 9.16314C5.93145 9.30958 5.69402 9.30958 5.54757 9.16314C5.40112 9.01669 5.40112 8.77925 5.54757 8.63281L7.29389 6.88649L1.19922 6.88649V6.13649L7.29389 6.13649L5.54757 4.39017C5.40112 4.24372 5.40112 4.00628 5.54757 3.85984C5.69402 3.71339 5.93145 3.71339 6.0779 3.85984Z" fill="white"/>
</svg>
