<svg width="32" height="33" viewBox="0 0 32 33" fill="none" xmlns="http://www.w3.org/2000/svg">
<rect y="0.320312" width="32" height="32" rx="2.66667" fill="#F4F4F4"/>
<mask id="mask0_8405_183462" style="mask-type:alpha" maskUnits="userSpaceOnUse" x="6" y="6" width="20" height="21">
<rect x="6" y="6.32031" width="20" height="20" fill="#D9D9D9"/>
</mask>
<g mask="url(#mask0_8405_183462)">
<path d="M16.8535 18.6562V24.6146C18.8396 24.4201 20.5306 23.625 21.9264 22.2292C23.3223 20.8333 24.1174 19.1424 24.3118 17.1562H18.3535C18.2285 17.5174 18.0375 17.8264 17.7806 18.0833C17.5237 18.3403 17.2146 18.5312 16.8535 18.6562Z" fill="#EFB92F"/>
<path d="M17.7806 14.5417C18.0375 14.8125 18.2285 15.1285 18.3535 15.4896H24.3118C24.1174 13.5035 23.3223 11.8125 21.9264 10.4167C20.5306 9.02083 18.8396 8.22569 16.8535 8.03125V13.9479C17.2146 14.0729 17.5237 14.2708 17.7806 14.5417Z" fill="#D63457"/>
<path d="M15.1875 24.6146C13.0486 24.4062 11.2639 23.5104 9.83333 21.9271C8.40278 20.3438 7.6875 18.4757 7.6875 16.3229C7.6875 14.1701 8.40278 12.3021 9.83333 10.7188C11.2639 9.13542 13.0486 8.23958 15.1875 8.03125V13.9479C14.6875 14.1285 14.2847 14.4375 13.9792 14.875C13.6736 15.3125 13.5208 15.7951 13.5208 16.3229C13.5208 16.8507 13.6736 17.3264 13.9792 17.75C14.2847 18.1736 14.6875 18.4757 15.1875 18.6562V24.6146Z" fill="#418AEC"/>
</g>
</svg>
