<svg width="32" height="33" viewBox="0 0 32 33" fill="none" xmlns="http://www.w3.org/2000/svg">
<rect y="0.320312" width="32" height="32" rx="2.66667" fill="#F4F4F4"/>
<path d="M13.524 23.651H16.6669V21.2334H13.524V23.651Z" fill="#418AEC"/>
<path d="M10.3811 17.4659H16.6669V15.0485L10.3811 15.0485V17.4659Z" fill="#418AEC"/>
<path d="M7.23828 11.402L16.6669 11.402V8.98438H7.23828V11.402Z" fill="#418AEC"/>
<path d="M13.524 23.651H16.6669V21.2334H13.524V23.651Z" fill="#418AEC"/>
<path d="M10.3811 17.4659H16.6669V15.0485L10.3811 15.0485V17.4659Z" fill="#418AEC"/>
<path d="M7.23828 11.402L16.6669 11.402V8.98438H7.23828V11.402Z" fill="#418AEC"/>
<path d="M19.81 23.651H16.6671V21.2334H19.81V23.651Z" fill="#D63457"/>
<path d="M22.9528 17.4659H16.6671V15.0485L22.9528 15.0485V17.4659Z" fill="#D63457"/>
<path d="M26.0957 11.402L16.6671 11.402V8.98438H26.0957V11.402Z" fill="#D63457"/>
<path d="M19.81 23.651H16.6671V21.2334H19.81V23.651Z" fill="#D63457"/>
<path d="M22.9528 17.4659H16.6671V15.0485L22.9528 15.0485V17.4659Z" fill="#D63457"/>
<path d="M26.0957 11.402L16.6671 11.402V8.98438H26.0957V11.402Z" fill="#D63457"/>
</svg>
