<svg width="24" height="24" viewBox="0 0 24 24" fill="none" xmlns="http://www.w3.org/2000/svg">
<path fill-rule="evenodd" clip-rule="evenodd" d="M11.0039 13.5L11.0039 7.5L13.0039 7.5L13.0039 13.5L11.0039 13.5Z" fill="white"/>
<path fill-rule="evenodd" clip-rule="evenodd" d="M12.0039 17C12.5562 17 13.0039 16.5503 13.0039 15.998C13.0039 15.4457 12.5562 14.996 12.0039 14.996C11.4516 14.996 11.0039 15.4457 11.0039 15.998C11.0039 16.5503 11.4516 17 12.0039 17Z" fill="white"/>
<path d="M12 3L1 22H23L12 3Z" fill="#F02F2F"/>
<path d="M13 18C13 18.3 13 18.5 12.7 18.7C12.4 18.9 12.3 19 12 19C11.7 19 11.5 19 11.3 18.7C11.1 18.4 11 18.3 11 18C11 17.7 11 17.5 11.3 17.3C11.6 17.1 11.7 17 12 17C12.3 17 12.5 17 12.7 17.3C12.9 17.6 13 17.7 13 18Z" fill="white"/>
<path d="M13 11H11V16H13V11Z" fill="white"/>
</svg>
