<svg width="88" height="51" viewBox="0 0 92 55" fill="none" xmlns="http://www.w3.org/2000/svg">
<g filter="url(#filter0_d_6159_37445)">
<rect x="6" y="5.61328" width="80" height="42" rx="21" fill="#333333" shape-rendering="crispEdges"/>
<g opacity="0.25">
<g clip-path="url(#clip0_6159_37445)">
<path d="M25.8953 20.1237V17.082H28.1036V20.1237H25.8953ZM25.8953 36.1454V33.1037H28.1036V36.1454H25.8953ZM33.4894 27.7179V25.5095H36.5311V27.7179H33.4894ZM17.4678 27.7179V25.5095H20.5094V27.7179H17.4678ZM32.6417 22.5268L31.0863 20.9714L32.9334 19.0947L34.5184 20.6797L32.6417 22.5268ZM21.0655 34.1327L19.4805 32.5477L21.3571 30.7006L22.9126 32.256L21.0655 34.1327ZM32.9334 34.1327L31.0863 32.256L32.6417 30.7006L34.5184 32.5477L32.9334 34.1327ZM21.3571 22.5268L19.4805 20.6797L21.0655 19.0947L22.9126 20.9714L21.3571 22.5268ZM26.9994 31.6137C25.6106 31.6137 24.43 31.1276 23.4578 30.1554C22.4856 29.1831 21.9994 28.0026 21.9994 26.6137C21.9994 25.2248 22.4856 24.0443 23.4578 23.072C24.43 22.0998 25.6106 21.6137 26.9994 21.6137C28.3883 21.6137 29.5689 22.0998 30.5411 23.072C31.5133 24.0443 31.9994 25.2248 31.9994 26.6137C31.9994 28.0026 31.5133 29.1831 30.5411 30.1554C29.5689 31.1276 28.3883 31.6137 26.9994 31.6137Z" fill="white"/>
</g>
</g>
<rect x="50" y="11.6133" width="30" height="30" rx="15" fill="#666666"/>
<path d="M65.084 34.5326C63.9761 34.5326 62.9371 34.3224 61.9671 33.902C60.997 33.4816 60.1508 32.9102 59.4286 32.188C58.7063 31.4658 58.135 30.6196 57.7146 29.6495C57.2942 28.6795 57.084 27.6405 57.084 26.5326C57.084 24.7079 57.6404 23.0826 58.7532 21.6568C59.8658 20.2311 61.3046 19.296 63.0696 18.8516C62.9157 20.1892 63.0535 21.4862 63.4829 22.7426C63.9125 23.999 64.6043 25.1042 65.5584 26.0582C66.5124 27.0123 67.6176 27.7041 68.874 28.1336C70.1304 28.5631 71.4274 28.7009 72.765 28.547C72.3292 30.312 71.3962 31.7508 69.9661 32.8634C68.5361 33.9762 66.9087 34.5326 65.084 34.5326Z" fill="white"/>
</g>
<defs>
<filter id="filter0_d_6159_37445" x="0" y="0.613281" width="92" height="54" filterUnits="userSpaceOnUse" color-interpolation-filters="sRGB">
<feFlood flood-opacity="0" result="BackgroundImageFix"/>
<feColorMatrix in="SourceAlpha" type="matrix" values="0 0 0 0 0 0 0 0 0 0 0 0 0 0 0 0 0 0 127 0" result="hardAlpha"/>
<feOffset dy="1"/>
<feGaussianBlur stdDeviation="3"/>
<feComposite in2="hardAlpha" operator="out"/>
<feColorMatrix type="matrix" values="0 0 0 0 1 0 0 0 0 1 0 0 0 0 1 0 0 0 0.05 0"/>
<feBlend mode="normal" in2="BackgroundImageFix" result="effect1_dropShadow_6159_37445"/>
<feBlend mode="normal" in="SourceGraphic" in2="effect1_dropShadow_6159_37445" result="shape"/>
</filter>
<clipPath id="clip0_6159_37445">
<rect width="20" height="20" fill="white" transform="translate(17 16.6133)"/>
</clipPath>
</defs>
</svg>
