<svg width="16" height="17" viewBox="0 0 16 17" fill="none" xmlns="http://www.w3.org/2000/svg">
<g clip-path="url(#clip0_1_6)">
<mask id="mask0_1_6" style="mask-type:alpha" maskUnits="userSpaceOnUse" x="0" y="0" width="16" height="17">
<path d="M7.39404 0.598586C7.72869 0.263937 8.27126 0.263937 8.60591 0.598586L10.983 2.97563C11.3176 3.31028 11.3176 3.85285 10.983 4.1875L8.60591 6.56454C8.27126 6.89919 7.72869 6.89919 7.39404 6.56454L5.017 4.1875C4.68235 3.85285 4.68235 3.31028 5.017 2.97563L7.39404 0.598586Z" fill="#1F2024"/>
<path d="M15.749 7.74171C16.0837 8.07635 16.0837 8.61893 15.749 8.95358L13.372 11.3306C13.0373 11.6653 12.4947 11.6653 12.1601 11.3306L9.78305 8.95358C9.4484 8.61893 9.4484 8.07635 9.78305 7.74171L12.1601 5.36466C12.4947 5.03001 13.0373 5.03001 13.372 5.36466L15.749 7.74171Z" fill="#1F2024"/>
<path d="M7.39404 10.1307C7.72869 9.7961 8.27126 9.7961 8.60591 10.1307L10.983 12.5078C11.3176 12.8424 11.3176 13.385 10.983 13.7197L8.60591 16.0967C8.27126 16.4314 7.72869 16.4314 7.39404 16.0967L5.017 13.7197C4.68235 13.385 4.68235 12.8424 5.017 12.5078L7.39404 10.1307Z" fill="#1F2024"/>
<path d="M6.21692 7.74171C6.55157 8.07635 6.55157 8.61893 6.21692 8.95358L3.83987 11.3306C3.50522 11.6653 2.96265 11.6653 2.628 11.3306L0.25096 8.95358C-0.0836888 8.61893 -0.083689 8.07635 0.25096 7.74171L2.628 5.36466C2.96265 5.03001 3.50523 5.03001 3.83987 5.36466L6.21692 7.74171Z" fill="#1F2024"/>
</mask>
<g mask="url(#mask0_1_6)">
<rect y="0.347656" width="16" height="16" fill="#333333"/>
</g>
</g>
<defs>
<clipPath id="clip0_1_6">
<rect width="16" height="16" fill="white" transform="translate(0 0.347656)"/>
</clipPath>
</defs>
</svg>
