<svg width="115" height="45" viewBox="0 0 115 45" fill="none" xmlns="http://www.w3.org/2000/svg">
<g filter="url(#filter0_b_9297_50016)">
<rect width="103" height="45" rx="4" transform="matrix(1 0 0 -1 0 45)" fill="#418AEC"/>
<path d="M27.0742 15.8574V28.2168H25.5977V15.8574H27.0742ZM24.4766 16.1035V27.6152H23.0547V21.6816H20.6758V20.4375H23.0547V16.1035H24.4766ZM21.5234 17.3066V18.5234H18.3105V24.1152C19.7734 24.1016 20.8193 24.04 22.0293 23.7871L22.1523 25.0312C20.7578 25.3184 19.5273 25.373 17.6543 25.3867H16.8203V17.3066H21.5234ZM38.371 15.8574V28.2305H36.8398V15.8574H38.371ZM31.7128 16.7598C33.5722 16.7598 34.9257 18.4551 34.9394 21.1211C34.9257 23.8145 33.5722 25.4961 31.7128 25.4961C29.8398 25.4961 28.4862 23.8145 28.4862 21.1211C28.4862 18.4551 29.8398 16.7598 31.7128 16.7598ZM31.7128 18.127C30.6601 18.127 29.9491 19.2344 29.9491 21.1211C29.9491 23.0215 30.6601 24.1289 31.7128 24.1289C32.7519 24.1289 33.4628 23.0215 33.4628 21.1211C33.4628 19.2344 32.7519 18.127 31.7128 18.127ZM50.1327 15.8574V28.2305H48.6287V21.5586H46.3045V20.3281H48.6287V15.8574H50.1327ZM46.1131 16.9238V18.168H41.8612V20.3828H45.6209V21.5859H41.8612V24.1289C43.7411 24.1221 45.1493 24.0605 46.742 23.8008L46.8924 25.0312C45.0877 25.3047 43.5155 25.373 41.3006 25.3867H40.3299V16.9238H46.1131ZM61.7439 15.8574V28.2305H60.24V15.8574H61.7439ZM57.9431 16.9375V21.5723H53.6912V24.0605C55.6394 24.0469 57.3211 23.9512 59.242 23.623L59.3787 24.8672C57.2732 25.2363 55.4275 25.3047 53.2127 25.3047H52.1326V20.3691H56.3982V18.168H52.1189V16.9375H57.9431ZM69.5134 17.5527C69.5134 19.4668 71.3864 21.3809 73.9704 21.832L73.2868 23.1035C71.2155 22.666 69.5202 21.415 68.7204 19.7539C67.9001 21.4014 66.2048 22.6592 64.1403 23.1035L63.4704 21.832C66.027 21.3672 67.8864 19.4531 67.9001 17.5527V16.6367H69.5134V17.5527ZM74.4216 25.3867V26.6445H63.1286V25.3867H74.4216ZM84.857 22.3379V23.541H76.1891V16.8281H84.7477V18.0586H77.734V19.5488H84.4605V20.7383H77.734V22.3379H84.857ZM86.1012 25.4688V26.7129H74.8082V25.4688H86.1012Z" fill="white"/>
<path d="M112.504 24.1641C113.691 23.3725 113.691 21.6275 112.504 20.8359L103 14.5L103 30.5L112.504 24.1641Z" fill="#418AEC"/>
</g>
<defs>
<filter id="filter0_b_9297_50016" x="-12" y="-12" width="139" height="69" filterUnits="userSpaceOnUse" color-interpolation-filters="sRGB">
<feFlood flood-opacity="0" result="BackgroundImageFix"/>
<feGaussianBlur in="BackgroundImageFix" stdDeviation="6"/>
<feComposite in2="SourceAlpha" operator="in" result="effect1_backgroundBlur_9297_50016"/>
<feBlend mode="normal" in="SourceGraphic" in2="effect1_backgroundBlur_9297_50016" result="shape"/>
</filter>
</defs>
</svg>
