<svg width="32" height="32" viewBox="0 0 32 32" fill="none" xmlns="http://www.w3.org/2000/svg">
<mask id="mask0_7340_173377" style="mask-type:alpha" maskUnits="userSpaceOnUse" x="0" y="0" width="32" height="32">
<rect width="32" height="32" fill="#365D96"/>
</mask>
<g mask="url(#mask0_7340_173377)">
<path d="M2.5625 22.9253V25.8897H22.5622V22.9253C22.5622 22.2382 22.3848 21.625 22.0302 21.0857C21.6755 20.5463 21.2018 20.1268 20.6092 19.827C19.3421 19.2072 18.0678 18.7293 16.7865 18.3933C15.5054 18.0576 14.0973 17.8897 12.5622 17.8897C11.0273 17.8897 9.61917 18.0576 8.33783 18.3933C7.05672 18.7293 5.78261 19.2072 4.5155 19.827C3.92283 20.1268 3.44917 20.5463 3.0945 21.0857C2.73983 21.625 2.5625 22.2382 2.5625 22.9253Z" fill="#D63457"/>
<path d="M9.2665 14.365C10.1803 15.2788 11.2788 15.7357 12.5622 15.7357C13.8455 15.7357 14.9442 15.2788 15.8582 14.365C16.7719 13.451 17.2288 12.3523 17.2288 11.069C17.2288 9.78568 16.7719 8.68712 15.8582 7.77334C14.9442 6.85934 13.8455 6.40234 12.5622 6.40234C11.2788 6.40234 10.1803 6.85934 9.2665 7.77334C8.35272 8.68712 7.89583 9.78568 7.89583 11.069C7.89583 12.3523 8.35272 13.451 9.2665 14.365Z" fill="#D63457"/>
<path d="M25.0628 25.7412V22.6129C25.0628 21.7378 24.8485 20.9037 24.4201 20.1106C23.9914 19.3177 23.3834 18.6374 22.5961 18.0696C23.4901 18.2029 24.3389 18.4092 25.1424 18.6886C25.9458 18.9681 26.7124 19.2985 27.4424 19.6796C28.1313 20.0471 28.6633 20.4804 29.0384 20.9792C29.4135 21.4779 29.6011 22.0225 29.6011 22.6129V25.7412H25.0628ZM23.9088 10.9206C23.9088 12.2039 23.4519 13.3026 22.5381 14.2166C21.6243 15.1304 20.5258 15.5872 19.2424 15.5872C19.092 15.5872 18.9005 15.5701 18.6681 15.5359C18.4354 15.5017 18.244 15.4641 18.0938 15.4232C18.6195 14.791 19.0236 14.0897 19.3061 13.3192C19.5883 12.5488 19.7294 11.7488 19.7294 10.9192C19.7294 10.0895 19.5854 9.29246 19.2974 8.52824C19.0094 7.76424 18.6082 7.06091 18.0938 6.41824C18.2851 6.34979 18.4765 6.30535 18.6681 6.28491C18.8594 6.26424 19.0509 6.25391 19.2424 6.25391C20.5258 6.25391 21.6243 6.71091 22.5381 7.62491C23.4519 8.53868 23.9088 9.63724 23.9088 10.9206Z" fill="#365D96"/>
</g>
</svg>
