<svg width="32" height="32" viewBox="0 0 32 32" fill="none" xmlns="http://www.w3.org/2000/svg">
<path d="M6.76185 25.2391H18.5705V18.5725H25.2372V6.7638H6.76185V25.2391ZM6.76185 28.2725C5.92763 28.2725 5.21352 27.9755 4.61952 27.3815C4.02552 26.7875 3.72852 26.0734 3.72852 25.2391V6.7638C3.72852 5.92958 4.02552 5.21547 4.61952 4.62147C5.21352 4.02747 5.92763 3.73047 6.76185 3.73047H25.2372C26.0714 3.73047 26.7855 4.02747 27.3795 4.62147C27.9735 5.21547 28.2705 5.92958 28.2705 6.7638V20.0415L20.0395 28.2725H6.76185Z" fill="#D63457"/>
<path d="M9.42773 15.9761V18.7624H16.0227V15.9761H9.42773Z" fill="#365D96"/>
<path d="M9.42773 10.5234V13.3094H22.5697V10.5234H9.42773Z" fill="#365D96"/>
</svg>
