<svg width="32" height="33" viewBox="0 0 32 33" fill="none" xmlns="http://www.w3.org/2000/svg">
<mask id="mask0_5824_212647" style="mask-type:alpha" maskUnits="userSpaceOnUse" x="0" y="0" width="32" height="33">
<rect y="0.320312" width="32" height="32" fill="#D9D9D9"/>
</mask>
<g mask="url(#mask0_5824_212647)">
<path d="M20.6549 27.6211V26.3269H21.7039L21.6631 26.2724C21.1908 25.7911 20.8434 25.2711 20.6209 24.7126C20.3984 24.154 20.2871 23.5887 20.2871 23.0165C20.2871 21.8631 20.6595 20.8504 21.4042 19.9785C22.1489 19.1066 23.0935 18.5617 24.2378 18.3438V20.1148C23.5748 20.2692 23.0367 20.6211 22.6235 21.1706C22.2102 21.72 22.0036 22.3353 22.0036 23.0165C22.0036 23.3707 22.074 23.7204 22.2148 24.0655C22.3556 24.4106 22.5713 24.7376 22.8619 25.0464L22.8891 25.0736V24.0791H24.1833V27.6211H20.6549ZM25.7364 27.6348V25.8637C26.3994 25.7094 26.9375 25.3574 27.3507 24.808C27.764 24.2585 27.9706 23.6432 27.9706 22.962C27.9706 22.6078 27.9002 22.2581 27.7594 21.913C27.6187 21.5679 27.403 21.2409 27.1123 20.9322L27.0851 20.9049V21.8994H25.7909V18.3574H29.3193V19.6516H28.2703L28.3112 19.7061C28.7834 20.1874 29.1308 20.7074 29.3533 21.2659C29.5759 21.8245 29.6871 22.3898 29.6871 22.962C29.6871 24.1154 29.3147 25.1281 28.57 26C27.8253 26.8719 26.8807 27.4168 25.7364 27.6348Z" fill="#375D96"/>
<path d="M13.3795 29.098C9.99884 26.1687 7.4638 23.4426 5.77438 20.9197C4.08495 18.3965 3.24023 16.0801 3.24023 13.9704C3.24023 10.8705 4.24301 8.36089 6.24856 6.44153C8.25389 4.52218 10.6309 3.5625 13.3795 3.5625C16.1281 3.5625 18.5052 4.52218 20.5107 6.44153C22.5161 8.36089 23.5187 10.8705 23.5187 13.9704V14.5349C23.5187 14.7322 23.4964 14.9272 23.4516 15.1199C22.3288 15.3922 21.3442 15.8546 20.4977 16.5072C19.6514 17.1601 18.9655 17.942 18.44 18.853C17.9148 19.764 17.5773 20.7468 17.4275 21.8015C17.2778 22.8565 17.3561 23.9247 17.6626 25.0063C17.0478 25.6659 16.3836 26.3366 15.6698 27.0186C14.9559 27.7005 14.1924 28.3937 13.3795 29.098ZM13.3795 20.018C14.5128 20.018 15.5422 19.7489 16.4677 19.2106C17.3935 18.6724 18.1388 17.9599 18.7037 17.0731C17.9631 16.5013 17.1412 16.0656 16.238 15.7661C15.3347 15.4663 14.3818 15.3164 13.3795 15.3164C12.3772 15.3164 11.4244 15.4663 10.5213 15.7661C9.6179 16.0656 8.79602 16.5013 8.05564 17.0731C8.6205 17.9599 9.3657 18.6724 10.2912 19.2106C11.217 19.7489 12.2464 20.018 13.3795 20.018ZM13.3795 13.3014C14.0323 13.3014 14.5873 13.0729 15.0445 12.6157C15.5017 12.1583 15.7303 11.6033 15.7303 10.9507C15.7303 10.298 15.5017 9.74304 15.0445 9.28564C14.5873 8.82847 14.0323 8.59989 13.3795 8.59989C12.7269 8.59989 12.172 8.82847 11.7148 9.28564C11.2574 9.74304 11.0287 10.298 11.0287 10.9507C11.0287 11.6033 11.2574 12.1583 11.7148 12.6157C12.172 13.0729 12.7269 13.3014 13.3795 13.3014Z" fill="#D63457"/>
</g>
</svg>
