<svg width="32" height="32" viewBox="0 0 32 32" fill="none" xmlns="http://www.w3.org/2000/svg">
<path d="M4 18.4469V16.2249H14.3557V18.4469H4ZM4 7.55827V5.33594H19.8443V7.55827H4ZM15.3557 13.0026H4V10.7803H16.4443C16.1777 11.0989 15.9573 11.4434 15.7833 11.8136C15.6093 12.184 15.4668 12.5804 15.3557 13.0026Z" fill="#365D96"/>
<path d="M18.5117 17.4691C19.2672 18.2246 20.208 18.6024 21.334 18.6024C22.46 18.6024 23.4008 18.2246 24.1563 17.4691C24.9119 16.7135 25.2897 15.7727 25.2897 14.6467C25.2897 13.521 24.9119 12.5803 24.1563 11.8247C23.4008 11.0692 22.46 10.6914 21.334 10.6914C20.208 10.6914 19.2672 11.0692 18.5117 11.8247C17.7561 12.5803 17.3783 13.521 17.3783 14.6467C17.3783 15.7727 17.7561 16.7135 18.5117 17.4691Z" fill="#D63457"/>
<path d="M13.334 24.3581V26.6691H29.334V24.3581C29.334 23.921 29.2265 23.5172 29.0117 23.1467C28.797 22.7765 28.5192 22.4765 28.1783 22.2467C27.1637 21.6172 26.0767 21.1265 24.9173 20.7747C23.758 20.4227 22.5635 20.2467 21.334 20.2467C20.1044 20.2467 18.9063 20.4116 17.7397 20.7414C16.573 21.071 15.4897 21.5727 14.4897 22.2467C14.1341 22.4321 13.8525 22.721 13.645 23.1134C13.4377 23.5061 13.334 23.921 13.334 24.3581Z" fill="#D63457"/>
</svg>
