<svg width="32" height="33" viewBox="0 0 32 33" fill="none" xmlns="http://www.w3.org/2000/svg">
<path d="M14.6667 16.5026C13.2 16.5026 11.9444 15.9804 10.9 14.9359C9.85556 13.8915 9.33333 12.6359 9.33333 11.1693C9.33333 9.7026 9.85556 8.44705 10.9 7.4026C11.9444 6.35816 13.2 5.83594 14.6667 5.83594C16.1333 5.83594 17.3889 6.35816 18.4333 7.4026C19.4778 8.44705 20 9.7026 20 11.1693C20 12.6359 19.4778 13.8915 18.4333 14.9359C17.3889 15.9804 16.1333 16.5026 14.6667 16.5026ZM14.7 17.8359C13.7667 19.2137 13.3 20.7693 13.3 22.5026C13.3 24.2359 13.7667 25.7915 14.7 27.1693H4V23.4693C4 22.7137 4.18889 22.0137 4.56667 21.3693C4.94444 20.7248 5.46667 20.2359 6.13333 19.9026C7.26667 19.3248 8.54445 18.8359 9.96667 18.4359C11.3889 18.0359 12.9667 17.8359 14.7 17.8359Z" fill="#D63457"/>
<path fill-rule="evenodd" clip-rule="evenodd" d="M29.4667 31.8333L25.2 27.5667C24.7333 27.8333 24.2333 28.0556 23.7 28.2333C23.1667 28.4111 22.6 28.5 22 28.5C20.3333 28.5 18.9167 27.9167 17.75 26.75C16.5833 25.5833 16 24.1667 16 22.5C16 20.8333 16.5833 19.4167 17.75 18.25C18.9167 17.0833 20.3333 16.5 22 16.5C23.6667 16.5 25.0833 17.0833 26.25 18.25C27.4167 19.4167 28 20.8333 28 22.5C28 23.1 27.9111 23.6667 27.7333 24.2C27.5556 24.7333 27.3333 25.2333 27.0667 25.7L31.3333 29.9667L29.4667 31.8333ZM21.9993 25.8307C22.9327 25.8307 23.7216 25.5085 24.366 24.8641C25.0105 24.2196 25.3327 23.4307 25.3327 22.4974C25.3327 21.5641 25.0105 20.7752 24.366 20.1307C23.7216 19.4863 22.9327 19.1641 21.9993 19.1641C21.066 19.1641 20.2771 19.4863 19.6327 20.1307C18.9882 20.7752 18.666 21.5641 18.666 22.4974C18.666 23.4307 18.9882 24.2196 19.6327 24.8641C20.2771 25.5085 21.066 25.8307 21.9993 25.8307Z" fill="#365D96"/>
</svg>
