<svg width="66" height="66" viewBox="0 0 66 66" fill="none" xmlns="http://www.w3.org/2000/svg">
<g filter="url(#filter0_d_9117_49962)">
<rect x="8" y="7" width="50" height="50" rx="6" fill="currentColor" shape-rendering="crispEdges"/>
<rect x="8.75" y="7.75" width="48.5" height="48.5" rx="5.25" stroke="#418AEC" stroke-opacity="0.3" stroke-width="1.5" shape-rendering="crispEdges"/>
<path d="M31.4587 35.851C31.4587 34.3648 31.5917 33.2959 31.8578 32.6446C32.1239 31.9932 32.6881 31.2822 33.5505 30.5115C34.3028 29.851 34.8761 29.2776 35.2706 28.7914C35.6651 28.3051 35.8624 27.7501 35.8624 27.1262C35.8624 26.3739 35.6101 25.7501 35.1055 25.2547C34.6009 24.7592 33.8991 24.5115 33 24.5115C32.0642 24.5115 31.3532 24.7959 30.867 25.3648C30.3807 25.9336 30.0367 26.5115 29.8349 27.0987L27 25.8877C27.3853 24.7134 28.0917 23.695 29.1193 22.8326C30.1468 21.9703 31.4404 21.5391 33 21.5391C34.9266 21.5391 36.4083 22.0758 37.445 23.1492C38.4817 24.2225 39 25.5115 39 27.0161C39 27.9336 38.8028 28.718 38.4083 29.3693C38.0138 30.0207 37.3945 30.7592 36.5505 31.5849C35.6514 32.4473 35.1055 33.1033 34.9128 33.5528C34.7202 34.0024 34.6239 34.7684 34.6239 35.851H31.4587ZM33 42.4565C32.3945 42.4565 31.8761 42.2409 31.445 41.8097C31.0138 41.3785 30.7982 40.8602 30.7982 40.2547C30.7982 39.6492 31.0138 39.1308 31.445 38.6996C31.8761 38.2684 32.3945 38.0528 33 38.0528C33.6055 38.0528 34.1239 38.2684 34.555 38.6996C34.9862 39.1308 35.2018 39.6492 35.2018 40.2547C35.2018 40.8602 34.9862 41.3785 34.555 41.8097C34.1239 42.2409 33.6055 42.4565 33 42.4565Z" fill="url(#paint0_linear_9117_49962)"/>
</g>
<defs>
<filter id="filter0_d_9117_49962" x="0" y="0" width="66" height="66" filterUnits="userSpaceOnUse" color-interpolation-filters="sRGB">
<feFlood flood-opacity="0" result="BackgroundImageFix"/>
<feColorMatrix in="SourceAlpha" type="matrix" values="0 0 0 0 0 0 0 0 0 0 0 0 0 0 0 0 0 0 127 0" result="hardAlpha"/>
<feOffset dy="1"/>
<feGaussianBlur stdDeviation="4"/>
<feComposite in2="hardAlpha" operator="out"/>
<feColorMatrix type="matrix" values="0 0 0 0 0.388235 0 0 0 0 0.423529 0 0 0 0 0.517647 0 0 0 0.1 0"/>
<feBlend mode="normal" in2="BackgroundImageFix" result="effect1_dropShadow_9117_49962"/>
<feBlend mode="normal" in="SourceGraphic" in2="effect1_dropShadow_9117_49962" result="shape"/>
</filter>
<linearGradient id="paint0_linear_9117_49962" x1="33" y1="21.5391" x2="33" y2="42.4565" gradientUnits="userSpaceOnUse">
<stop stop-color="#418AEC"/>
<stop offset="1" stop-color="#418AEC" stop-opacity="0.4"/>
</linearGradient>
</defs>
</svg>
