<svg width="32" height="32" viewBox="0 0 32 32" fill="none" xmlns="http://www.w3.org/2000/svg">
<path d="M12.0179 15.8613C10.4848 15.8613 9.21268 15.3556 8.20157 14.3443C7.19024 13.333 6.68457 12.0609 6.68457 10.528C6.68457 8.99509 7.19024 7.72309 8.20157 6.71198C9.21268 5.70087 10.4848 5.19531 12.0179 5.19531C13.5508 5.19531 14.8241 5.70087 15.8379 6.71198C16.8517 7.72309 17.3586 8.99509 17.3586 10.528C17.3586 12.0609 16.8517 13.333 15.8379 14.3443C14.8241 15.3556 13.5508 15.8613 12.0179 15.8613ZM1.12891 27.0016V23.4293C1.12891 22.6166 1.33546 21.8773 1.74857 21.2113C2.16146 20.5455 2.73735 20.0424 3.47624 19.702C5.05891 18.9782 6.52846 18.4571 7.88491 18.1386C9.24135 17.8204 10.6185 17.6613 12.0162 17.6613C13.424 17.6613 14.8035 17.82 16.1546 18.1373C17.5057 18.4549 18.969 18.9755 20.5446 19.6993C21.2835 20.0502 21.8631 20.5546 22.2836 21.2126C22.7038 21.8704 22.9139 22.6089 22.9139 23.428V27.0016H1.12891Z" fill="#D63457"/>
<path d="M21.6094 11.5117V13.9441H29.6417V11.5117H21.6094Z" fill="#365D96"/>
</svg>
