<svg width="32" height="32" viewBox="0 0 32 32" fill="none" xmlns="http://www.w3.org/2000/svg">
<mask id="mask0_7340_173414" style="mask-type:alpha" maskUnits="userSpaceOnUse" x="0" y="0" width="32" height="32">
<rect width="32" height="32" fill="#D9D9D9"/>
</mask>
<g mask="url(#mask0_7340_173414)">
<path d="M7.07635 28.6667C6.40279 28.6667 5.83268 28.4334 5.36602 27.9667C4.89935 27.5 4.66602 26.9299 4.66602 26.2564V8.41035C4.66602 7.7368 4.89935 7.16669 5.36602 6.70002C5.83268 6.23335 6.40279 6.00002 7.07635 6.00002H8.92235V3.17969H10.9737V6.00002H21.0763V3.17969H23.0763V6.00002H24.9223C25.5959 6.00002 26.166 6.23335 26.6327 6.70002C27.0993 7.16669 27.3327 7.7368 27.3327 8.41035V26.2564C27.3327 26.9299 27.0993 27.5 26.6327 27.9667C26.166 28.4334 25.5959 28.6667 24.9223 28.6667H7.07635ZM7.07635 26.6667H24.9223C25.025 26.6667 25.119 26.6239 25.2043 26.5384C25.2899 26.453 25.3327 26.359 25.3327 26.2564V13.7437H6.66602V26.2564C6.66602 26.359 6.70879 26.453 6.79435 26.5384C6.87968 26.6239 6.97368 26.6667 7.07635 26.6667Z" fill="#365D96"/>
<path d="M15.1643 18.4203C15.3943 18.6503 15.6726 18.7652 15.999 18.7652C16.3254 18.7652 16.6037 18.6503 16.8337 18.4203C17.0634 18.1905 17.1783 17.9123 17.1783 17.5856C17.1783 17.2591 17.0634 16.9809 16.8337 16.7509C16.6037 16.5211 16.3254 16.4062 15.999 16.4062C15.6726 16.4062 15.3943 16.5211 15.1643 16.7509C14.9346 16.9809 14.8197 17.2591 14.8197 17.5856C14.8197 17.9123 14.9346 18.1905 15.1643 18.4203Z" fill="#D63457"/>
<path d="M9.83099 18.4203C10.061 18.6503 10.3392 18.7652 10.6657 18.7652C10.9921 18.7652 11.2703 18.6503 11.5003 18.4203C11.7301 18.1905 11.845 17.9123 11.845 17.5856C11.845 17.2591 11.7301 16.9809 11.5003 16.7509C11.2703 16.5211 10.9921 16.4062 10.6657 16.4062C10.3392 16.4062 10.061 16.5211 9.83099 16.7509C9.60122 16.9809 9.48633 17.2591 9.48633 17.5856C9.48633 17.9123 9.60122 18.1905 9.83099 18.4203Z" fill="#D63457"/>
<path d="M20.4977 18.4203C20.7277 18.6503 21.0059 18.7652 21.3323 18.7652C21.6588 18.7652 21.937 18.6503 22.167 18.4203C22.3968 18.1905 22.5117 17.9123 22.5117 17.5856C22.5117 17.2591 22.3968 16.9809 22.167 16.7509C21.937 16.5211 21.6588 16.4062 21.3323 16.4062C21.0059 16.4062 20.7277 16.5211 20.4977 16.7509C20.2679 16.9809 20.153 17.2591 20.153 17.5856C20.153 17.9123 20.2679 18.1905 20.4977 18.4203Z" fill="#D63457"/>
<path d="M15.1643 23.6509C15.3943 23.8809 15.6726 23.9959 15.999 23.9959C16.3254 23.9959 16.6037 23.8809 16.8337 23.6509C17.0634 23.4211 17.1783 23.143 17.1783 22.8166C17.1783 22.4899 17.0634 22.2117 16.8337 21.9819C16.6037 21.7519 16.3254 21.6369 15.999 21.6369C15.6726 21.6369 15.3943 21.7519 15.1643 21.9819C14.9346 22.2117 14.8197 22.4899 14.8197 22.8166C14.8197 23.143 14.9346 23.4211 15.1643 23.6509Z" fill="#D63457"/>
<path d="M9.83099 23.6509C10.061 23.8809 10.3392 23.9959 10.6657 23.9959C10.9921 23.9959 11.2703 23.8809 11.5003 23.6509C11.7301 23.4211 11.845 23.143 11.845 22.8166C11.845 22.4899 11.7301 22.2117 11.5003 21.9819C11.2703 21.7519 10.9921 21.6369 10.6657 21.6369C10.3392 21.6369 10.061 21.7519 9.83099 21.9819C9.60122 22.2117 9.48633 22.4899 9.48633 22.8166C9.48633 23.143 9.60122 23.4211 9.83099 23.6509Z" fill="#D63457"/>
<path d="M20.4977 23.6509C20.7277 23.8809 21.0059 23.9959 21.3323 23.9959C21.6588 23.9959 21.937 23.8809 22.167 23.6509C22.3968 23.4211 22.5117 23.143 22.5117 22.8166C22.5117 22.4899 22.3968 22.2117 22.167 21.9819C21.937 21.7519 21.6588 21.6369 21.3323 21.6369C21.0059 21.6369 20.7277 21.7519 20.4977 21.9819C20.2679 22.2117 20.153 22.4899 20.153 22.8166C20.153 23.143 20.2679 23.4211 20.4977 23.6509Z" fill="#D63457"/>
</g>
</svg>
