<svg width="32" height="33" viewBox="0 0 32 33" fill="none" xmlns="http://www.w3.org/2000/svg">
<path d="M16.0007 27.1693C14.934 26.3248 13.7784 25.6693 12.534 25.2026C11.2895 24.7359 10.0007 24.5026 8.66732 24.5026C7.73398 24.5026 6.81732 24.6248 5.91732 24.8693C5.01732 25.1137 4.15621 25.4582 3.33398 25.9026C2.86732 26.147 2.41732 26.1359 1.98398 25.8693C1.55065 25.6026 1.33398 25.2137 1.33398 24.7026V8.63594C1.33398 8.39149 1.3951 8.15816 1.51732 7.93594C1.63954 7.71372 1.82287 7.54705 2.06732 7.43594C3.08954 6.9026 4.15621 6.5026 5.26732 6.23594C6.37843 5.96927 7.51176 5.83594 8.66732 5.83594C9.95621 5.83594 11.2173 6.0026 12.4507 6.33594C13.684 6.66927 14.8673 7.16927 16.0007 7.83594V24.4583C17.134 23.7323 18.3229 23.1878 19.5673 22.8249C20.8118 22.4618 22.0673 22.2803 23.334 22.2803C24.134 22.2803 24.9765 22.3544 25.8617 22.5026C26.747 22.6508 27.6081 22.9323 28.445 23.3469V6.7916C28.7043 6.88783 28.9581 6.98594 29.2063 7.08594C29.4543 7.18594 29.6969 7.3026 29.934 7.43594C30.1635 7.56194 30.3432 7.73227 30.473 7.94694C30.6025 8.16183 30.6673 8.39149 30.6673 8.63594V24.7026C30.6673 25.2137 30.4507 25.6026 30.0173 25.8693C29.584 26.1359 29.134 26.147 28.6673 25.9026C27.8451 25.4582 26.984 25.1137 26.084 24.8693C25.184 24.6248 24.2673 24.5026 23.334 24.5026C22.0007 24.5026 20.7118 24.7359 19.4673 25.2026C18.2229 25.6693 17.0673 26.3248 16.0007 27.1693Z" fill="#D63457"/>
<path d="M18.2227 9.17188V21.2385L26.2227 14.2162V1.17188L18.2227 9.17188Z" fill="#365D96"/>
</svg>
