<svg width="32" height="32" viewBox="0 0 32 32" fill="none" xmlns="http://www.w3.org/2000/svg">
<path d="M15.9993 29.3346C14.1549 29.3346 12.4216 28.9846 10.7993 28.2846C9.17713 27.5846 7.76602 26.6346 6.56602 25.4346C5.36602 24.2346 4.41602 22.8235 3.71602 21.2013C3.01602 19.5791 2.66602 17.8457 2.66602 16.0013C2.66602 14.1569 3.01602 12.4235 3.71602 10.8013C4.41602 9.17908 5.36602 7.76797 6.56602 6.56797C7.76602 5.36797 9.17713 4.41797 10.7993 3.71797C12.4216 3.01797 14.1549 2.66797 15.9993 2.66797C19.2438 2.66797 22.0827 3.68464 24.516 5.71797C26.9493 7.7513 28.466 10.3013 29.066 13.368H26.3327C25.9105 11.7457 25.1494 10.2957 24.0494 9.01797C22.9494 7.74019 21.5993 6.77908 19.9993 6.13464V6.66797C19.9993 7.4013 19.7382 8.02908 19.216 8.5513C18.6938 9.07352 18.066 9.33464 17.3327 9.33464H14.666V12.0013C14.666 12.3791 14.5382 12.6957 14.2827 12.9513C14.0271 13.2069 13.7105 13.3346 13.3327 13.3346H10.666V16.0013H13.3327V20.0013H11.9993L5.59935 13.6013C5.53268 14.0013 5.47157 14.4013 5.41602 14.8013C5.36046 15.2013 5.33268 15.6013 5.33268 16.0013C5.33268 18.9124 6.3549 21.4124 8.39935 23.5013C10.4438 25.5902 12.9771 26.6457 15.9993 26.668V29.3346Z" fill="#365D96"/>
<path fill-rule="evenodd" clip-rule="evenodd" d="M28.1327 28.6693L23.866 24.4026C23.3993 24.6693 22.8993 24.8915 22.366 25.0693C21.8327 25.247 21.266 25.3359 20.666 25.3359C18.9993 25.3359 17.5827 24.7526 16.416 23.5859C15.2493 22.4193 14.666 21.0026 14.666 19.3359C14.666 17.6693 15.2493 16.2526 16.416 15.0859C17.5827 13.9193 18.9993 13.3359 20.666 13.3359C22.3327 13.3359 23.7493 13.9193 24.916 15.0859C26.0827 16.2526 26.666 17.6693 26.666 19.3359C26.666 19.9359 26.5771 20.5026 26.3994 21.0359C26.2216 21.5693 25.9993 22.0693 25.7327 22.5359L29.9993 26.8026L28.1327 28.6693ZM20.6654 22.6706C21.5987 22.6706 22.3876 22.3484 23.032 21.7039C23.6765 21.0595 23.9987 20.2706 23.9987 19.3372C23.9987 18.4039 23.6765 17.615 23.032 16.9706C22.3876 16.3261 21.5987 16.0039 20.6654 16.0039C19.732 16.0039 18.9431 16.3261 18.2987 16.9706C17.6543 17.615 17.332 18.4039 17.332 19.3372C17.332 20.2706 17.6543 21.0595 18.2987 21.7039C18.9431 22.3484 19.732 22.6706 20.6654 22.6706Z" fill="#D63457"/>
</svg>
