<svg width="32" height="33" viewBox="0 0 32 33" fill="none" xmlns="http://www.w3.org/2000/svg">
<path d="M4 28.4333V7.16667L11.6333 4.5L20.4 7.56667L28 4.53333V19.1667C27.3778 17.9667 26.5056 17.0444 25.3833 16.4C24.2611 15.7556 23.0667 15.4333 21.8 15.4333C21.3778 15.4333 20.9556 15.4667 20.5333 15.5333C20.1111 15.6 19.6889 15.7222 19.2667 15.9V9.16667L12.7333 6.96667V24.9667L4 28.4333Z" fill="#D63457"/>
<path fill-rule="evenodd" clip-rule="evenodd" d="M21.7988 27.4297C20.4211 27.4297 19.2433 26.9408 18.2655 25.963C17.2877 24.9852 16.7988 23.8075 16.7988 22.4297C16.7988 21.0297 17.2877 19.8464 18.2655 18.8797C19.2433 17.913 20.4211 17.4297 21.7988 17.4297C23.1988 17.4297 24.3822 17.913 25.3488 18.8797C26.3155 19.8464 26.7988 21.0297 26.7988 22.4297C26.7988 22.9408 26.7266 23.4297 26.5822 23.8964C26.4377 24.363 26.2322 24.7964 25.9655 25.1964L29.3322 28.563L28.0655 29.8297L24.6988 26.4964C24.2766 26.8075 23.8266 27.0408 23.3488 27.1964C22.871 27.3519 22.3544 27.4297 21.7988 27.4297ZM21.7988 25.4297C22.6433 25.4297 23.3544 25.1408 23.9322 24.563C24.5099 23.9852 24.7988 23.2741 24.7988 22.4297C24.7988 21.5852 24.5099 20.8741 23.9322 20.2964C23.3544 19.7186 22.6433 19.4297 21.7988 19.4297C20.9544 19.4297 20.2433 19.7186 19.6655 20.2964C19.0877 20.8741 18.7988 21.5852 18.7988 22.4297C18.7988 23.2741 19.0877 23.9852 19.6655 24.563C20.2433 25.1408 20.9544 25.4297 21.7988 25.4297Z" fill="#365D96"/>
</svg>
