<svg width="32" height="32" viewBox="0 0 32 32" fill="none" xmlns="http://www.w3.org/2000/svg">
<mask id="mask0_7340_173396" style="mask-type:alpha" maskUnits="userSpaceOnUse" x="0" y="0" width="32" height="32">
<rect width="32" height="32" fill="#D9D9D9"/>
</mask>
<g mask="url(#mask0_7340_173396)">
<path d="M15.9988 29.3328C14.3322 29.3328 12.7711 29.0161 11.3155 28.3828C9.85994 27.7495 8.59327 26.8939 7.5155 25.8161C6.43772 24.7384 5.58216 23.4717 4.94883 22.0161C4.3155 20.5606 3.99883 18.9995 3.99883 17.3328C3.99883 15.6661 4.3155 14.105 4.94883 12.6495C5.58216 11.1939 6.43772 9.92726 7.5155 8.84948C8.59327 7.7717 9.85994 6.91615 11.3155 6.28281C12.7711 5.64948 14.3322 5.33281 15.9988 5.33281C17.6655 5.33281 19.2266 5.64948 20.6822 6.28281C22.1377 6.91615 23.4044 7.7717 24.4822 8.84948C25.5599 9.92726 26.4155 11.1939 27.0488 12.6495C27.6822 14.105 27.9988 15.6661 27.9988 17.3328C27.9988 18.9995 27.6822 20.5606 27.0488 22.0161C26.4155 23.4717 25.5599 24.7384 24.4822 25.8161C23.4044 26.8939 22.1377 27.7495 20.6822 28.3828C19.2266 29.0161 17.6655 29.3328 15.9988 29.3328ZM7.4655 3.13281L9.33216 4.99948L3.66549 10.6661L1.79883 8.79948L7.4655 3.13281ZM24.5322 3.13281L30.1988 8.79948L28.3322 10.6661L22.6655 4.99948L24.5322 3.13281ZM15.9988 26.6661C18.5988 26.6661 20.8044 25.7606 22.6155 23.9495C24.4266 22.1384 25.3322 19.9328 25.3322 17.3328C25.3322 14.7328 24.4266 12.5273 22.6155 10.7161C20.8044 8.90503 18.5988 7.99948 15.9988 7.99948C13.3988 7.99948 11.1933 8.90503 9.38216 10.7161C7.57105 12.5273 6.6655 14.7328 6.6655 17.3328C6.6655 19.9328 7.57105 22.1384 9.38216 23.9495C11.1933 25.7606 13.3988 26.6661 15.9988 26.6661Z" fill="#D63457"/>
<path d="M22.1319 14.5328L14.5986 22.0661L9.86523 17.3328L11.7652 15.4328L14.5986 18.2661L20.2319 12.6328L22.1319 14.5328Z" fill="#365D96"/>
</g>
</svg>
