<svg width="80" height="46" viewBox="0 0 80 46" fill="none" xmlns="http://www.w3.org/2000/svg">
<g filter="url(#filter0_b_9297_37173)">
<rect width="68" height="45" rx="4" transform="matrix(1 0 0 -1 0 45.5)" fill="#418AEC"/>
<path d="M26.4453 21.9766V23.1797H22.7812V26.0098H27.7031V27.2539H16.4102V26.0098H21.2773V23.1797H17.7773V17.2734H26.3496V18.4902H19.2949V21.9766H26.4453ZM33.7089 16.5488C36.4433 16.5488 38.1523 17.4375 38.1659 18.9277C38.1523 20.3906 36.4433 21.2656 33.7089 21.252C31.0019 21.2656 29.2519 20.3906 29.2519 18.9277C29.2519 17.4375 31.0019 16.5488 33.7089 16.5488ZM33.7089 17.7246C31.9042 17.7246 30.8241 18.1484 30.8378 18.9277C30.8241 19.6797 31.9042 20.0898 33.7089 20.0898C35.5136 20.0898 36.5937 19.6797 36.5937 18.9277C36.5937 18.1484 35.5136 17.7246 33.7089 17.7246ZM37.9882 24.4102V28.5664H29.4159V24.4102H32.957V23.2207H28.0898V22.0039H39.3554V23.2207H34.4609V24.4102H37.9882ZM30.9198 25.6133V27.3359H36.5116V25.6133H30.9198ZM49.5174 16.3574V18.8457H51.2401V20.1035H49.5174V22.5645H47.9998V16.3574H49.5174ZM46.0448 16.9863V22.0449H40.1932V16.9863H46.0448ZM41.6834 18.1895V20.8418H44.5545V18.1895H41.6834ZM49.5174 23.0977V26.3379H42.9549V27.3633H49.9002V28.5664H41.451V25.2305H47.9998V24.2734H41.4373V23.0977H49.5174Z" fill="white"/>
<path d="M77.5038 24.6641C78.6913 23.8725 78.6913 22.1275 77.5038 21.3359L68 15L68 31L77.5038 24.6641Z" fill="#418AEC"/>
</g>
<defs>
<filter id="filter0_b_9297_37173" x="-12" y="-11.5" width="104" height="69" filterUnits="userSpaceOnUse" color-interpolation-filters="sRGB">
<feFlood flood-opacity="0" result="BackgroundImageFix"/>
<feGaussianBlur in="BackgroundImageFix" stdDeviation="6"/>
<feComposite in2="SourceAlpha" operator="in" result="effect1_backgroundBlur_9297_37173"/>
<feBlend mode="normal" in="SourceGraphic" in2="effect1_backgroundBlur_9297_37173" result="shape"/>
</filter>
</defs>
</svg>
