<svg width="56" height="33" viewBox="0 0 56 33" fill="none" xmlns="http://www.w3.org/2000/svg">
<g clip-path="url(#clip0_168_9123)">
<rect y="0.511719" width="56" height="32" rx="16" fill="url(#paint0_linear_168_9123)"/>
<path d="M20.5605 17V18.3184H17.6162V22.8154H15.9609V18.3184H13.0312V22.8154H11.3613V18.3184H8.46094V17H20.5605ZM14.4814 10.042C17.2939 10.0566 19.2568 11.1992 19.2568 13.001C19.2568 14.7734 17.2939 15.9014 14.4814 15.9014C11.6543 15.9014 9.7207 14.7734 9.73535 13.001C9.7207 11.1992 11.6543 10.0566 14.4814 10.042ZM14.4814 11.3604C12.6064 11.3604 11.3906 11.9609 11.4053 13.001C11.3906 14.0117 12.6064 14.6123 14.4814 14.6123C16.3564 14.6123 17.5723 14.0117 17.5723 13.001C17.5723 11.9609 16.3564 11.3604 14.4814 11.3604ZM32.4697 9.57324V16.6777H30.8291V9.57324H32.4697ZM25.3213 17.293V18.6553H30.8438V17.293H32.4697V22.6543H23.71V17.293H25.3213ZM25.3213 21.3359H30.8438V19.9297H25.3213V21.3359ZM25.248 10.1592C27.2842 10.1445 28.8076 11.4189 28.8076 13.2646C28.8076 15.0664 27.2842 16.3408 25.248 16.3408C23.1973 16.3408 21.6738 15.0664 21.6738 13.2646C21.6738 11.4189 23.1973 10.1445 25.248 10.1592ZM25.248 11.5215C24.0908 11.5215 23.2559 12.1953 23.2705 13.2646C23.2559 14.3193 24.0908 14.9932 25.248 15.0078C26.3906 14.9932 27.2109 14.3193 27.2109 13.2646C27.2109 12.1953 26.3906 11.5215 25.248 11.5215Z" fill="#F6F2FF"/>
<path fill-rule="evenodd" clip-rule="evenodd" d="M42 20.7617C44.3472 20.7617 46.25 18.8589 46.25 16.5117C46.25 14.1645 44.3472 12.2617 42 12.2617C39.6528 12.2617 37.75 14.1645 37.75 16.5117C37.75 18.8589 39.6528 20.7617 42 20.7617ZM42 21.5117C44.7614 21.5117 47 19.2731 47 16.5117C47 13.7503 44.7614 11.5117 42 11.5117C39.2386 11.5117 37 13.7503 37 16.5117C37 19.2731 39.2386 21.5117 42 21.5117Z" fill="white"/>
<path fill-rule="evenodd" clip-rule="evenodd" d="M42.0784 13.8598L44.4649 16.2463C44.6113 16.3928 44.6113 16.6302 44.4649 16.7767L42.0784 19.1631C41.9319 19.3096 41.6945 19.3096 41.5481 19.1631C41.4016 19.0167 41.4016 18.7793 41.5481 18.6328L43.2944 16.8865H37.1997V16.1365H43.2944L41.5481 14.3902C41.4016 14.2437 41.4016 14.0063 41.5481 13.8598C41.6945 13.7134 41.9319 13.7134 42.0784 13.8598Z" fill="white"/>
</g>
<defs>
<linearGradient id="paint0_linear_168_9123" x1="5.82404e-08" y1="4.04219" x2="24.721" y2="47.0793" gradientUnits="userSpaceOnUse">
<stop stop-color="#119891"/>
<stop offset="1" stop-color="#119891"/>
</linearGradient>
<clipPath id="clip0_168_9123">
<rect y="0.511719" width="56" height="32" rx="16" fill="white"/>
</clipPath>
</defs>
</svg>
