<svg width="18" height="19" viewBox="0 0 18 19" fill="none" xmlns="http://www.w3.org/2000/svg">
<path d="M8.325 12.7539H9.675V8.70391H8.325V12.7539ZM9 2.62891C5.274 2.62891 2.25 5.65291 2.25 9.37891C2.25 13.1049 5.274 16.1289 9 16.1289C12.726 16.1289 15.75 13.1049 15.75 9.37891C15.75 5.65291 12.726 2.62891 9 2.62891ZM9 14.7789C6.02325 14.7789 3.6 12.3557 3.6 9.37891C3.6 6.40216 6.02325 3.97891 9 3.97891C11.9768 3.97891 14.4 6.40216 14.4 9.37891C14.4 12.3557 11.9768 14.7789 9 14.7789ZM8.325 7.35391H9.675V6.00391H8.325V7.35391Z" fill="#999999"/>
</svg>
