<svg width="84" height="45" viewBox="0 0 88 49" fill="none" xmlns="http://www.w3.org/2000/svg">
<g filter="url(#filter0_d_6159_37446)">
<rect x="4" y="3.61328" width="80" height="40" rx="20" fill="#EDEDED" shape-rendering="crispEdges"/>
<rect x="4.5" y="4.11328" width="79" height="39" rx="19.5" stroke="#E6E6E6" shape-rendering="crispEdges"/>
<g filter="url(#filter1_d_6159_37446)">
<rect x="10" y="8.61328" width="30" height="30" rx="15" fill="white" shape-rendering="crispEdges"/>
<g clip-path="url(#clip0_6159_37446)">
<path d="M23.8953 17.1237V14.082H26.1036V17.1237H23.8953ZM23.8953 33.1454V30.1037H26.1036V33.1454H23.8953ZM31.4894 24.7179V22.5095H34.5311V24.7179H31.4894ZM15.4678 24.7179V22.5095H18.5094V24.7179H15.4678ZM30.6417 19.5268L29.0863 17.9714L30.9334 16.0947L32.5184 17.6797L30.6417 19.5268ZM19.0655 31.1327L17.4805 29.5477L19.3571 27.7006L20.9126 29.256L19.0655 31.1327ZM30.9334 31.1327L29.0863 29.256L30.6417 27.7006L32.5184 29.5477L30.9334 31.1327ZM19.3571 19.5268L17.4805 17.6797L19.0655 16.0947L20.9126 17.9714L19.3571 19.5268ZM24.9994 28.6137C23.6106 28.6137 22.43 28.1276 21.4578 27.1554C20.4856 26.1831 19.9994 25.0026 19.9994 23.6137C19.9994 22.2248 20.4856 21.0443 21.4578 20.072C22.43 19.0998 23.6106 18.6137 24.9994 18.6137C26.3883 18.6137 27.5689 19.0998 28.5411 20.072C29.5133 21.0443 29.9994 22.2248 29.9994 23.6137C29.9994 25.0026 29.5133 26.1831 28.5411 27.1554C27.5689 28.1276 26.3883 28.6137 24.9994 28.6137Z" fill="#F9C74F"/>
</g>
</g>
<g opacity="0.9">
<path d="M63.084 31.5326C61.9761 31.5326 60.9371 31.3224 59.9671 30.902C58.997 30.4816 58.1508 29.9102 57.4286 29.188C56.7063 28.4658 56.135 27.6196 55.7146 26.6495C55.2942 25.6795 55.084 24.6405 55.084 23.5326C55.084 21.7079 55.6404 20.0826 56.7532 18.6568C57.8658 17.2311 59.3046 16.296 61.0696 15.8516C60.9157 17.1892 61.0535 18.4862 61.4829 19.7426C61.9125 20.999 62.6043 22.1042 63.5584 23.0582C64.5124 24.0123 65.6176 24.7041 66.874 25.1336C68.1304 25.5631 69.4274 25.7009 70.765 25.547C70.3292 27.312 69.3962 28.7508 67.9661 29.8634C66.5361 30.9762 64.9087 31.5326 63.084 31.5326Z" fill="#DADADA"/>
</g>
</g>
<defs>
<filter id="filter0_d_6159_37446" x="0" y="0.613281" width="88" height="48" filterUnits="userSpaceOnUse" color-interpolation-filters="sRGB">
<feFlood flood-opacity="0" result="BackgroundImageFix"/>
<feColorMatrix in="SourceAlpha" type="matrix" values="0 0 0 0 0 0 0 0 0 0 0 0 0 0 0 0 0 0 127 0" result="hardAlpha"/>
<feOffset dy="1"/>
<feGaussianBlur stdDeviation="2"/>
<feComposite in2="hardAlpha" operator="out"/>
<feColorMatrix type="matrix" values="0 0 0 0 0.2 0 0 0 0 0.2 0 0 0 0 0.2 0 0 0 0.06 0"/>
<feBlend mode="normal" in2="BackgroundImageFix" result="effect1_dropShadow_6159_37446"/>
<feBlend mode="normal" in="SourceGraphic" in2="effect1_dropShadow_6159_37446" result="shape"/>
</filter>
<filter id="filter1_d_6159_37446" x="6" y="4.61328" width="38" height="38" filterUnits="userSpaceOnUse" color-interpolation-filters="sRGB">
<feFlood flood-opacity="0" result="BackgroundImageFix"/>
<feColorMatrix in="SourceAlpha" type="matrix" values="0 0 0 0 0 0 0 0 0 0 0 0 0 0 0 0 0 0 127 0" result="hardAlpha"/>
<feOffset/>
<feGaussianBlur stdDeviation="2"/>
<feComposite in2="hardAlpha" operator="out"/>
<feColorMatrix type="matrix" values="0 0 0 0 0.866667 0 0 0 0 0.866667 0 0 0 0 0.866667 0 0 0 0.8 0"/>
<feBlend mode="normal" in2="BackgroundImageFix" result="effect1_dropShadow_6159_37446"/>
<feBlend mode="normal" in="SourceGraphic" in2="effect1_dropShadow_6159_37446" result="shape"/>
</filter>
<clipPath id="clip0_6159_37446">
<rect width="20" height="20" fill="white" transform="translate(15 13.6133)"/>
</clipPath>
</defs>
</svg>
