<svg width="24" height="25" viewBox="0 0 24 25" fill="none" xmlns="http://www.w3.org/2000/svg">
<mask id="mask0_2699_144657" style="mask-type:alpha" maskUnits="userSpaceOnUse" x="0" y="0" width="24" height="25">
<rect y="0.5" width="24" height="24" fill="#D9D9D9"/>
</mask>
<g mask="url(#mask0_2699_144657)">
<path d="M5.30775 21C4.80258 21 4.375 20.825 4.025 20.475C3.675 20.125 3.5 19.6974 3.5 19.1923V5.80775C3.5 5.30258 3.675 4.875 4.025 4.525C4.375 4.175 4.80258 4 5.30775 4H12.0095V5.5H5.30775C5.23075 5.5 5.16025 5.53208 5.09625 5.59625C5.03208 5.66025 5 5.73075 5 5.80775V19.1923C5 19.2692 5.03208 19.3398 5.09625 19.4038C5.16025 19.4679 5.23075 19.5 5.30775 19.5H12.0095V21H5.30775ZM16.2308 16.7692L15.1923 15.6845L17.627 13.25H9.09625V11.75H17.627L15.1923 9.3155L16.2308 8.23075L20.5 12.5L16.2308 16.7692Z" fill="#333333"/>
</g>
</svg>
