<svg width="57" height="33" viewBox="0 0 57 33" fill="none" xmlns="http://www.w3.org/2000/svg">
<g clip-path="url(#clip0_168_9126)">
<rect x="0.210938" y="0.511719" width="56" height="32" rx="16" fill="#D63457"/>
<path d="M20.7715 17V18.3184H17.8271V22.8154H16.1719V18.3184H13.2422V22.8154H11.5723V18.3184H8.67188V17H20.7715ZM14.6924 10.042C17.5049 10.0566 19.4678 11.1992 19.4678 13.001C19.4678 14.7734 17.5049 15.9014 14.6924 15.9014C11.8652 15.9014 9.93164 14.7734 9.94629 13.001C9.93164 11.1992 11.8652 10.0566 14.6924 10.042ZM14.6924 11.3604C12.8174 11.3604 11.6016 11.9609 11.6162 13.001C11.6016 14.0117 12.8174 14.6123 14.6924 14.6123C16.5674 14.6123 17.7832 14.0117 17.7832 13.001C17.7832 11.9609 16.5674 11.3604 14.6924 11.3604ZM33.6914 15.3008V16.502H28.4766V17.4688H32.2119V20.5742H24.6826V21.4824H32.5781V22.6982H23.0859V19.4609H30.6152V18.6406H23.0713V17.4688H26.8652V16.502H21.6797V15.3008H33.6914ZM28.4766 9.54395V10.6572H32.5342V11.873H28.6523C28.9673 12.8105 30.5054 13.5137 33.1494 13.6455L32.666 14.8613C30.293 14.7148 28.5059 14.0703 27.6709 13.001C26.8359 14.0703 25.0562 14.7148 22.6611 14.8613L22.207 13.6455C24.8218 13.5137 26.3599 12.8105 26.7041 11.873H22.8369V10.6572H26.8652V9.54395H28.4766Z" fill="#F6F2FF"/>
<path fill-rule="evenodd" clip-rule="evenodd" d="M42.2109 20.7617C44.5581 20.7617 46.4609 18.8589 46.4609 16.5117C46.4609 14.1645 44.5581 12.2617 42.2109 12.2617C39.8637 12.2617 37.9609 14.1645 37.9609 16.5117C37.9609 18.8589 39.8637 20.7617 42.2109 20.7617ZM42.2109 21.5117C44.9724 21.5117 47.2109 19.2731 47.2109 16.5117C47.2109 13.7503 44.9724 11.5117 42.2109 11.5117C39.4495 11.5117 37.2109 13.7503 37.2109 16.5117C37.2109 19.2731 39.4495 21.5117 42.2109 21.5117Z" fill="white"/>
<path fill-rule="evenodd" clip-rule="evenodd" d="M42.2893 13.8598L44.6758 16.2463C44.8223 16.3928 44.8223 16.6302 44.6758 16.7767L42.2893 19.1631C42.1429 19.3096 41.9054 19.3096 41.759 19.1631C41.6125 19.0167 41.6125 18.7793 41.759 18.6328L43.5053 16.8865H37.4106V16.1365H43.5053L41.759 14.3902C41.6125 14.2437 41.6125 14.0063 41.759 13.8598C41.9054 13.7134 42.1429 13.7134 42.2893 13.8598Z" fill="white"/>
</g>
<defs>
<clipPath id="clip0_168_9126">
<rect x="0.210938" y="0.511719" width="56" height="32" rx="16" fill="white"/>
</clipPath>
</defs>
</svg>
