<svg width="24" height="24" viewBox="0 0 24 24" fill="none" xmlns="http://www.w3.org/2000/svg">
<path d="M9.625 16.275L16.275 12L9.625 7.725V16.275ZM12 21.5C10.6858 21.5 9.45083 21.2506 8.295 20.7519C7.13917 20.2531 6.13375 19.5763 5.27875 18.7213C4.42375 17.8663 3.74687 16.8608 3.24813 15.705C2.74938 14.5492 2.5 13.3142 2.5 12C2.5 10.6858 2.74938 9.45083 3.24813 8.295C3.74687 7.13917 4.42375 6.13375 5.27875 5.27875C6.13375 4.42375 7.13917 3.74687 8.295 3.24813C9.45083 2.74938 10.6858 2.5 12 2.5C13.3142 2.5 14.5492 2.74938 15.705 3.24813C16.8608 3.74687 17.8663 4.42375 18.7213 5.27875C19.5763 6.13375 20.2531 7.13917 20.7519 8.295C21.2506 9.45083 21.5 10.6858 21.5 12C21.5 13.3142 21.2506 14.5492 20.7519 15.705C20.2531 16.8608 19.5763 17.8663 18.7213 18.7213C17.8663 19.5763 16.8608 20.2531 15.705 20.7519C14.5492 21.2506 13.3142 21.5 12 21.5Z" fill="currentColor"/>
</svg>
