<svg width="33" height="32" viewBox="0 0 33 32" fill="none" xmlns="http://www.w3.org/2000/svg">
<path d="M20.0498 25.5664V24.4706H20.9382L20.9035 24.4244C20.5036 24.0168 20.2094 23.5766 20.0209 23.1036C19.8325 22.6307 19.7383 22.152 19.7383 21.6675C19.7383 20.6909 20.0536 19.8334 20.6843 19.0952C21.315 18.3569 22.1149 17.8955 23.0841 17.7109V19.2105C22.5226 19.3412 22.0669 19.6392 21.7169 20.1045C21.367 20.5697 21.192 21.0907 21.192 21.6675C21.192 21.9674 21.2516 22.2635 21.3708 22.5557C21.49 22.8479 21.6727 23.1248 21.9188 23.3862L21.9419 23.4093V22.5672H23.0379V25.5664H20.0498ZM24.3532 25.5779V24.0784C24.9146 23.9476 25.3704 23.6496 25.7203 23.1844C26.0703 22.7191 26.2453 22.1981 26.2453 21.6214C26.2453 21.3214 26.1857 21.0254 26.0664 20.7332C25.9472 20.4409 25.7646 20.1641 25.5184 19.9026L25.4954 19.8796V20.7216H24.3993V17.7225H27.3875V18.8183H26.4991L26.5337 18.8645C26.9337 19.272 27.2279 19.7123 27.4163 20.1852C27.6047 20.6582 27.699 21.1369 27.699 21.6214C27.699 22.598 27.3836 23.4555 26.7529 24.1937C26.1222 24.932 25.3223 25.3934 24.3532 25.5779Z" fill="currentColor"/>
<path d="M13.8875 26.8092C11.0245 24.3289 8.87764 22.0206 7.4469 19.8843C6.01615 17.7479 5.30078 15.7865 5.30078 14.0002C5.30078 11.3754 6.15001 9.25044 7.84848 7.62527C9.54675 6.00009 11.5598 5.1875 13.8875 5.1875C16.2153 5.1875 18.2284 6.00009 19.9268 7.62527C21.6251 9.25044 22.4743 11.3754 22.4743 14.0002V14.4782C22.4743 14.6452 22.4553 14.8103 22.4174 14.9735C21.4665 15.2041 20.6326 15.5956 19.9158 16.1482C19.1991 16.701 18.6182 17.3631 18.1732 18.1344C17.7284 18.9058 17.4426 19.738 17.3157 20.6311C17.1889 21.5243 17.2552 22.4288 17.5148 23.3446C16.9942 23.9031 16.4316 24.4711 15.8272 25.0485C15.2225 25.6259 14.576 26.2128 13.8875 26.8092ZM13.8875 19.1208C14.8473 19.1208 15.7191 18.893 16.5029 18.4373C17.2869 17.9815 17.9181 17.3782 18.3965 16.6273C17.7693 16.1432 17.0732 15.7743 16.3084 15.5206C15.5433 15.2668 14.7364 15.1399 13.8875 15.1399C13.0387 15.1399 12.2318 15.2668 11.467 15.5206C10.7019 15.7743 10.0059 16.1432 9.37886 16.6273C9.85722 17.3782 10.4883 17.9815 11.2721 18.4373C12.0561 18.893 12.9279 19.1208 13.8875 19.1208ZM13.8875 13.4338C14.4404 13.4338 14.9104 13.2402 15.2976 12.8531C15.6848 12.4658 15.8784 11.9959 15.8784 11.4433C15.8784 10.8907 15.6848 10.4208 15.2976 10.0335C14.9104 9.64636 14.4404 9.45281 13.8875 9.45281C13.3348 9.45281 12.8649 9.64636 12.4777 10.0335C12.0904 10.4208 11.8967 10.8907 11.8967 11.4433C11.8967 11.9959 12.0904 12.4658 12.4777 12.8531C12.8649 13.2402 13.3348 13.4338 13.8875 13.4338Z" fill="currentColor"/>
</svg>
