<svg width="853" height="224" viewBox="0 0 853 224" fill="none" xmlns="http://www.w3.org/2000/svg">
<g filter="url(#filter0_d_4435_141647)">
<rect width="832" height="192" rx="8" transform="matrix(1 0 0 -1 10.5 212)" fill="white"/>
<rect x="0.5" y="-0.5" width="783" height="107" rx="3.5" transform="matrix(1 0 0 -1 34.5 187)" fill="#F8F8F8"/>
<rect x="0.5" y="-0.5" width="783" height="107" rx="3.5" transform="matrix(1 0 0 -1 34.5 187)" stroke="#EEEEEE"/>
<path d="M58.6562 98.8281V112.828H57.1562V98.8281H58.6562ZM54.4844 100.328C54.4844 104.422 52.7344 107.984 47.9375 110.281L47.1562 109.078C50.8828 107.305 52.6953 104.781 52.9844 101.516H47.8281V100.328H54.4844ZM72.4688 99.5V100.688H68.2031C68.2891 102.211 70.3047 103.555 72.9062 103.875L72.3438 105.047C69.9453 104.734 67.9766 103.617 67.2188 102.047C66.4609 103.609 64.5 104.734 62.1094 105.047L61.5469 103.875C64.1641 103.555 66.1562 102.211 66.2344 100.688H62.0156V99.5H72.4688ZM73.6406 105.953V107.156H68.0781V109.875H66.6094V107.156H60.8281V105.953H73.6406ZM72.2188 111.328V112.531H62.4219V108.531H63.9062V111.328H72.2188ZM79.8281 102.953C79.8281 105.297 81.3594 107.719 83.5156 108.641L82.7031 109.797C81.0547 109.07 79.7422 107.531 79.0938 105.656C78.4453 107.656 77.125 109.359 75.5 110.156L74.6406 108.984C76.75 108 78.3125 105.359 78.3281 102.953V101.469H75.125V100.234H83.0156V101.469H79.8281V102.953ZM86.2656 98.8281V112.828H84.7812V98.8281H86.2656ZM100.172 107.812V112.828H98.6875V108.984H90.6875V107.812H100.172ZM100.172 98.8281V107.078H98.6875V105.156H95.2344C94.5859 105.922 93.5625 106.383 92.375 106.375C90.2656 106.391 88.7031 104.984 88.7031 102.984C88.7031 101.016 90.2656 99.5938 92.375 99.6094C93.5625 99.6016 94.5781 100.062 95.2344 100.828H98.6875V98.8281H100.172ZM92.375 100.859C91.0625 100.859 90.125 101.734 90.125 102.984C90.125 104.266 91.0625 105.125 92.375 105.125C93.6406 105.125 94.5938 104.266 94.5938 102.984C94.5938 101.734 93.6406 100.859 92.375 100.859ZM95.8906 103.938H98.6875V102.047H95.8906C95.9688 102.344 96.0156 102.656 96.0156 102.984C96.0156 103.32 95.9688 103.641 95.8906 103.938Z" fill="#333333"/>
<rect x="47" y="128.5" width="239" height="47" rx="7.5" fill="white"/>
<rect x="47" y="128.5" width="239" height="47" rx="7.5" stroke="#E4E4E4"/>
<path d="M70.5781 144.891V153.234H69.3438V151.359H65.6562V150.344H69.3438V148.469H65.7969C64.8828 150.703 62.7344 152.32 59.7656 153.203L59.25 152.234C62.6094 151.234 64.6953 149.359 64.9531 146.953H59.9531V145.922H66.2812C66.2812 146.469 66.2188 146.992 66.1094 147.484H69.3438V144.891H70.5781ZM66.0312 153.375C68.8438 153.375 70.6562 154.375 70.6562 156.031C70.6562 157.703 68.8438 158.703 66.0312 158.703C63.1875 158.703 61.3906 157.703 61.3906 156.031C61.3906 154.375 63.1875 153.375 66.0312 153.375ZM66.0312 154.359C63.9375 154.344 62.5938 154.984 62.5938 156.031C62.5938 157.078 63.9375 157.703 66.0312 157.703C68.0938 157.703 69.4219 157.078 69.4375 156.031C69.4219 154.984 68.0938 154.344 66.0312 154.359ZM77.5312 147.125C77.5312 149.016 78.9688 150.75 80.9844 151.438L80.3125 152.406C78.7734 151.844 77.5625 150.695 76.9531 149.25C76.3594 150.883 75.125 152.172 73.5 152.797L72.8438 151.812C74.9219 151.031 76.3125 149.172 76.3281 147.031V145.594H77.5312V147.125ZM83.75 144.875V148.5H85.8438V149.531H83.75V153.328H82.5312V144.875H83.75ZM79.2969 153.688C82.1562 153.688 83.875 154.609 83.875 156.203C83.875 157.828 82.1562 158.734 79.2969 158.734C76.4375 158.734 74.6875 157.828 74.6875 156.203C74.6875 154.609 76.4375 153.688 79.2969 153.688ZM79.2969 154.672C77.2031 154.672 75.9062 155.25 75.9219 156.203C75.9062 157.188 77.2031 157.75 79.2969 157.766C81.4062 157.75 82.6875 157.188 82.6875 156.203C82.6875 155.25 81.4062 154.672 79.2969 154.672ZM99.375 151.688V152.688H93.6406V154.328H97.8125V158.766H96.5781V155.328H88.125V154.328H92.4375V152.688H86.7188V151.688H99.375ZM89.625 145.203V146.812H96.5V145.203H97.7188V150.391H88.4062V145.203H89.625ZM89.625 149.406H96.5V147.75H89.625V149.406ZM111.766 151.391V152.391H107.469V155.984H113.266V157.016H100.547V155.984H106.266V152.391H102.172V146.016H111.625V147.016H103.406V151.391H111.766ZM131.109 156V157.047H118.391V156H124.094V152.797H119.547V151.812H121.719V147.25H119.516V146.234H129.891V147.25H127.688V151.812H129.859V152.797H125.297V156H131.109ZM122.938 151.812H126.484V147.25H122.938V151.812ZM143.078 144.875V148.75H145.172V149.797H143.078V153.844H141.859V144.875H143.078ZM138.688 153.938C141.516 153.938 143.234 154.828 143.234 156.344C143.234 157.859 141.516 158.734 138.688 158.734C135.859 158.734 134.125 157.859 134.141 156.344C134.125 154.828 135.859 153.938 138.688 153.938ZM138.688 154.906C136.609 154.906 135.344 155.422 135.359 156.344C135.344 157.25 136.609 157.781 138.688 157.781C140.766 157.781 142.016 157.25 142.016 156.344C142.016 155.422 140.766 154.906 138.688 154.906ZM140.531 146.469V147.438H132.25V146.469H135.781V144.766H137V146.469H140.531ZM136.391 148.156C138.391 148.156 139.719 149.125 139.734 150.609C139.719 152.109 138.391 153.062 136.391 153.062C134.375 153.062 133.031 152.109 133.047 150.609C133.031 149.125 134.375 148.156 136.391 148.156ZM136.391 149.078C135.078 149.094 134.203 149.703 134.219 150.609C134.203 151.516 135.078 152.109 136.391 152.109C137.688 152.109 138.562 151.516 138.578 150.609C138.562 149.703 137.688 149.094 136.391 149.078ZM150.984 148.609C150.969 151.141 152.703 153.703 154.75 154.625L154 155.594C152.422 154.82 151.055 153.188 150.391 151.203C149.742 153.305 148.375 155.055 146.75 155.875L145.969 154.844C148.031 153.891 149.75 151.25 149.766 148.609V146.078H150.984V148.609ZM157.5 144.875V158.797H156.266V144.875H157.5Z" fill="#333333"/>
<mask id="mask0_4435_141647" style="mask-type:alpha" maskUnits="userSpaceOnUse" x="250" y="140" width="25" height="24">
<rect x="250.5" y="140" width="24" height="24" fill="#D9D9D9"/>
</mask>
<g mask="url(#mask0_4435_141647)">
<path d="M262.499 155.051L256.846 149.398L257.899 148.344L262.499 152.944L267.099 148.344L268.153 149.398L262.499 155.051Z" fill="#1C1B1F"/>
</g>
<path d="M318.609 98.8281V112.859H317.125V98.8281H318.609ZM309.281 100V103.594H313.047V100H314.516V109.5H307.797V100H309.281ZM309.281 108.281H313.047V104.766H309.281V108.281ZM332.219 100.172V101.672C332.203 103.438 332.203 105.281 331.703 107.953L330.25 107.797C330.734 105.266 330.734 103.391 330.734 101.672V101.375H322.156V100.172H332.219ZM333.609 109.703V110.938H320.844V109.703H323.859V105.172H325.344V109.703H327.359V105.172H328.812V109.703H333.609ZM339.828 102.953C339.828 105.297 341.359 107.719 343.516 108.641L342.703 109.797C341.055 109.07 339.742 107.531 339.094 105.656C338.445 107.656 337.125 109.359 335.5 110.156L334.641 108.984C336.75 108 338.312 105.359 338.328 102.953V101.469H335.125V100.234H343.016V101.469H339.828V102.953ZM346.266 98.8281V112.828H344.781V98.8281H346.266ZM360.172 107.812V112.828H358.688V108.984H350.688V107.812H360.172ZM360.172 98.8281V107.078H358.688V105.156H355.234C354.586 105.922 353.562 106.383 352.375 106.375C350.266 106.391 348.703 104.984 348.703 102.984C348.703 101.016 350.266 99.5938 352.375 99.6094C353.562 99.6016 354.578 100.062 355.234 100.828H358.688V98.8281H360.172ZM352.375 100.859C351.062 100.859 350.125 101.734 350.125 102.984C350.125 104.266 351.062 105.125 352.375 105.125C353.641 105.125 354.594 104.266 354.594 102.984C354.594 101.734 353.641 100.859 352.375 100.859ZM355.891 103.938H358.688V102.047H355.891C355.969 102.344 356.016 102.656 356.016 102.984C356.016 103.32 355.969 103.641 355.891 103.938Z" fill="#333333"/>
<rect x="307" y="128.5" width="239" height="47" rx="7.5" fill="white"/>
<rect x="307" y="128.5" width="239" height="47" rx="7.5" stroke="#E4E4E4"/>
<path d="M330.578 144.891V153.234H329.344V151.359H325.656V150.344H329.344V148.469H325.797C324.883 150.703 322.734 152.32 319.766 153.203L319.25 152.234C322.609 151.234 324.695 149.359 324.953 146.953H319.953V145.922H326.281C326.281 146.469 326.219 146.992 326.109 147.484H329.344V144.891H330.578ZM326.031 153.375C328.844 153.375 330.656 154.375 330.656 156.031C330.656 157.703 328.844 158.703 326.031 158.703C323.188 158.703 321.391 157.703 321.391 156.031C321.391 154.375 323.188 153.375 326.031 153.375ZM326.031 154.359C323.938 154.344 322.594 154.984 322.594 156.031C322.594 157.078 323.938 157.703 326.031 157.703C328.094 157.703 329.422 157.078 329.438 156.031C329.422 154.984 328.094 154.344 326.031 154.359ZM337.531 147.125C337.531 149.016 338.969 150.75 340.984 151.438L340.312 152.406C338.773 151.844 337.562 150.695 336.953 149.25C336.359 150.883 335.125 152.172 333.5 152.797L332.844 151.812C334.922 151.031 336.312 149.172 336.328 147.031V145.594H337.531V147.125ZM343.75 144.875V148.5H345.844V149.531H343.75V153.328H342.531V144.875H343.75ZM339.297 153.688C342.156 153.688 343.875 154.609 343.875 156.203C343.875 157.828 342.156 158.734 339.297 158.734C336.438 158.734 334.688 157.828 334.688 156.203C334.688 154.609 336.438 153.688 339.297 153.688ZM339.297 154.672C337.203 154.672 335.906 155.25 335.922 156.203C335.906 157.188 337.203 157.75 339.297 157.766C341.406 157.75 342.688 157.188 342.688 156.203C342.688 155.25 341.406 154.672 339.297 154.672ZM359.375 151.688V152.688H353.641V154.328H357.812V158.766H356.578V155.328H348.125V154.328H352.438V152.688H346.719V151.688H359.375ZM349.625 145.203V146.812H356.5V145.203H357.719V150.391H348.406V145.203H349.625ZM349.625 149.406H356.5V147.75H349.625V149.406ZM371.766 151.391V152.391H367.469V155.984H373.266V157.016H360.547V155.984H366.266V152.391H362.172V146.016H371.625V147.016H363.406V151.391H371.766ZM391.109 156V157.047H378.391V156H384.094V152.797H379.547V151.812H381.719V147.25H379.516V146.234H389.891V147.25H387.688V151.812H389.859V152.797H385.297V156H391.109ZM382.938 151.812H386.484V147.25H382.938V151.812ZM403.078 144.875V148.75H405.172V149.797H403.078V153.844H401.859V144.875H403.078ZM398.688 153.938C401.516 153.938 403.234 154.828 403.234 156.344C403.234 157.859 401.516 158.734 398.688 158.734C395.859 158.734 394.125 157.859 394.141 156.344C394.125 154.828 395.859 153.938 398.688 153.938ZM398.688 154.906C396.609 154.906 395.344 155.422 395.359 156.344C395.344 157.25 396.609 157.781 398.688 157.781C400.766 157.781 402.016 157.25 402.016 156.344C402.016 155.422 400.766 154.906 398.688 154.906ZM400.531 146.469V147.438H392.25V146.469H395.781V144.766H397V146.469H400.531ZM396.391 148.156C398.391 148.156 399.719 149.125 399.734 150.609C399.719 152.109 398.391 153.062 396.391 153.062C394.375 153.062 393.031 152.109 393.047 150.609C393.031 149.125 394.375 148.156 396.391 148.156ZM396.391 149.078C395.078 149.094 394.203 149.703 394.219 150.609C394.203 151.516 395.078 152.109 396.391 152.109C397.688 152.109 398.562 151.516 398.578 150.609C398.562 149.703 397.688 149.094 396.391 149.078ZM410.984 148.609C410.969 151.141 412.703 153.703 414.75 154.625L414 155.594C412.422 154.82 411.055 153.188 410.391 151.203C409.742 153.305 408.375 155.055 406.75 155.875L405.969 154.844C408.031 153.891 409.75 151.25 409.766 148.609V146.078H410.984V148.609ZM417.5 144.875V158.797H416.266V144.875H417.5Z" fill="#333333"/>
<mask id="mask1_4435_141647" style="mask-type:alpha" maskUnits="userSpaceOnUse" x="510" y="140" width="25" height="24">
<rect x="510.5" y="140" width="24" height="24" fill="#D9D9D9"/>
</mask>
<g mask="url(#mask1_4435_141647)">
<path d="M522.499 155.051L516.846 149.398L517.899 148.344L522.499 152.944L527.099 148.344L528.153 149.398L522.499 155.051Z" fill="#1C1B1F"/>
</g>
<rect x="567" y="128.5" width="239" height="47" rx="5.5" stroke="#333333" stroke-opacity="0.4" stroke-dasharray="2 2"/>
<path fill-rule="evenodd" clip-rule="evenodd" d="M638 158.664C638.368 158.664 638.667 158.366 638.667 157.997V145.997C638.667 145.629 638.368 145.331 638 145.331C637.632 145.331 637.333 145.629 637.333 145.997V157.997C637.333 158.366 637.632 158.664 638 158.664Z" fill="#333333" fill-opacity="0.4"/>
<path fill-rule="evenodd" clip-rule="evenodd" d="M631.333 151.997C631.333 152.366 631.632 152.664 632 152.664H644C644.368 152.664 644.667 152.366 644.667 151.997C644.667 151.629 644.368 151.331 644 151.331H632C631.632 151.331 631.333 151.629 631.333 151.997Z" fill="#333333" fill-opacity="0.4"/>
<path d="M665.656 145.768H666.984V160.264H665.656V145.768ZM655.96 147H657.288V150.808H661.464V147H662.776V156.776H655.96V147ZM657.288 151.864V155.672H661.464V151.864H657.288ZM671.223 147.224H680.519V148.312H671.223V147.224ZM669.863 157.112H682.935V158.216H669.863V157.112ZM673.062 152.344H674.391V157.512H673.062V152.344ZM680.087 147.224H681.415V148.808C681.415 149.416 681.404 150.045 681.383 150.696C681.372 151.347 681.329 152.045 681.255 152.792C681.191 153.528 681.073 154.344 680.903 155.24L679.591 155.096C679.836 153.805 679.98 152.664 680.023 151.672C680.065 150.669 680.087 149.715 680.087 148.808V147.224ZM676.647 152.344H677.959V157.512H676.647V152.344ZM688.405 147.848H689.493V150.184C689.493 150.952 689.387 151.709 689.173 152.456C688.96 153.192 688.661 153.891 688.277 154.552C687.904 155.203 687.467 155.779 686.965 156.28C686.464 156.781 685.925 157.176 685.349 157.464L684.581 156.408C685.104 156.152 685.595 155.805 686.053 155.368C686.523 154.931 686.933 154.429 687.285 153.864C687.637 153.299 687.909 152.701 688.101 152.072C688.304 151.443 688.405 150.813 688.405 150.184V147.848ZM688.677 147.848H689.749V150.184C689.749 150.792 689.845 151.4 690.037 152.008C690.24 152.605 690.517 153.171 690.869 153.704C691.232 154.227 691.643 154.691 692.101 155.096C692.571 155.501 693.072 155.821 693.605 156.056L692.869 157.112C692.283 156.835 691.733 156.461 691.221 155.992C690.709 155.523 690.261 154.984 689.877 154.376C689.504 153.757 689.211 153.096 688.997 152.392C688.784 151.677 688.677 150.941 688.677 150.184V147.848ZM685.045 147.256H693.125V148.36H685.045V147.256ZM695.093 145.768H696.421V160.248H695.093V145.768ZM705.892 147.896H710.292V148.984H705.892V147.896ZM705.892 151.144H710.292V152.232H705.892V151.144ZM701.54 155.096H711.204V160.248H709.876V156.168H701.54V155.096ZM709.876 145.768H711.204V154.296H709.876V145.768ZM703.252 146.584C703.956 146.584 704.585 146.733 705.14 147.032C705.705 147.32 706.148 147.731 706.468 148.264C706.799 148.787 706.964 149.384 706.964 150.056C706.964 150.739 706.799 151.341 706.468 151.864C706.148 152.387 705.705 152.797 705.14 153.096C704.585 153.395 703.956 153.544 703.252 153.544C702.537 153.544 701.897 153.395 701.332 153.096C700.777 152.797 700.335 152.387 700.004 151.864C699.684 151.341 699.524 150.739 699.524 150.056C699.524 149.384 699.684 148.787 700.004 148.264C700.335 147.731 700.777 147.32 701.332 147.032C701.897 146.733 702.537 146.584 703.252 146.584ZM703.252 147.72C702.783 147.72 702.361 147.821 701.988 148.024C701.615 148.227 701.321 148.504 701.108 148.856C700.895 149.208 700.788 149.608 700.788 150.056C700.788 150.515 700.895 150.925 701.108 151.288C701.321 151.64 701.615 151.917 701.988 152.12C702.361 152.312 702.783 152.408 703.252 152.408C703.711 152.408 704.127 152.312 704.5 152.12C704.873 151.917 705.167 151.64 705.38 151.288C705.593 150.925 705.7 150.515 705.7 150.056C705.7 149.608 705.593 149.208 705.38 148.856C705.167 148.504 704.873 148.227 704.5 148.024C704.127 147.821 703.711 147.72 703.252 147.72ZM719.891 154.968H721.203V160.264H719.891V154.968ZM714.019 154.52H727.091V155.624H714.019V154.52ZM719.891 148.264H721.059V148.632C721.059 149.123 720.957 149.592 720.755 150.04C720.552 150.477 720.269 150.883 719.907 151.256C719.544 151.629 719.117 151.965 718.627 152.264C718.147 152.552 717.624 152.797 717.059 153C716.504 153.192 715.923 153.331 715.315 153.416L714.835 152.36C715.357 152.285 715.864 152.168 716.355 152.008C716.856 151.848 717.315 151.651 717.731 151.416C718.157 151.181 718.531 150.92 718.851 150.632C719.181 150.333 719.437 150.019 719.619 149.688C719.8 149.347 719.891 148.995 719.891 148.632V148.264ZM720.051 148.264H721.219V148.632C721.219 148.984 721.309 149.331 721.491 149.672C721.672 150.003 721.923 150.317 722.243 150.616C722.563 150.904 722.931 151.171 723.347 151.416C723.773 151.651 724.232 151.848 724.723 152.008C725.224 152.168 725.736 152.285 726.259 152.36L725.779 153.416C725.171 153.331 724.584 153.192 724.019 153C723.464 152.797 722.941 152.552 722.451 152.264C721.971 151.965 721.549 151.629 721.187 151.256C720.835 150.883 720.557 150.477 720.355 150.04C720.152 149.592 720.051 149.123 720.051 148.632V148.264ZM715.283 147.56H725.827V148.632H715.283V147.56ZM719.891 145.768H721.203V147.928H719.891V145.768ZM738.53 145.768H739.858V160.232H738.53V145.768ZM739.506 151.64H742.162V152.744H739.506V151.64ZM734.834 147.32H736.13C736.13 148.696 735.906 150.013 735.458 151.272C735.01 152.52 734.306 153.677 733.346 154.744C732.386 155.8 731.122 156.717 729.554 157.496L728.818 156.472C730.162 155.8 731.276 155.016 732.161 154.12C733.058 153.213 733.724 152.211 734.162 151.112C734.61 150.003 734.834 148.808 734.834 147.528V147.32ZM729.49 147.32H735.506V148.424H729.49V147.32Z" fill="#333333" fill-opacity="0.4"/>
<path d="M46.7656 49.2656V63.3906H45.0156V49.2656H46.7656ZM42.5469 50.7656C42.5469 54.9688 40.9219 58.5469 35.9688 60.8906L35.0625 59.5C38.7578 57.7422 40.4766 55.3516 40.7812 52.1406H35.7812V50.7656H42.5469ZM60.0356 49.9062V51.2969H55.9419C56.0981 52.625 57.8247 53.8906 60.5513 54.2188L59.895 55.5938C57.3638 55.2891 55.4966 54.1719 54.7388 52.6406C53.9809 54.1641 52.1294 55.2891 49.5981 55.5938L48.9575 54.2188C51.6841 53.8906 53.3872 52.625 53.5513 51.2969H49.4888V49.9062H60.0356ZM61.2075 56.375V57.7812H55.7544V60.3594H54.0356V57.7812H48.3013V56.375H61.2075ZM59.7856 61.7031V63.1094H49.8638V59.0625H51.5981V61.7031H59.7856ZM66.9931 53.2812C66.9931 55.5938 68.3525 58.0312 70.6338 58.9844L69.6806 60.3594C68.0088 59.6406 66.79 58.1562 66.1494 56.3594C65.4931 58.2969 64.2588 59.9219 62.6025 60.7031L61.6025 59.3438C63.8369 58.3125 65.2275 55.6875 65.2275 53.2812V52.0938H62.1181V50.6562H70.0869V52.0938H66.9931V53.2812ZM73.415 49.2656V63.3906H71.665V49.2656H73.415ZM86.8413 58.2812V63.3906H85.1069V59.6562H77.2163V58.2812H86.8413ZM86.8413 49.2656V57.6094H85.1069V55.7344H81.7944C81.1225 56.4844 80.1069 56.9375 78.935 56.9375C76.81 56.9375 75.2006 55.5 75.2006 53.4688C75.2006 51.4688 76.81 50.0312 78.935 50.0469C80.0991 50.0391 81.1147 50.4766 81.7788 51.2188H85.1069V49.2656H86.8413ZM78.935 51.5156C77.7163 51.5156 76.8569 52.2969 76.8569 53.4688C76.8569 54.6875 77.7163 55.4531 78.935 55.4688C80.0913 55.4531 80.9663 54.6875 80.9819 53.4688C80.9663 52.2969 80.0913 51.5156 78.935 51.5156ZM82.5288 54.3281H85.1069V52.6406H82.5444C82.5991 52.9062 82.6381 53.1797 82.6381 53.4688C82.6381 53.7656 82.5991 54.0547 82.5288 54.3281ZM96.2519 50.7344V51.7344C96.2519 53 96.2519 54.7656 95.8613 57.2031L94.1425 57.0625C94.4784 54.9219 94.5175 53.3438 94.5331 52.125H88.9863V50.7344H96.2519ZM92.6894 54.7656V58.9375C94.1269 58.8828 95.6034 58.7812 96.955 58.6094L97.0488 59.9062C94.1269 60.375 90.8925 60.4375 88.4081 60.4219L88.2363 59.0312C89.0722 59.0234 90.0019 59.0156 90.9706 58.9844V54.7656H92.6894ZM99.4394 49.2656V55.0156H101.486V56.4844H99.4394V63.3906H97.6894V49.2656H99.4394ZM116.776 49.2656V63.4062H115.026V49.2656H116.776ZM107.511 50.4219V53.9531H110.933V50.4219H112.651V60.0781H105.776V50.4219H107.511ZM107.511 58.6562H110.933V55.3125H107.511V58.6562ZM129.952 50.5625V52C129.952 53.75 129.952 55.6562 129.437 58.4219L127.734 58.25C128.218 55.6406 128.218 53.7031 128.218 52V51.9531H119.671V50.5625H129.952ZM131.249 60.1406V61.5625H118.374V60.1406H121.265V55.6406H122.999V60.1406H124.796V55.6406H126.499V60.1406H131.249ZM137.051 53.2812C137.051 55.5938 138.41 58.0312 140.691 58.9844L139.738 60.3594C138.066 59.6406 136.848 58.1562 136.207 56.3594C135.551 58.2969 134.316 59.9219 132.66 60.7031L131.66 59.3438C133.894 58.3125 135.285 55.6875 135.285 53.2812V52.0938H132.176V50.6562H140.144V52.0938H137.051V53.2812ZM143.473 49.2656V63.3906H141.723V49.2656H143.473ZM156.899 58.2812V63.3906H155.164V59.6562H147.274V58.2812H156.899ZM156.899 49.2656V57.6094H155.164V55.7344H151.852C151.18 56.4844 150.164 56.9375 148.993 56.9375C146.868 56.9375 145.258 55.5 145.258 53.4688C145.258 51.4688 146.868 50.0312 148.993 50.0469C150.157 50.0391 151.172 50.4766 151.836 51.2188H155.164V49.2656H156.899ZM148.993 51.5156C147.774 51.5156 146.914 52.2969 146.914 53.4688C146.914 54.6875 147.774 55.4531 148.993 55.4688C150.149 55.4531 151.024 54.6875 151.039 53.4688C151.024 52.2969 150.149 51.5156 148.993 51.5156ZM152.586 54.3281H155.164V52.6406H152.602C152.657 52.9062 152.696 53.1797 152.696 53.4688C152.696 53.7656 152.657 54.0547 152.586 54.3281ZM164.841 49.4844C168.059 49.4844 169.919 50.3438 169.934 51.9062C169.919 53.4844 168.059 54.3281 164.841 54.3438C161.622 54.3281 159.747 53.4844 159.747 51.9062C159.747 50.3438 161.622 49.4844 164.841 49.4844ZM164.841 50.7656C162.684 50.7656 161.559 51.1719 161.575 51.9062C161.559 52.6875 162.684 53.0469 164.841 53.0469C167.028 53.0469 168.137 52.6875 168.137 51.9062C168.137 51.1719 167.028 50.7656 164.841 50.7656ZM171.294 55.0938V56.4844H158.419V55.0938H171.294ZM169.684 57.4375V60.8906H161.653V61.9375H170.075V63.2656H159.95V59.6562H167.981V58.7188H159.934V57.4375H169.684ZM187.959 57.75V59.1719H182.365V63.4062H180.646V59.1719H175.084V57.75H187.959ZM186.756 50.9375V52.3125H182.396C182.56 53.7109 184.396 55.1719 187.224 55.5156L186.584 56.8906C184.248 56.5938 182.435 55.5625 181.521 54.2031C180.592 55.5781 178.763 56.5938 176.412 56.8906L175.787 55.5156C178.607 55.1719 180.459 53.7344 180.631 52.3125H176.271V50.9375H180.646V49.2812H182.365V50.9375H186.756ZM199.494 49.2656V54.7812H201.588V56.2344H199.494V63.3594H197.76V49.2656H199.494ZM195.76 50.7344C195.76 54.8906 194.041 58.5312 189.338 60.8438L188.354 59.5C191.791 57.7891 193.651 55.3828 194.01 52.1719H189.119V50.7344H195.76ZM208.671 51.5156V52.9062H201.749V51.5156H204.374V49.6719H206.092V51.5156H208.671ZM205.233 53.6562C207.03 53.6562 208.311 55.0156 208.311 56.9375C208.311 58.8906 207.03 60.2656 205.233 60.2656C203.452 60.2656 202.139 58.8906 202.155 56.9375C202.139 55.0156 203.452 53.6562 205.233 53.6562ZM205.233 55.0938C204.311 55.0938 203.671 55.8281 203.686 56.9375C203.671 58.0781 204.311 58.7969 205.233 58.7812C206.139 58.7969 206.78 58.0781 206.78 56.9375C206.78 55.8281 206.139 55.0938 205.233 55.0938ZM213.921 49.2656V63.3906H212.264V56.4844H210.889V62.75H209.264V49.5625H210.889V55.0781H212.264V49.2656H213.921ZM220.347 52.6562C220.347 55.2812 221.597 57.8594 223.847 58.8438L222.8 60.2344C221.198 59.4531 220.073 57.9531 219.472 56.1094C218.855 58.0547 217.706 59.6719 216.081 60.5L214.988 59.0938C217.284 58.0156 218.566 55.2969 218.581 52.6562V50.4062H220.347V52.6562ZM226.972 49.2656V63.4062H225.253V55.2344H222.284V53.8281H225.253V49.2656H226.972ZM244.684 56.5781V57.9688H239.231V60.4062H237.512V57.9688H231.777V56.5781H244.684ZM243.262 61.7031V63.1094H233.34V59.2188H235.059V61.7031H243.262ZM235.184 49.7188V51.3125H241.277V49.7188H242.996V55.4688H233.465V49.7188H235.184ZM235.184 54.0938H241.277V52.6094H235.184V54.0938ZM250.266 51.5C250.266 53.3125 251.407 55.0469 253.579 55.75L252.641 57.1406C251.11 56.6016 250.016 55.5312 249.423 54.1719C248.79 55.6562 247.641 56.8203 246.016 57.4062L245.079 56.0156C247.376 55.25 248.516 53.4062 248.516 51.3906V50H250.266V51.5ZM256.969 58.3438V63.3906H255.235V59.7188H247.344V58.3438H256.969ZM256.969 49.2656V57.6562H255.235V53.4375H252.423V52.0156H255.235V49.2656H256.969ZM273.634 49.2656V56.4219H271.9V55.1875H268.494V53.8594H271.9V52.4688H268.681C267.791 54.625 265.728 56.0312 262.603 56.7344L261.994 55.3125C265.314 54.625 266.97 53.1641 267.212 51.2812H262.775V49.875H269.15C269.15 50.3203 269.111 50.7422 269.056 51.1406H271.9V49.2656H273.634ZM273.634 56.9688V60.6875H266.087V61.8594H274.009V63.25H264.353V59.3906H271.9V58.3438H264.337V56.9688H273.634ZM283.045 50.7344V51.7344C283.045 53 283.045 54.7656 282.654 57.2031L280.936 57.0625C281.272 54.9219 281.311 53.3438 281.326 52.125H275.779V50.7344H283.045ZM279.482 54.7656V58.9375C280.92 58.8828 282.397 58.7812 283.748 58.6094L283.842 59.9062C280.92 60.375 277.686 60.4375 275.201 60.4219L275.029 59.0312C275.865 59.0234 276.795 59.0156 277.764 58.9844V54.7656H279.482ZM286.232 49.2656V55.0156H288.279V56.4844H286.232V63.3906H284.482V49.2656H286.232ZM301.393 55.6719V56.9844H288.487V55.6719H301.393ZM299.831 57.8281V61.0469H291.737V62.0312H300.253V63.2344H290.003V59.9219H298.112V59.0469H289.987V57.8281H299.831ZM299.799 49.5781V52.7656H291.846V53.6875H300.049V54.875H290.128V51.6406H298.065V50.7812H290.081V49.5781H299.799ZM316.918 49.2656V63.4062H315.168V49.2656H316.918ZM307.652 50.4219V53.9531H311.074V50.4219H312.793V60.0781H305.918V50.4219H307.652ZM307.652 58.6562H311.074V55.3125H307.652V58.6562ZM330.094 50.5625V52C330.094 53.75 330.094 55.6562 329.578 58.4219L327.875 58.25C328.359 55.6406 328.359 53.7031 328.359 52V51.9531H319.812V50.5625H330.094ZM331.391 60.1406V61.5625H318.516V60.1406H321.406V55.6406H323.141V60.1406H324.938V55.6406H326.641V60.1406H331.391ZM342.926 49.2656V54.8906H345.098V56.3281H342.926V63.3906H341.207V49.2656H342.926ZM340.114 51.4375V52.8281H331.786V51.4375H335.129V49.4688H336.864V51.4375H340.114ZM336.004 53.75C338.036 53.75 339.551 55.125 339.551 57.0781C339.551 59.0312 338.036 60.3906 336.004 60.3906C333.942 60.3906 332.426 59.0312 332.442 57.0781C332.426 55.125 333.942 53.75 336.004 53.75ZM336.004 55.1719C334.895 55.1719 334.098 55.9219 334.098 57.0781C334.098 58.2344 334.895 58.9688 336.004 58.9531C337.082 58.9688 337.879 58.2344 337.895 57.0781C337.879 55.9219 337.082 55.1719 336.004 55.1719ZM349.071 50.2969C350.353 50.2969 351.407 51.0078 352.04 52.25H355.337V49.2656H357.056V63.4062H355.337V58.0625H352.165C351.556 59.4688 350.438 60.2812 349.071 60.2812C346.946 60.2812 345.446 58.3594 345.446 55.2812C345.446 52.2344 346.946 50.2969 349.071 50.2969ZM349.071 51.8594C347.899 51.8594 347.103 53.125 347.118 55.2812C347.103 57.4531 347.899 58.7188 349.071 58.7188C350.243 58.7188 351.024 57.4531 351.04 55.2812C351.024 53.125 350.243 51.8594 349.071 51.8594ZM352.524 53.6719C352.626 54.1641 352.681 54.7031 352.681 55.2812C352.681 55.7734 352.642 56.2266 352.571 56.6562H355.337V53.6719H352.524ZM365.267 49.4844V50.5938H371.361V49.4844H373.08V54.1875H369.142V55.2656H374.752V56.6406H361.877V55.2656H367.424V54.1875H363.549V49.4844H365.267ZM365.267 52.8906H371.361V51.8594H365.267V52.8906ZM373.142 57.5312V60.9531H365.111V61.9375H373.533V63.2656H363.408V59.7344H371.439V58.8125H363.392V57.5312H373.142ZM385.901 50.4375C385.901 52.2188 387.886 54.0156 390.901 54.4062L390.214 55.8125C387.815 55.4531 385.909 54.2734 384.995 52.6719C384.065 54.2734 382.167 55.4531 379.792 55.8125L379.104 54.4062C382.089 54.0156 384.073 52.2188 384.073 50.4375V49.7188H385.901V50.4375ZM391.417 57.0312V58.4688H385.807V63.3906H384.089V58.4688H378.542V57.0312H391.417ZM400.223 58.4531C400.223 59.625 400.762 60.8594 401.973 61.625C403.199 60.8047 403.769 59.5234 403.785 58.4531V57.875H405.488V58.4531C405.473 59.9375 406.348 61.3125 408.207 61.9062L407.363 63.1719C405.988 62.7109 405.074 61.8125 404.582 60.6875C404.129 61.7969 403.293 62.7891 402.019 63.2969C400.676 62.8125 399.832 61.8594 399.394 60.7344C398.887 61.8203 397.988 62.7031 396.676 63.1719L395.816 61.9062C397.644 61.2656 398.519 59.8281 398.535 58.4531V57.875H400.223V58.4531ZM406.973 49.2812V57.2812H405.223V49.2812H406.973ZM399.269 50.0312C401.441 50.0312 403.066 51.4062 403.066 53.3906C403.066 55.3594 401.441 56.7344 399.269 56.7344C397.082 56.7344 395.457 55.3594 395.457 53.3906C395.457 51.4062 397.082 50.0312 399.269 50.0312ZM399.269 51.5C398.035 51.5 397.144 52.2344 397.16 53.3906C397.144 54.5469 398.035 55.2969 399.269 55.2969C400.488 55.2969 401.363 54.5469 401.363 53.3906C401.363 52.2344 400.488 51.5 399.269 51.5ZM411.821 57.7344V59.0781H418.039V57.7344H419.774V63.2188H410.102V57.7344H411.821ZM411.821 61.8438H418.039V60.4062H411.821V61.8438ZM421.43 55.5156V56.9375H408.555V55.5156H421.43ZM415.883 49.9531C415.883 51.4688 417.821 53.0625 420.742 53.4062L420.133 54.7812C417.766 54.4609 415.899 53.4141 414.992 51.9844C414.078 53.4219 412.203 54.4609 409.852 54.7812L409.211 53.4062C412.164 53.0469 414.086 51.5156 414.102 49.9531V49.4219H415.883V49.9531ZM433.684 49.2656V63.3906H431.966V49.2656H433.684ZM424.434 50.6406V58.3594C426.419 58.3281 428.528 58.1484 430.7 57.7188L430.919 59.1719C428.434 59.6875 426.122 59.8438 423.934 59.8438H422.716V50.6406H424.434ZM446.314 49.2656V54.625H448.486V56.0469H446.314V63.4062H444.579V49.2656H446.314ZM442.439 50.6094V52.0156H437.564V58.5C439.759 58.5 441.493 58.3906 443.439 58.0469L443.642 59.5156C441.454 59.8906 439.548 59.9531 437.001 59.9531H435.829V50.6094H442.439ZM450.318 62.125C449.646 62.125 449.099 61.5781 449.099 60.9062C449.099 60.25 449.646 59.7031 450.318 59.7031C450.959 59.7031 451.521 60.25 451.521 60.9062C451.521 61.5781 450.959 62.125 450.318 62.125Z" fill="#333333"/>
<path d="M426.5 8L418.5 20L434.5 20L426.5 8Z" fill="white"/>
</g>
<defs>
<filter id="filter0_d_4435_141647" x="0.5" y="0" width="852" height="224" filterUnits="userSpaceOnUse" color-interpolation-filters="sRGB">
<feFlood flood-opacity="0" result="BackgroundImageFix"/>
<feColorMatrix in="SourceAlpha" type="matrix" values="0 0 0 0 0 0 0 0 0 0 0 0 0 0 0 0 0 0 127 0" result="hardAlpha"/>
<feMorphology radius="2" operator="dilate" in="SourceAlpha" result="effect1_dropShadow_4435_141647"/>
<feOffset dy="2"/>
<feGaussianBlur stdDeviation="4"/>
<feComposite in2="hardAlpha" operator="out"/>
<feColorMatrix type="matrix" values="0 0 0 0 0.2 0 0 0 0 0.2 0 0 0 0 0.2 0 0 0 0.42 0"/>
<feBlend mode="normal" in2="BackgroundImageFix" result="effect1_dropShadow_4435_141647"/>
<feBlend mode="normal" in="SourceGraphic" in2="effect1_dropShadow_4435_141647" result="shape"/>
</filter>
</defs>
</svg>
