<svg width="24" height="25" viewBox="0 0 24 25" fill="none" xmlns="http://www.w3.org/2000/svg">
<mask id="mask0_2133_43968" style="mask-type:alpha" maskUnits="userSpaceOnUse" x="0" y="0" width="24" height="25">
<rect y="0.0429688" width="24" height="24" fill="currentColor"/>
</mask>
<g mask="url(#mask0_2133_43968)">
<path d="M11 20.4732C9.12433 20.2295 7.57208 19.4033 6.34325 17.9944C5.11442 16.5854 4.5 14.9348 4.5 13.0424C4.5 12.0258 4.70067 11.0518 5.102 10.1204C5.50333 9.18892 6.0655 8.37059 6.7885 7.66542L7.85775 8.73467C7.24358 9.29501 6.78042 9.94534 6.46825 10.6857C6.15608 11.426 6 12.2116 6 13.0424C6 14.5091 6.46825 15.8018 7.40475 16.9204C8.34125 18.0389 9.53967 18.7232 11 18.9732V20.4732ZM13 20.4924V18.9924C14.4437 18.7001 15.6379 18.0004 16.5828 16.8934C17.5276 15.7864 18 14.5028 18 13.0424C18 11.3758 17.4167 9.95909 16.25 8.79242C15.0833 7.62576 13.6667 7.04242 12 7.04242H11.6463L12.9962 8.39242L11.9423 9.44617L8.7885 6.29242L11.9423 3.13867L12.9962 4.19242L11.6463 5.54242H12C14.0923 5.54242 15.8654 6.26934 17.3193 7.72317C18.7731 9.17701 19.5 10.9501 19.5 13.0424C19.5 14.9244 18.884 16.5668 17.652 17.9694C16.4198 19.3719 14.8692 20.2129 13 20.4924Z" fill="currentColor"/>
</g>
</svg>
