<svg width="648" height="264" viewBox="0 0 648 264" fill="none" xmlns="http://www.w3.org/2000/svg">
<g filter="url(#filter0_d_4435_141598)">
<rect width="628" height="232" rx="8" transform="matrix(1 0 0 -1 10 252)" fill="white"/>
<rect x="0.5" y="-0.5" width="579" height="147" rx="3.5" transform="matrix(1 0 0 -1 34 227)" fill="#F8F8F8"/>
<rect x="0.5" y="-0.5" width="579" height="147" rx="3.5" transform="matrix(1 0 0 -1 34 227)" stroke="#EEEEEE"/>
<path d="M59.3125 104.875V106.156H53.75V107.188H57.7344V110.5H49.7031V111.469H58.125V112.766H48V109.312H56.0312V108.438H47.9844V107.188H52.0312V106.156H46.5V104.875H59.3125ZM53.75 98.7344V99.9219H58.0781V101.219H53.9375C54.2734 102.219 55.9141 102.969 58.7344 103.109L58.2188 104.406C55.6875 104.25 53.7812 103.562 52.8906 102.422C52 103.562 50.1016 104.25 47.5469 104.406L47.0625 103.109C49.8516 102.969 51.4922 102.219 51.8594 101.219H47.7344V99.9219H52.0312V98.7344H53.75ZM62.5 99.3906V101.188H65.7969V99.3906H67.5156V105.547H60.7812V99.3906H62.5ZM62.5 104.172H65.7969V102.5H62.5V104.172ZM71.4375 98.7656V101.625H73.4062V103.031H71.4375V106H69.7031V98.7656H71.4375ZM71.4375 106.562V110.266H63.9375V111.391H71.875V112.766H62.2188V109H69.7031V107.922H62.2031V106.562H71.4375ZM79.4531 102.781C79.4531 105.094 80.8125 107.531 83.0938 108.484L82.1406 109.859C80.4688 109.141 79.25 107.656 78.6094 105.859C77.9531 107.797 76.7188 109.422 75.0625 110.203L74.0625 108.844C76.2969 107.812 77.6875 105.188 77.6875 102.781V101.594H74.5781V100.156H82.5469V101.594H79.4531V102.781ZM85.875 98.7656V112.891H84.125V98.7656H85.875ZM99.7812 107.781V112.891H98.0469V109.156H90.1562V107.781H99.7812ZM99.7812 98.7656V107.109H98.0469V105.234H94.7344C94.0625 105.984 93.0469 106.438 91.875 106.438C89.75 106.438 88.1406 105 88.1406 102.969C88.1406 100.969 89.75 99.5312 91.875 99.5469C93.0391 99.5391 94.0547 99.9766 94.7188 100.719H98.0469V98.7656H99.7812ZM91.875 101.016C90.6562 101.016 89.7969 101.797 89.7969 102.969C89.7969 104.188 90.6562 104.953 91.875 104.969C93.0312 104.953 93.9062 104.188 93.9219 102.969C93.9062 101.797 93.0312 101.016 91.875 101.016ZM95.4688 103.828H98.0469V102.141H95.4844C95.5391 102.406 95.5781 102.68 95.5781 102.969C95.5781 103.266 95.5391 103.555 95.4688 103.828Z" fill="#333333"/>
<rect x="46.5" y="128.5" width="239" height="47" rx="7.5" fill="white"/>
<rect x="46.5" y="128.5" width="239" height="47" rx="7.5" stroke="#E4E4E4"/>
<path d="M70.0781 144.891V153.234H68.8438V151.359H65.1562V150.344H68.8438V148.469H65.2969C64.3828 150.703 62.2344 152.32 59.2656 153.203L58.75 152.234C62.1094 151.234 64.1953 149.359 64.4531 146.953H59.4531V145.922H65.7812C65.7812 146.469 65.7188 146.992 65.6094 147.484H68.8438V144.891H70.0781ZM65.5312 153.375C68.3438 153.375 70.1562 154.375 70.1562 156.031C70.1562 157.703 68.3438 158.703 65.5312 158.703C62.6875 158.703 60.8906 157.703 60.8906 156.031C60.8906 154.375 62.6875 153.375 65.5312 153.375ZM65.5312 154.359C63.4375 154.344 62.0938 154.984 62.0938 156.031C62.0938 157.078 63.4375 157.703 65.5312 157.703C67.5938 157.703 68.9219 157.078 68.9375 156.031C68.9219 154.984 67.5938 154.344 65.5312 154.359ZM77.0312 147.125C77.0312 149.016 78.4688 150.75 80.4844 151.438L79.8125 152.406C78.2734 151.844 77.0625 150.695 76.4531 149.25C75.8594 150.883 74.625 152.172 73 152.797L72.3438 151.812C74.4219 151.031 75.8125 149.172 75.8281 147.031V145.594H77.0312V147.125ZM83.25 144.875V148.5H85.3438V149.531H83.25V153.328H82.0312V144.875H83.25ZM78.7969 153.688C81.6562 153.688 83.375 154.609 83.375 156.203C83.375 157.828 81.6562 158.734 78.7969 158.734C75.9375 158.734 74.1875 157.828 74.1875 156.203C74.1875 154.609 75.9375 153.688 78.7969 153.688ZM78.7969 154.672C76.7031 154.672 75.4062 155.25 75.4219 156.203C75.4062 157.188 76.7031 157.75 78.7969 157.766C80.9062 157.75 82.1875 157.188 82.1875 156.203C82.1875 155.25 80.9062 154.672 78.7969 154.672ZM98.875 151.688V152.688H93.1406V154.328H97.3125V158.766H96.0781V155.328H87.625V154.328H91.9375V152.688H86.2188V151.688H98.875ZM89.125 145.203V146.812H96V145.203H97.2188V150.391H87.9062V145.203H89.125ZM89.125 149.406H96V147.75H89.125V149.406ZM111.266 151.391V152.391H106.969V155.984H112.766V157.016H100.047V155.984H105.766V152.391H101.672V146.016H111.125V147.016H102.906V151.391H111.266ZM130.609 156V157.047H117.891V156H123.594V152.797H119.047V151.812H121.219V147.25H119.016V146.234H129.391V147.25H127.188V151.812H129.359V152.797H124.797V156H130.609ZM122.438 151.812H125.984V147.25H122.438V151.812ZM142.578 144.875V148.75H144.672V149.797H142.578V153.844H141.359V144.875H142.578ZM138.188 153.938C141.016 153.938 142.734 154.828 142.734 156.344C142.734 157.859 141.016 158.734 138.188 158.734C135.359 158.734 133.625 157.859 133.641 156.344C133.625 154.828 135.359 153.938 138.188 153.938ZM138.188 154.906C136.109 154.906 134.844 155.422 134.859 156.344C134.844 157.25 136.109 157.781 138.188 157.781C140.266 157.781 141.516 157.25 141.516 156.344C141.516 155.422 140.266 154.906 138.188 154.906ZM140.031 146.469V147.438H131.75V146.469H135.281V144.766H136.5V146.469H140.031ZM135.891 148.156C137.891 148.156 139.219 149.125 139.234 150.609C139.219 152.109 137.891 153.062 135.891 153.062C133.875 153.062 132.531 152.109 132.547 150.609C132.531 149.125 133.875 148.156 135.891 148.156ZM135.891 149.078C134.578 149.094 133.703 149.703 133.719 150.609C133.703 151.516 134.578 152.109 135.891 152.109C137.188 152.109 138.062 151.516 138.078 150.609C138.062 149.703 137.188 149.094 135.891 149.078ZM150.484 148.609C150.469 151.141 152.203 153.703 154.25 154.625L153.5 155.594C151.922 154.82 150.555 153.188 149.891 151.203C149.242 153.305 147.875 155.055 146.25 155.875L145.469 154.844C147.531 153.891 149.25 151.25 149.266 148.609V146.078H150.484V148.609ZM157 144.875V158.797H155.766V144.875H157Z" fill="#333333"/>
<mask id="mask0_4435_141598" style="mask-type:alpha" maskUnits="userSpaceOnUse" x="250" y="140" width="24" height="24">
<rect x="250" y="140" width="24" height="24" fill="#D9D9D9"/>
</mask>
<g mask="url(#mask0_4435_141598)">
<path d="M261.999 155.051L256.346 149.398L257.399 148.344L261.999 152.944L266.599 148.344L267.653 149.398L261.999 155.051Z" fill="#1C1B1F"/>
</g>
<g clip-path="url(#clip0_4435_141598)">
<path d="M70.6668 200.669H66.6668V204.669H65.3335V200.669H61.3335V199.336H65.3335V195.336H66.6668V199.336H70.6668V200.669Z" fill="#333333" fill-opacity="0.4"/>
</g>
<path d="M89.7188 199.203V200.324H84.8516V201.227H88.3379V204.125H81.3105V204.973H88.6797V206.107H79.8203V203.086H86.8477V202.32H79.8066V201.227H83.3477V200.324H78.5078V199.203H89.7188ZM84.8516 193.83V194.869H88.6387V196.004H85.0156C85.3096 196.879 86.7451 197.535 89.2129 197.658L88.7617 198.793C86.5469 198.656 84.8789 198.055 84.0996 197.057C83.3203 198.055 81.6592 198.656 79.4238 198.793L79 197.658C81.4404 197.535 82.876 196.879 83.1973 196.004H79.5879V194.869H83.3477V193.83H84.8516ZM92.5078 194.404V195.977H95.3926V194.404H96.8965V199.791H91.0039V194.404H92.5078ZM92.5078 198.588H95.3926V197.125H92.5078V198.588ZM100.328 193.857V196.359H102.051V197.59H100.328V200.188H98.8105V193.857H100.328ZM100.328 200.68V203.92H93.7656V204.904H100.711V206.107H92.2617V202.812H98.8105V201.869H92.248V200.68H100.328ZM107.342 197.371C107.342 199.395 108.531 201.527 110.527 202.361L109.693 203.564C108.23 202.936 107.164 201.637 106.604 200.064C106.029 201.76 104.949 203.182 103.5 203.865L102.625 202.676C104.58 201.773 105.797 199.477 105.797 197.371V196.332H103.076V195.074H110.049V196.332H107.342V197.371ZM112.961 193.857V206.217H111.43V193.857H112.961ZM125.129 201.746V206.217H123.611V202.949H116.707V201.746H125.129ZM125.129 193.857V201.158H123.611V199.518H120.713C120.125 200.174 119.236 200.57 118.211 200.57C116.352 200.57 114.943 199.312 114.943 197.535C114.943 195.785 116.352 194.527 118.211 194.541C119.229 194.534 120.118 194.917 120.699 195.566H123.611V193.857H125.129ZM118.211 195.826C117.145 195.826 116.393 196.51 116.393 197.535C116.393 198.602 117.145 199.271 118.211 199.285C119.223 199.271 119.988 198.602 120.002 197.535C119.988 196.51 119.223 195.826 118.211 195.826ZM121.355 198.287H123.611V196.811H121.369C121.417 197.043 121.451 197.282 121.451 197.535C121.451 197.795 121.417 198.048 121.355 198.287ZM138.145 201.281V202.525H133.25V206.23H131.746V202.525H126.879V201.281H138.145ZM137.092 195.32V196.523H133.277C133.421 197.747 135.027 199.025 137.502 199.326L136.941 200.529C134.897 200.27 133.312 199.367 132.512 198.178C131.698 199.381 130.099 200.27 128.041 200.529L127.494 199.326C129.962 199.025 131.582 197.768 131.732 196.523H127.918V195.32H131.746V193.871H133.25V195.32H137.092ZM148.658 193.857V198.684H150.49V199.955H148.658V206.189H147.141V193.857H148.658ZM145.391 195.143C145.391 198.779 143.887 201.965 139.771 203.988L138.91 202.812C141.918 201.315 143.545 199.21 143.859 196.4H139.58V195.143H145.391ZM155.139 201.227C155.139 198.656 155.904 196.51 157.189 194.678H158.83C157.887 196.031 156.943 198.779 156.943 201.227C156.943 203.674 157.887 206.422 158.83 207.789H157.189C155.904 205.943 155.139 203.811 155.139 201.227ZM164.504 200.475V202.471C165.577 202.416 166.657 202.32 167.676 202.17L167.799 203.291C165.023 203.797 162.057 203.824 159.883 203.824L159.691 202.594C160.655 202.587 161.79 202.58 162.986 202.539V200.475H164.504ZM167.17 195.375V196.605H164.531C164.6 197.925 165.646 199.114 167.512 199.586L166.814 200.775C165.352 200.379 164.306 199.524 163.752 198.424C163.205 199.586 162.173 200.475 160.703 200.871L159.979 199.723C161.845 199.21 162.87 197.993 162.959 196.605H160.348V195.375H162.986V193.967H164.504V195.375H167.17ZM169.932 193.857V206.23H168.414V193.857H169.932ZM182.373 193.857V206.217H180.924V199.914H179.529V205.588H178.135V194.09H179.529V198.697H180.924V193.857H182.373ZM176.74 195.32V196.551H173.65V202.047C174.997 202.033 176.104 201.965 177.355 201.732L177.465 202.977C175.975 203.277 174.676 203.318 172.953 203.332H172.119V195.32H176.74ZM191.164 205.137C189.045 205.137 187.541 203.988 187.5 202.32H189.291C189.346 203.113 190.139 203.633 191.164 203.633C192.258 203.633 193.037 203.031 193.037 202.156C193.037 201.268 192.271 200.625 190.986 200.625H190.098V199.258H190.986C192.039 199.258 192.777 198.67 192.764 197.809C192.777 196.975 192.148 196.414 191.178 196.414C190.248 196.414 189.441 196.934 189.414 197.768H187.705C187.746 196.1 189.25 194.965 191.191 194.965C193.201 194.965 194.5 196.195 194.486 197.713C194.5 198.82 193.762 199.627 192.682 199.846V199.928C194.076 200.119 194.869 201.008 194.855 202.252C194.869 203.92 193.311 205.137 191.164 205.137ZM206.613 193.857V206.217H205.15V199.873H203.824V205.643H202.402V194.186H203.824V198.643H205.15V193.857H206.613ZM201.35 195.416C201.35 198.752 200.297 201.623 196.783 203.633L195.908 202.58C198.54 201.056 199.654 199.101 199.873 196.633H196.482V195.416H201.35ZM211.781 201.227C211.781 203.811 211.016 205.943 209.73 207.789H208.09C209.033 206.422 209.977 203.674 209.977 201.227C209.977 198.779 209.033 196.031 208.09 194.678H209.73C211.016 196.51 211.781 198.656 211.781 201.227Z" fill="#333333" fill-opacity="0.4"/>
<g filter="url(#filter1_d_4435_141598)">
<rect x="306" y="132" width="36" height="36" rx="4" fill="#333333" shape-rendering="crispEdges"/>
<path d="M319 158L314 153L319 148L320.4 149.425L317.825 152H325V154H317.825L320.4 156.575L319 158ZM329 152L327.6 150.575L330.175 148H323V146H330.175L327.6 143.425L329 142L334 147L329 152Z" fill="#EEEEEE"/>
</g>
<path d="M373.938 105.188V106.562H369.75V109.797H375.375V111.219H362.469V109.797H368.031V106.562H364.031V99.8125H373.828V101.203H365.766V105.188H373.938ZM381.375 101.828C381.375 103.375 382.516 104.922 384.75 105.531L383.938 106.922C382.32 106.453 381.164 105.469 380.531 104.234C379.906 105.594 378.734 106.656 377.078 107.156L376.234 105.797C378.453 105.156 379.641 103.516 379.641 101.828V101.719H376.688V100.344H379.641V98.7188H381.391V100.344H384.328V101.719H381.375V101.828ZM387.438 98.7656V102.344H389.406V103.812H387.438V107.406H385.703V98.7656H387.438ZM387.438 108.047V112.906H385.703V109.438H378.031V108.047H387.438ZM395.453 102.781C395.453 105.094 396.812 107.531 399.094 108.484L398.141 109.859C396.469 109.141 395.25 107.656 394.609 105.859C393.953 107.797 392.719 109.422 391.062 110.203L390.062 108.844C392.297 107.812 393.688 105.188 393.688 102.781V101.594H390.578V100.156H398.547V101.594H395.453V102.781ZM401.875 98.7656V112.891H400.125V98.7656H401.875ZM415.781 107.781V112.891H414.047V109.156H406.156V107.781H415.781ZM415.781 98.7656V107.109H414.047V105.234H410.734C410.062 105.984 409.047 106.438 407.875 106.438C405.75 106.438 404.141 105 404.141 102.969C404.141 100.969 405.75 99.5312 407.875 99.5469C409.039 99.5391 410.055 99.9766 410.719 100.719H414.047V98.7656H415.781ZM407.875 101.016C406.656 101.016 405.797 101.797 405.797 102.969C405.797 104.188 406.656 104.953 407.875 104.969C409.031 104.953 409.906 104.188 409.922 102.969C409.906 101.797 409.031 101.016 407.875 101.016ZM411.469 103.828H414.047V102.141H411.484C411.539 102.406 411.578 102.68 411.578 102.969C411.578 103.266 411.539 103.555 411.469 103.828ZM422.469 107.188C422.484 104.25 423.312 101.797 424.781 99.7031H426.312C425.234 101.25 424.203 104.406 424.203 107.188C424.203 109.984 425.234 113.125 426.312 114.688H424.781C423.312 112.594 422.484 110.141 422.469 107.188ZM486.5 107.188C486.484 110.141 485.656 112.594 484.188 114.688H482.656C483.734 113.125 484.766 109.984 484.766 107.188C484.766 104.406 483.734 101.25 482.656 99.7031H484.188C485.656 101.797 486.484 104.25 486.5 107.188Z" fill="#333333"/>
<path d="M438.984 98.8281V112.828H437.484V98.8281H438.984ZM434.812 100.328C434.812 104.422 433.062 107.984 428.266 110.281L427.484 109.078C431.211 107.305 433.023 104.781 433.312 101.516H428.156V100.328H434.812ZM452.797 99.5V100.688H448.531C448.617 102.211 450.633 103.555 453.234 103.875L452.672 105.047C450.273 104.734 448.305 103.617 447.547 102.047C446.789 103.609 444.828 104.734 442.438 105.047L441.875 103.875C444.492 103.555 446.484 102.211 446.562 100.688H442.344V99.5H452.797ZM453.969 105.953V107.156H448.406V109.875H446.938V107.156H441.156V105.953H453.969ZM452.547 111.328V112.531H442.75V108.531H444.234V111.328H452.547ZM460.156 102.953C460.156 105.297 461.688 107.719 463.844 108.641L463.031 109.797C461.383 109.07 460.07 107.531 459.422 105.656C458.773 107.656 457.453 109.359 455.828 110.156L454.969 108.984C457.078 108 458.641 105.359 458.656 102.953V101.469H455.453V100.234H463.344V101.469H460.156V102.953ZM466.594 98.8281V112.828H465.109V98.8281H466.594ZM480.5 107.812V112.828H479.016V108.984H471.016V107.812H480.5ZM480.5 98.8281V107.078H479.016V105.156H475.562C474.914 105.922 473.891 106.383 472.703 106.375C470.594 106.391 469.031 104.984 469.031 102.984C469.031 101.016 470.594 99.5938 472.703 99.6094C473.891 99.6016 474.906 100.062 475.562 100.828H479.016V98.8281H480.5ZM472.703 100.859C471.391 100.859 470.453 101.734 470.453 102.984C470.453 104.266 471.391 105.125 472.703 105.125C473.969 105.125 474.922 104.266 474.922 102.984C474.922 101.734 473.969 100.859 472.703 100.859ZM476.219 103.938H479.016V102.047H476.219C476.297 102.344 476.344 102.656 476.344 102.984C476.344 103.32 476.297 103.641 476.219 103.938Z" fill="#D63457"/>
<rect x="362.5" y="128.5" width="239" height="47" rx="7.5" fill="#F3F3F3"/>
<rect x="362.5" y="128.5" width="239" height="47" rx="7.5" stroke="#EFEFEF"/>
<path d="M386.188 145.344V153.625H384.703V151.922H381.172V150.703H384.703V149H381.312C380.414 151.25 378.312 152.836 375.281 153.703L374.688 152.547C378 151.594 379.938 149.82 380.203 147.562H375.406V146.344H381.812C381.812 146.859 381.758 147.359 381.672 147.828H384.703V145.344H386.188ZM381.578 153.781C384.406 153.781 386.266 154.812 386.281 156.516C386.266 158.219 384.406 159.266 381.578 159.266C378.703 159.266 376.859 158.219 376.859 156.516C376.859 154.812 378.703 153.781 381.578 153.781ZM381.578 154.953C379.578 154.953 378.328 155.516 378.328 156.516C378.328 157.5 379.578 158.078 381.578 158.078C383.547 158.078 384.781 157.5 384.797 156.516C384.781 155.516 383.547 154.953 381.578 154.953ZM393.172 147.562C393.172 149.406 394.453 151.109 396.547 151.797L395.75 152.969C394.219 152.43 393.07 151.336 392.469 149.953C391.852 151.523 390.664 152.75 389.031 153.359L388.234 152.172C390.422 151.391 391.688 149.531 391.703 147.438V146.062H393.172V147.562ZM399.344 145.328V148.844H401.375V150.094H399.344V153.781H397.859V145.328H399.344ZM394.828 154.109C397.703 154.109 399.469 155.062 399.469 156.703C399.469 158.359 397.703 159.312 394.828 159.297C391.922 159.312 390.125 158.359 390.125 156.703C390.125 155.062 391.922 154.109 394.828 154.109ZM394.828 155.281C392.797 155.281 391.594 155.812 391.609 156.703C391.594 157.625 392.797 158.125 394.828 158.141C396.844 158.125 398.016 157.625 398.016 156.703C398.016 155.812 396.844 155.281 394.828 155.281ZM414.938 152.125V153.312H409.281V154.812H413.375V159.328H411.875V156.016H403.594V154.812H407.812V153.312H402.172V152.125H414.938ZM405.312 145.656V147.172H411.797V145.656H413.281V150.953H403.844V145.656H405.312ZM405.312 149.766H411.797V148.281H405.312V149.766ZM427.344 151.781V152.969H423.109V156.391H428.812V157.609H416V156.391H421.641V152.969H417.594V146.406H427.219V147.609H419.078V151.781H427.344ZM437.609 146.141C438.773 146.133 439.766 146.57 440.422 147.297H443.922V145.328H445.406V153.594H443.922V151.703H440.406C439.758 152.422 438.766 152.852 437.609 152.844C435.5 152.859 433.938 151.453 433.938 149.5C433.938 147.531 435.5 146.125 437.609 146.141ZM437.609 147.422C436.297 147.406 435.359 148.25 435.359 149.5C435.359 150.719 436.297 151.594 437.609 151.578C438.891 151.594 439.828 150.719 439.828 149.5C439.828 148.25 438.891 147.406 437.609 147.422ZM440.719 153.906C443.625 153.906 445.453 154.891 445.453 156.609C445.453 158.312 443.625 159.312 440.719 159.297C437.797 159.312 435.969 158.312 435.984 156.609C435.969 154.891 437.797 153.906 440.719 153.906ZM440.719 155.047C438.672 155.047 437.422 155.609 437.438 156.609C437.422 157.578 438.672 158.125 440.719 158.125C442.781 158.125 444 157.578 444 156.609C444 155.609 442.781 155.047 440.719 155.047ZM441.094 148.484C441.195 148.797 441.25 149.141 441.25 149.5C441.25 149.844 441.195 150.18 441.109 150.484H443.922V148.484H441.094ZM454.734 146.281V147.5H449.797V151.922C452.312 151.914 453.789 151.828 455.469 151.484L455.609 152.672C453.797 153.062 452.234 153.141 449.391 153.125H448.328V146.281H454.734ZM459.234 154.406V159.328H457.75V155.594H449.75V154.406H459.234ZM459.234 145.328V153.719H457.75V150.109H453.953V148.906H457.75V145.328H459.234ZM472.578 146.047V147.188C472.578 148.359 472.578 149.68 472.25 151.438H474.203V152.625H468.594V155.875H467.109V152.625H461.391V151.438H470.734C471.102 149.703 471.109 148.406 471.109 147.25H463V146.047H472.578ZM472.859 157.828V159.031H462.969V154.609H464.453V157.828H472.859Z" fill="#888888"/>
<path d="M46.2656 49.2656V63.3906H44.5156V49.2656H46.2656ZM42.0469 50.7656C42.0469 54.9688 40.4219 58.5469 35.4688 60.8906L34.5625 59.5C38.2578 57.7422 39.9766 55.3516 40.2812 52.1406H35.2812V50.7656H42.0469ZM59.5356 49.9062V51.2969H55.4419C55.5981 52.625 57.3247 53.8906 60.0513 54.2188L59.395 55.5938C56.8638 55.2891 54.9966 54.1719 54.2388 52.6406C53.4809 54.1641 51.6294 55.2891 49.0981 55.5938L48.4575 54.2188C51.1841 53.8906 52.8872 52.625 53.0513 51.2969H48.9888V49.9062H59.5356ZM60.7075 56.375V57.7812H55.2544V60.3594H53.5356V57.7812H47.8013V56.375H60.7075ZM59.2856 61.7031V63.1094H49.3638V59.0625H51.0981V61.7031H59.2856ZM66.4931 53.2812C66.4931 55.5938 67.8525 58.0312 70.1338 58.9844L69.1806 60.3594C67.5088 59.6406 66.29 58.1562 65.6494 56.3594C64.9931 58.2969 63.7588 59.9219 62.1025 60.7031L61.1025 59.3438C63.3369 58.3125 64.7275 55.6875 64.7275 53.2812V52.0938H61.6181V50.6562H69.5869V52.0938H66.4931V53.2812ZM72.915 49.2656V63.3906H71.165V49.2656H72.915ZM86.3413 58.2812V63.3906H84.6069V59.6562H76.7163V58.2812H86.3413ZM86.3413 49.2656V57.6094H84.6069V55.7344H81.2944C80.6225 56.4844 79.6069 56.9375 78.435 56.9375C76.31 56.9375 74.7006 55.5 74.7006 53.4688C74.7006 51.4688 76.31 50.0312 78.435 50.0469C79.5991 50.0391 80.6147 50.4766 81.2788 51.2188H84.6069V49.2656H86.3413ZM78.435 51.5156C77.2163 51.5156 76.3569 52.2969 76.3569 53.4688C76.3569 54.6875 77.2163 55.4531 78.435 55.4688C79.5913 55.4531 80.4663 54.6875 80.4819 53.4688C80.4663 52.2969 79.5913 51.5156 78.435 51.5156ZM82.0288 54.3281H84.6069V52.6406H82.0444C82.0991 52.9062 82.1381 53.1797 82.1381 53.4688C82.1381 53.7656 82.0991 54.0547 82.0288 54.3281ZM95.7519 50.7344V51.7344C95.7519 53 95.7519 54.7656 95.3613 57.2031L93.6425 57.0625C93.9784 54.9219 94.0175 53.3438 94.0331 52.125H88.4863V50.7344H95.7519ZM92.1894 54.7656V58.9375C93.6269 58.8828 95.1034 58.7812 96.455 58.6094L96.5488 59.9062C93.6269 60.375 90.3925 60.4375 87.9081 60.4219L87.7363 59.0312C88.5722 59.0234 89.5019 59.0156 90.4706 58.9844V54.7656H92.1894ZM98.9394 49.2656V55.0156H100.986V56.4844H98.9394V63.3906H97.1894V49.2656H98.9394ZM117.37 55.375V56.6562H111.808V57.6875H115.792V61H107.761V61.9688H116.183V63.2656H106.058V59.8125H114.089V58.9375H106.042V57.6875H110.089V56.6562H104.558V55.375H117.37ZM111.808 49.2344V50.4219H116.136V51.7188H111.995C112.331 52.7188 113.972 53.4688 116.792 53.6094L116.276 54.9062C113.745 54.75 111.839 54.0625 110.948 52.9219C110.058 54.0625 108.159 54.75 105.604 54.9062L105.12 53.6094C107.909 53.4688 109.55 52.7188 109.917 51.7188H105.792V50.4219H110.089V49.2344H111.808ZM120.077 49.8906V51.6875H123.374V49.8906H125.093V56.0469H118.359V49.8906H120.077ZM120.077 54.6719H123.374V53H120.077V54.6719ZM129.015 49.2656V52.125H130.984V53.5312H129.015V56.5H127.281V49.2656H129.015ZM129.015 57.0625V60.7656H121.515V61.8906H129.452V63.2656H119.796V59.5H127.281V58.4219H119.781V57.0625H129.015ZM136.551 53.2812C136.551 55.5938 137.91 58.0312 140.191 58.9844L139.238 60.3594C137.566 59.6406 136.348 58.1562 135.707 56.3594C135.051 58.2969 133.816 59.9219 132.16 60.7031L131.16 59.3438C133.394 58.3125 134.785 55.6875 134.785 53.2812V52.0938H131.676V50.6562H139.644V52.0938H136.551V53.2812ZM142.973 49.2656V63.3906H141.223V49.2656H142.973ZM159.841 55.5V56.8906H154.731V50.5H159.716V51.8906H156.481V55.5H159.841ZM160.794 60.2656V61.6719H147.887V60.2656H153.434V57.5312H155.153V60.2656H160.794ZM153.856 50.5V51.9062H150.653V55.4531C151.802 55.4375 152.833 55.3516 153.966 55.1094L154.091 56.5469C152.622 56.8594 151.372 56.8906 149.794 56.8906H148.919V50.5H153.856ZM172.673 53.2656V54.6406H162.892V49.7812H164.611V53.2656H172.673ZM174.126 56.2812V57.6562H161.22V56.2812H174.126ZM172.767 61.6562V63.0625H162.767V58.9062H164.501V61.6562H172.767ZM189.369 55.6875V57.0625H185.182V60.2969H190.807V61.7188H177.901V60.2969H183.463V57.0625H179.463V50.3125H189.26V51.7031H181.197V55.6875H189.369ZM196.327 52.3281C196.327 53.875 197.467 55.4219 199.702 56.0312L198.889 57.4219C197.272 56.9531 196.116 55.9688 195.483 54.7344C194.858 56.0938 193.686 57.1562 192.03 57.6562L191.186 56.2969C193.405 55.6562 194.592 54.0156 194.592 52.3281V52.2188H191.639V50.8438H194.592V49.2188H196.342V50.8438H199.28V52.2188H196.327V52.3281ZM202.389 49.2656V52.8438H204.358V54.3125H202.389V57.9062H200.655V49.2656H202.389ZM202.389 58.5469V63.4062H200.655V59.9375H192.983V58.5469H202.389ZM209.925 53.2812C209.925 55.5938 211.284 58.0312 213.566 58.9844L212.613 60.3594C210.941 59.6406 209.722 58.1562 209.081 56.3594C208.425 58.2969 207.191 59.9219 205.534 60.7031L204.534 59.3438C206.769 58.3125 208.159 55.6875 208.159 53.2812V52.0938H205.05V50.6562H213.019V52.0938H209.925V53.2812ZM216.347 49.2656V63.3906H214.597V49.2656H216.347ZM230.836 55.6719V56.9844H217.929V55.6719H230.836ZM229.273 57.8281V61.0469H221.179V62.0312H229.695V63.2344H219.445V59.9219H227.554V59.0469H219.429V57.8281H229.273ZM229.242 49.5781V52.7656H221.289V53.6875H229.492V54.875H219.57V51.6406H227.508V50.7812H219.523V49.5781H229.242ZM247.485 57.75V59.1719H241.891V63.4062H240.173V59.1719H234.61V57.75H247.485ZM246.282 50.9375V52.3125H241.923C242.087 53.7109 243.923 55.1719 246.751 55.5156L246.11 56.8906C243.774 56.5938 241.962 55.5625 241.048 54.2031C240.118 55.5781 238.29 56.5938 235.938 56.8906L235.313 55.5156C238.133 55.1719 239.985 53.7344 240.157 52.3125H235.798V50.9375H240.173V49.2812H241.891V50.9375H246.282ZM259.021 49.2656V54.7812H261.114V56.2344H259.021V63.3594H257.286V49.2656H259.021ZM255.286 50.7344C255.286 54.8906 253.568 58.5312 248.864 60.8438L247.88 59.5C251.318 57.7891 253.177 55.3828 253.536 52.1719H248.646V50.7344H255.286ZM268.197 51.5156V52.9062H261.275V51.5156H263.9V49.6719H265.619V51.5156H268.197ZM264.759 53.6562C266.556 53.6562 267.837 55.0156 267.837 56.9375C267.837 58.8906 266.556 60.2656 264.759 60.2656C262.978 60.2656 261.666 58.8906 261.681 56.9375C261.666 55.0156 262.978 53.6562 264.759 53.6562ZM264.759 55.0938C263.837 55.0938 263.197 55.8281 263.212 56.9375C263.197 58.0781 263.837 58.7969 264.759 58.7812C265.666 58.7969 266.306 58.0781 266.306 56.9375C266.306 55.8281 265.666 55.0938 264.759 55.0938ZM273.447 49.2656V63.3906H271.791V56.4844H270.416V62.75H268.791V49.5625H270.416V55.0781H271.791V49.2656H273.447ZM279.873 52.6562C279.873 55.2812 281.123 57.8594 283.373 58.8438L282.326 60.2344C280.725 59.4531 279.6 57.9531 278.998 56.1094C278.381 58.0547 277.232 59.6719 275.607 60.5L274.514 59.0938C276.811 58.0156 278.092 55.2969 278.107 52.6562V50.4062H279.873V52.6562ZM286.498 49.2656V63.4062H284.779V55.2344H281.811V53.8281H284.779V49.2656H286.498ZM290.753 60.8906L289.44 65.2656H287.956L288.768 60.8906H290.753ZM306.714 49.2656V63.3906H304.964V49.2656H306.714ZM302.496 50.7656C302.496 54.9688 300.871 58.5469 295.918 60.8906L295.011 59.5C298.707 57.7422 300.425 55.3516 300.73 52.1406H295.73V50.7656H302.496ZM319.984 49.9062V51.2969H315.891C316.047 52.625 317.773 53.8906 320.5 54.2188L319.844 55.5938C317.312 55.2891 315.445 54.1719 314.688 52.6406C313.93 54.1641 312.078 55.2891 309.547 55.5938L308.906 54.2188C311.633 53.8906 313.336 52.625 313.5 51.2969H309.438V49.9062H319.984ZM321.156 56.375V57.7812H315.703V60.3594H313.984V57.7812H308.25V56.375H321.156ZM319.734 61.7031V63.1094H309.812V59.0625H311.547V61.7031H319.734ZM326.942 53.2812C326.942 55.5938 328.301 58.0312 330.582 58.9844L329.629 60.3594C327.957 59.6406 326.739 58.1562 326.098 56.3594C325.442 58.2969 324.207 59.9219 322.551 60.7031L321.551 59.3438C323.786 58.3125 325.176 55.6875 325.176 53.2812V52.0938H322.067V50.6562H330.036V52.0938H326.942V53.2812ZM333.364 49.2656V63.3906H331.614V49.2656H333.364ZM346.79 58.2812V63.3906H345.056V59.6562H337.165V58.2812H346.79ZM346.79 49.2656V57.6094H345.056V55.7344H341.743C341.071 56.4844 340.056 56.9375 338.884 56.9375C336.759 56.9375 335.149 55.5 335.149 53.4688C335.149 51.4688 336.759 50.0312 338.884 50.0469C340.048 50.0391 341.063 50.4766 341.728 51.2188H345.056V49.2656H346.79ZM338.884 51.5156C337.665 51.5156 336.806 52.2969 336.806 53.4688C336.806 54.6875 337.665 55.4531 338.884 55.4688C340.04 55.4531 340.915 54.6875 340.931 53.4688C340.915 52.2969 340.04 51.5156 338.884 51.5156ZM342.478 54.3281H345.056V52.6406H342.493C342.548 52.9062 342.587 53.1797 342.587 53.4688C342.587 53.7656 342.548 54.0547 342.478 54.3281ZM356.201 50.7344V51.7344C356.201 53 356.201 54.7656 355.81 57.2031L354.091 57.0625C354.427 54.9219 354.466 53.3438 354.482 52.125H348.935V50.7344H356.201ZM352.638 54.7656V58.9375C354.076 58.8828 355.552 58.7812 356.904 58.6094L356.997 59.9062C354.076 60.375 350.841 60.4375 348.357 60.4219L348.185 59.0312C349.021 59.0234 349.951 59.0156 350.919 58.9844V54.7656H352.638ZM359.388 49.2656V55.0156H361.435V56.4844H359.388V63.3906H357.638V49.2656H359.388ZM377.819 55.375V56.6562H372.256V57.6875H376.241V61H368.209V61.9688H376.631V63.2656H366.506V59.8125H374.538V58.9375H366.491V57.6875H370.538V56.6562H365.006V55.375H377.819ZM372.256 49.2344V50.4219H376.584V51.7188H372.444C372.78 52.7188 374.42 53.4688 377.241 53.6094L376.725 54.9062C374.194 54.75 372.288 54.0625 371.397 52.9219C370.506 54.0625 368.608 54.75 366.053 54.9062L365.569 53.6094C368.358 53.4688 369.998 52.7188 370.366 51.7188H366.241V50.4219H370.538V49.2344H372.256ZM383.417 50.1562L379.776 63.7031H378.026L381.682 50.1562H383.417ZM395.046 55.6875V57.0625H390.859V60.2969H396.484V61.7188H383.578V60.2969H389.14V57.0625H385.14V50.3125H394.937V51.7031H386.874V55.6875H395.046ZM402.004 52.3281C402.004 53.875 403.144 55.4219 405.379 56.0312L404.566 57.4219C402.949 56.9531 401.793 55.9688 401.16 54.7344C400.535 56.0938 399.363 57.1562 397.707 57.6562L396.863 56.2969C399.082 55.6562 400.269 54.0156 400.269 52.3281V52.2188H397.316V50.8438H400.269V49.2188H402.019V50.8438H404.957V52.2188H402.004V52.3281ZM408.066 49.2656V52.8438H410.035V54.3125H408.066V57.9062H406.332V49.2656H408.066ZM408.066 58.5469V63.4062H406.332V59.9375H398.66V58.5469H408.066ZM415.602 53.2812C415.602 55.5938 416.961 58.0312 419.242 58.9844L418.289 60.3594C416.617 59.6406 415.399 58.1562 414.758 56.3594C414.102 58.2969 412.867 59.9219 411.211 60.7031L410.211 59.3438C412.446 58.3125 413.836 55.6875 413.836 53.2812V52.0938H410.727V50.6562H418.696V52.0938H415.602V53.2812ZM422.024 49.2656V63.3906H420.274V49.2656H422.024ZM438.079 49.2656V53.3281H440.048V54.7812H438.079V59.4531H436.314V49.2656H438.079ZM434.236 50.3438C434.236 54.0938 431.798 56.7656 427.611 57.9844L426.892 56.6094C430.118 55.6797 432.04 53.9219 432.345 51.7656H427.486V50.3438H434.236ZM438.611 61.7031V63.1094H429.001V58.4062H430.767V61.7031H438.611ZM444.865 50.25C447.099 50.2344 448.74 51.6562 448.756 53.6562C448.74 55.6719 447.099 57.0781 444.865 57.0781C442.646 57.0781 440.99 55.6719 440.99 53.6562C440.99 51.6562 442.646 50.2344 444.865 50.25ZM444.865 51.75C443.631 51.75 442.709 52.4844 442.709 53.6562C442.709 54.8438 443.631 55.5625 444.865 55.5625C446.115 55.5625 447.052 54.8438 447.052 53.6562C447.052 52.4844 446.115 51.75 444.865 51.75ZM452.052 49.2656V63.4062H450.318V49.2656H452.052ZM440.349 59.0312C442.896 59.0312 446.427 59 449.474 58.5625L449.615 59.8281C446.443 60.4375 443.052 60.4531 440.568 60.4531L440.349 59.0312ZM468.702 49.2656V63.4062H466.952V49.2656H468.702ZM461.092 50.2969C463.217 50.2969 464.764 52.2344 464.78 55.2812C464.764 58.3594 463.217 60.2812 461.092 60.2812C458.952 60.2812 457.405 58.3594 457.405 55.2812C457.405 52.2344 458.952 50.2969 461.092 50.2969ZM461.092 51.8594C459.889 51.8594 459.077 53.125 459.077 55.2812C459.077 57.4531 459.889 58.7188 461.092 58.7188C462.28 58.7188 463.092 57.4531 463.092 55.2812C463.092 53.125 462.28 51.8594 461.092 51.8594ZM483.191 56.0312V57.4219H470.3V56.0312H475.894V54.6875H471.878V49.9062H481.628V51.2656H473.612V53.3125H481.706V54.6875H477.597V56.0312H483.191ZM476.722 58.2344C479.769 58.2344 481.597 59.1562 481.612 60.8125C481.597 62.4531 479.769 63.3906 476.722 63.3906C473.644 63.3906 471.8 62.4531 471.8 60.8125C471.8 59.1562 473.644 58.2344 476.722 58.2344ZM476.722 59.5625C474.659 59.5625 473.55 60 473.566 60.8125C473.55 61.625 474.659 62.0469 476.722 62.0469C478.737 62.0469 479.862 61.625 479.878 60.8125C479.862 60 478.737 59.5625 476.722 59.5625ZM490.07 49.4844C493.289 49.4844 495.148 50.3438 495.164 51.9062C495.148 53.4844 493.289 54.3281 490.07 54.3438C486.851 54.3281 484.976 53.4844 484.976 51.9062C484.976 50.3438 486.851 49.4844 490.07 49.4844ZM490.07 50.7656C487.914 50.7656 486.789 51.1719 486.804 51.9062C486.789 52.6875 487.914 53.0469 490.07 53.0469C492.258 53.0469 493.367 52.6875 493.367 51.9062C493.367 51.1719 492.258 50.7656 490.07 50.7656ZM496.523 55.0938V56.4844H483.648V55.0938H496.523ZM494.914 57.4375V60.8906H486.883V61.9375H495.304V63.2656H485.179V59.6562H493.211V58.7188H485.164V57.4375H494.914ZM503.704 49.4844V50.5938H509.797V49.4844H511.516V54.1875H507.579V55.2656H513.188V56.6406H500.313V55.2656H505.86V54.1875H501.985V49.4844H503.704ZM503.704 52.8906H509.797V51.8594H503.704V52.8906ZM511.579 57.5312V60.9531H503.547V61.9375H511.969V63.2656H501.844V59.7344H509.876V58.8125H501.829V57.5312H511.579ZM524.337 50.4375C524.337 52.2188 526.322 54.0156 529.337 54.4062L528.65 55.8125C526.252 55.4531 524.345 54.2734 523.431 52.6719C522.502 54.2734 520.603 55.4531 518.228 55.8125L517.541 54.4062C520.525 54.0156 522.509 52.2188 522.509 50.4375V49.7188H524.337V50.4375ZM529.853 57.0312V58.4688H524.244V63.3906H522.525V58.4688H516.978V57.0312H529.853ZM538.659 58.4531C538.659 59.625 539.198 60.8594 540.409 61.625C541.635 60.8047 542.206 59.5234 542.221 58.4531V57.875H543.924V58.4531C543.909 59.9375 544.784 61.3125 546.643 61.9062L545.799 63.1719C544.424 62.7109 543.51 61.8125 543.018 60.6875C542.565 61.7969 541.729 62.7891 540.456 63.2969C539.112 62.8125 538.268 61.8594 537.831 60.7344C537.323 61.8203 536.424 62.7031 535.112 63.1719L534.253 61.9062C536.081 61.2656 536.956 59.8281 536.971 58.4531V57.875H538.659V58.4531ZM545.409 49.2812V57.2812H543.659V49.2812H545.409ZM537.706 50.0312C539.878 50.0312 541.503 51.4062 541.503 53.3906C541.503 55.3594 539.878 56.7344 537.706 56.7344C535.518 56.7344 533.893 55.3594 533.893 53.3906C533.893 51.4062 535.518 50.0312 537.706 50.0312ZM537.706 51.5C536.471 51.5 535.581 52.2344 535.596 53.3906C535.581 54.5469 536.471 55.2969 537.706 55.2969C538.924 55.2969 539.799 54.5469 539.799 53.3906C539.799 52.2344 538.924 51.5 537.706 51.5ZM550.257 57.7344V59.0781H556.476V57.7344H558.21V63.2188H548.538V57.7344H550.257ZM550.257 61.8438H556.476V60.4062H550.257V61.8438ZM559.866 55.5156V56.9375H546.991V55.5156H559.866ZM554.319 49.9531C554.319 51.4688 556.257 53.0625 559.179 53.4062L558.569 54.7812C556.202 54.4609 554.335 53.4141 553.429 51.9844C552.515 53.4219 550.64 54.4609 548.288 54.7812L547.648 53.4062C550.601 53.0469 552.523 51.5156 552.538 49.9531V49.4219H554.319V49.9531ZM572.121 49.2656V63.3906H570.402V49.2656H572.121ZM562.871 50.6406V58.3594C564.855 58.3281 566.964 58.1484 569.136 57.7188L569.355 59.1719C566.871 59.6875 564.558 59.8438 562.371 59.8438H561.152V50.6406H562.871ZM584.75 49.2656V54.625H586.922V56.0469H584.75V63.4062H583.016V49.2656H584.75ZM580.875 50.6094V52.0156H576V58.5C578.195 58.5 579.93 58.3906 581.875 58.0469L582.078 59.5156C579.891 59.8906 577.984 59.9531 575.438 59.9531H574.266V50.6094H580.875ZM588.754 62.125C588.083 62.125 587.536 61.5781 587.536 60.9062C587.536 60.25 588.083 59.7031 588.754 59.7031C589.395 59.7031 589.958 60.25 589.958 60.9062C589.958 61.5781 589.395 62.125 588.754 62.125Z" fill="#333333"/>
<path d="M324 8L316 20L332 20L324 8Z" fill="white"/>
</g>
<defs>
<filter id="filter0_d_4435_141598" x="0" y="0" width="648" height="264" filterUnits="userSpaceOnUse" color-interpolation-filters="sRGB">
<feFlood flood-opacity="0" result="BackgroundImageFix"/>
<feColorMatrix in="SourceAlpha" type="matrix" values="0 0 0 0 0 0 0 0 0 0 0 0 0 0 0 0 0 0 127 0" result="hardAlpha"/>
<feMorphology radius="2" operator="dilate" in="SourceAlpha" result="effect1_dropShadow_4435_141598"/>
<feOffset dy="2"/>
<feGaussianBlur stdDeviation="4"/>
<feComposite in2="hardAlpha" operator="out"/>
<feColorMatrix type="matrix" values="0 0 0 0 0.2 0 0 0 0 0.2 0 0 0 0 0.2 0 0 0 0.42 0"/>
<feBlend mode="normal" in2="BackgroundImageFix" result="effect1_dropShadow_4435_141598"/>
<feBlend mode="normal" in="SourceGraphic" in2="effect1_dropShadow_4435_141598" result="shape"/>
</filter>
<filter id="filter1_d_4435_141598" x="304" y="129" width="44" height="44" filterUnits="userSpaceOnUse" color-interpolation-filters="sRGB">
<feFlood flood-opacity="0" result="BackgroundImageFix"/>
<feColorMatrix in="SourceAlpha" type="matrix" values="0 0 0 0 0 0 0 0 0 0 0 0 0 0 0 0 0 0 127 0" result="hardAlpha"/>
<feOffset dx="2" dy="1"/>
<feGaussianBlur stdDeviation="2"/>
<feComposite in2="hardAlpha" operator="out"/>
<feColorMatrix type="matrix" values="0 0 0 0 0.932308 0 0 0 0 0.932308 0 0 0 0 0.932308 0 0 0 1 0"/>
<feBlend mode="normal" in2="BackgroundImageFix" result="effect1_dropShadow_4435_141598"/>
<feBlend mode="normal" in="SourceGraphic" in2="effect1_dropShadow_4435_141598" result="shape"/>
</filter>
<clipPath id="clip0_4435_141598">
<rect width="16" height="16" fill="white" transform="translate(58 192)"/>
</clipPath>
</defs>
</svg>
