<svg width="33" height="32" viewBox="0 0 33 32" fill="none" xmlns="http://www.w3.org/2000/svg">
<g clip-path="url(#clip0_4435_141560)">
<mask id="mask0_4435_141560" style="mask-type:alpha" maskUnits="userSpaceOnUse" x="0" y="0" width="33" height="32">
<rect x="0.5" width="32" height="32" fill="#F8F8F8"/>
</mask>
<g mask="url(#mask0_4435_141560)">
<path d="M4.62894 26.6667V6.53333L11.9623 4L19.9623 6.8L27.2956 4V15.7333C27.0289 15.3333 26.7623 15.0667 26.3623 14.6667C25.9623 14.4 25.6956 14.1333 25.2956 13.8667V6.8L20.8956 8.4V12.6667C20.4956 12.6667 20.2289 12.6667 19.8289 12.6667C19.5623 12.6667 19.1623 12.8 18.8956 12.9333V8.4L12.8956 6.26667V23.2L4.49561 26.4L4.62894 26.6667ZM6.62894 23.7333L11.0289 22.1333V6.53333L6.62894 8V23.8667V23.7333Z" fill="currentColor"/>
<path d="M25.3045 23.3266C25.5711 22.9266 25.7045 22.5266 25.8378 22.1266C25.9711 21.7266 26.1045 21.1932 26.1045 20.6599C26.1045 19.3266 25.5711 18.1266 24.6378 17.1932C23.7045 16.2599 22.5045 15.7266 21.1711 15.7266C19.8378 15.7266 18.6378 16.2599 17.7045 17.1932C16.7711 18.1266 16.2378 19.3266 16.2378 20.6599C16.2378 21.9932 16.7711 23.1932 17.7045 24.1266C18.6378 25.0599 19.8378 25.5932 21.1711 25.5932C22.5045 25.5932 22.1045 25.5932 22.6378 25.3266C23.0378 25.1932 23.4378 24.9266 23.8378 24.6599L27.1711 27.9932L28.5045 26.5266L25.1711 23.1932L25.3045 23.3266ZM23.3045 22.6599C22.7711 23.1932 22.1045 23.4599 21.3045 23.4599C20.5045 23.4599 19.8378 23.1932 19.3045 22.6599C18.7711 22.1266 18.5045 21.4599 18.5045 20.6599C18.5045 19.8599 18.7711 19.1932 19.3045 18.6599C19.8378 18.1266 20.5045 17.8599 21.3045 17.8599C22.1045 17.8599 22.7711 18.1266 23.3045 18.6599C23.8378 19.1932 24.1045 19.8599 24.1045 20.6599C24.1045 21.5932 23.8378 22.2599 23.3045 22.7932V22.6599Z" fill="currentColor"/>
</g>
</g>
<defs>
<clipPath id="clip0_4435_141560">
<rect x="0.5" width="32" height="32" rx="2.66667" fill="white"/>
</clipPath>
</defs>
</svg>
