<svg width="48" height="48" viewBox="0 0 48 48" fill="none" xmlns="http://www.w3.org/2000/svg">
<mask id="mask0_2088_54554" style="mask-type:alpha" maskUnits="userSpaceOnUse" x="0" y="0" width="48" height="48">
<rect width="48" height="48" fill="#D9D9D9"/>
</mask>
<g mask="url(#mask0_2088_54554)">
<path d="M11 44.001V29.001H8V18.001C8 16.901 8.39167 15.9593 9.175 15.176C9.95833 14.3926 10.9 14.001 12 14.001H18C19.1 14.001 20.0417 14.3926 20.825 15.176C21.6083 15.9593 22 16.901 22 18.001V29.001H19V44.001H11ZM15 12.001C13.9 12.001 12.9583 11.6093 12.175 10.826C11.3917 10.0426 11 9.10098 11 8.00098C11 6.90098 11.3917 5.95931 12.175 5.17598C12.9583 4.39264 13.9 4.00098 15 4.00098C16.1 4.00098 17.0417 4.39264 17.825 5.17598C18.6083 5.95931 19 6.90098 19 8.00098C19 9.10098 18.6083 10.0426 17.825 10.826C17.0417 11.6093 16.1 12.001 15 12.001ZM30 44.001V32.001H24L29.1 16.701C29.3667 15.8343 29.8583 15.1676 30.575 14.701C31.2917 14.2343 32.1 14.001 33 14.001C33.9 14.001 34.7083 14.2343 35.425 14.701C36.1417 15.1676 36.6333 15.8343 36.9 16.701L42 32.001H36V44.001H30ZM33 12.001C31.9 12.001 30.9583 11.6093 30.175 10.826C29.3917 10.0426 29 9.10098 29 8.00098C29 6.90098 29.3917 5.95931 30.175 5.17598C30.9583 4.39264 31.9 4.00098 33 4.00098C34.1 4.00098 35.0417 4.39264 35.825 5.17598C36.6083 5.95931 37 6.90098 37 8.00098C37 9.10098 36.6083 10.0426 35.825 10.826C35.0417 11.6093 34.1 12.001 33 12.001Z" fill="#D63457"/>
<path d="M11.002 29.001V44.001H19.002V29.001H22.002V18.001C22.002 16.901 21.6103 15.9593 20.827 15.176C20.0436 14.3926 19.102 14.001 18.002 14.001H12.002C10.902 14.001 9.96029 14.3926 9.17695 15.176C8.39362 15.9593 8.00195 16.901 8.00195 18.001V29.001H11.002Z" fill="#365D96"/>
<path d="M12.177 10.826C12.9603 11.6093 13.902 12.001 15.002 12.001C16.102 12.001 17.0436 11.6093 17.827 10.826C18.6103 10.0426 19.002 9.10098 19.002 8.00098C19.002 6.90098 18.6103 5.95931 17.827 5.17598C17.0436 4.39264 16.102 4.00098 15.002 4.00098C13.902 4.00098 12.9603 4.39264 12.177 5.17598C11.3936 5.95931 11.002 6.90098 11.002 8.00098C11.002 9.10098 11.3936 10.0426 12.177 10.826Z" fill="#365D96"/>
</g>
</svg>
