<svg width="56" height="56" viewBox="0 0 56 56" fill="none" xmlns="http://www.w3.org/2000/svg">
<mask id="mask0_3126_53515" style="mask-type:alpha" maskUnits="userSpaceOnUse" x="0" y="0" width="56" height="56">
<rect x="0.5" y="0.524414" width="55" height="55" fill="#D9D9D9"/>
</mask>
<g mask="url(#mask0_3126_53515)">
<path d="M37.1667 45.2119V31.6824H45.1875V45.2119H37.1667ZM10.8125 45.2119V22.0752H18.8333V45.2119H10.8125Z" fill="#375D96"/>
<path d="M23.9883 10.8369V45.2119H32.0091V10.8369H23.9883Z" fill="#D63457"/>
<path d="M37.7268 19.7832C36.2766 19.7979 35.4856 18.7139 35.5002 17.1465C35.4856 15.5938 36.3059 14.5244 37.7268 14.5244C39.177 14.5244 39.9533 15.5938 39.9533 17.1465C39.9533 18.7285 39.1477 19.7979 37.7268 19.7832ZM37.7268 18.7578C38.4152 18.7578 38.7375 18.1133 38.7375 17.1465C38.7375 16.1943 38.4299 15.5498 37.7268 15.5498C37.0529 15.5645 36.7014 16.1943 36.7014 17.1465C36.7014 18.1133 37.0383 18.7578 37.7268 18.7578ZM44.4211 25.5693C42.9709 25.5693 42.1799 24.5 42.1945 22.9326C42.1799 21.3652 43.0148 20.2959 44.4211 20.2959C45.8713 20.2959 46.6477 21.3652 46.6477 22.9326C46.6477 24.5 45.842 25.5693 44.4211 25.5693ZM44.4211 24.5293C45.1096 24.5293 45.4318 23.8848 45.4318 22.9326C45.4318 21.9658 45.1242 21.3213 44.4211 21.3213C43.7473 21.3359 43.3957 21.9805 43.3957 22.9326C43.3957 23.8848 43.7473 24.5293 44.4211 24.5293ZM36.7014 25.3496L43.9816 14.7441H45.3147L38.0344 25.3496H36.7014Z" fill="#D63457"/>
</g>
</svg>
