<svg width="48" height="49" viewBox="0 0 48 49" fill="none" xmlns="http://www.w3.org/2000/svg">
<mask id="mask0_3126_53531" style="mask-type:alpha" maskUnits="userSpaceOnUse" x="0" y="0" width="48" height="49">
<rect y="0.0244141" width="48" height="48" fill="#D9D9D9"/>
</mask>
<g mask="url(#mask0_3126_53531)">
<path d="M20.5 41.0239V37.7964C20.5 37.2017 20.6558 36.6474 20.9675 36.1334C21.2788 35.6194 21.6897 35.2047 22.2 34.8894C23.695 34.002 25.2648 33.3347 26.9095 32.8874C28.5545 32.44 30.2513 32.2164 32 32.2164C33.7487 32.2164 35.4455 32.44 37.0905 32.8874C38.7352 33.3347 40.305 34.002 41.8 34.8894C42.3103 35.2047 42.7212 35.6194 43.0325 36.1334C43.3442 36.6474 43.5 37.2017 43.5 37.7964V41.0239H20.5ZM5 41.0239V18.5239L20 7.23535L29.3655 14.2969C27.2498 14.8149 25.5127 15.9419 24.154 17.6779C22.795 19.4135 22.1155 21.3942 22.1155 23.6199C22.1155 24.6789 22.2667 25.6827 22.569 26.6314C22.8717 27.58 23.309 28.4544 23.881 29.2544C23.1887 29.521 22.519 29.802 21.872 30.0974C21.2253 30.3924 20.5872 30.7307 19.9575 31.1124C18.7705 31.8124 17.8333 32.7647 17.146 33.9694C16.459 35.1744 16.1155 36.4515 16.1155 37.8009V41.0239H5ZM32.0025 29.1199C30.4752 29.1199 29.1763 28.5854 28.106 27.5164C27.0353 26.4474 26.5 25.1494 26.5 23.6224C26.5 22.095 27.0345 20.7962 28.1035 19.7259C29.1725 18.6552 30.4705 18.1199 31.9975 18.1199C33.5248 18.1199 34.8237 18.6544 35.894 19.7234C36.9647 20.7924 37.5 22.0905 37.5 23.6179C37.5 25.1449 36.9655 26.4437 35.8965 27.5144C34.8275 28.5847 33.5295 29.1199 32.0025 29.1199Z" fill="#D63457"/>
<path d="M5 18.5239V41.0239H16.1155V37.8009C16.1155 36.4515 16.459 35.1744 17.146 33.9694C17.8333 32.7647 18.7705 31.8124 19.9575 31.1124C20.5872 30.7307 21.2253 30.3924 21.872 30.0974C22.519 29.802 23.1887 29.521 23.881 29.2544C23.309 28.4544 22.8717 27.58 22.569 26.6314C22.2667 25.6827 22.1155 24.6789 22.1155 23.6199C22.1155 21.3942 22.795 19.4135 24.154 17.6779C25.5127 15.9419 27.2498 14.8149 29.3655 14.2969L20 7.23535L5 18.5239Z" fill="#375D96"/>
</g>
</svg>
