<svg width="48" height="48" viewBox="0 0 48 48" fill="none" xmlns="http://www.w3.org/2000/svg">
<path d="M5 37.231V32.7845C5 31.7745 5.25767 30.8598 5.773 30.0405C6.28833 29.2212 7.00767 28.5872 7.931 28.1385C9.59233 27.3105 11.3872 26.6188 13.3155 26.0635C15.2435 25.5085 17.4717 25.231 20 25.231H20.5845C20.7588 25.231 20.9332 25.2515 21.1075 25.2925C20.3332 27.2308 20.007 29.2712 20.129 31.4135C20.2507 33.5558 20.8615 35.495 21.9615 37.231H5ZM20 22C18.0693 22 16.42 21.316 15.052 19.948C13.684 18.5803 13 16.931 13 15C13 13.0693 13.684 11.42 15.052 10.052C16.42 8.684 18.0693 8 20 8C21.9307 8 23.58 8.684 24.948 10.052C26.316 11.42 27 13.0693 27 15C27 16.931 26.316 18.5803 24.948 19.948C23.58 21.316 21.9307 22 20 22Z" fill="#D63457"/>
<path fill-rule="evenodd" clip-rule="evenodd" d="M33 39C30.5027 39 28.3783 38.1243 26.627 36.373C24.8757 34.6217 24 32.4973 24 30C24 27.5027 24.8757 25.3783 26.627 23.627C28.3783 21.8757 30.5027 21 33 21C35.4977 21 37.622 21.8757 39.373 23.627C41.1243 25.3783 42 27.5027 42 30C42 32.4973 41.1243 34.6217 39.373 36.373C37.622 38.1243 35.4977 39 33 39ZM36.3296 34.5763L37.5756 33.3303L33.8836 29.6378V24.1148H32.1141V30.3608L36.3296 34.5763Z" fill="#365D96"/>
</svg>
