<svg width="49" height="49" viewBox="0 0 49 49" fill="none" xmlns="http://www.w3.org/2000/svg">
<path d="M19.0024 44.4084V18.8844C17.5041 19.7787 16.3331 20.9284 15.4894 22.3334C14.6461 23.7384 14.2244 25.6097 14.2244 27.9474H10.6024C10.6024 23.3344 11.8469 19.8877 14.3359 17.6074C16.8246 15.3267 20.2004 14.1864 24.4634 14.1864C27.9838 14.1864 30.6871 13.5067 32.5734 12.1474C34.4594 10.7881 35.4024 8.40107 35.4024 4.9864H39.0244C39.0244 8.26007 38.2948 10.9206 36.8354 12.9679C35.3758 15.0152 33.1554 16.4171 30.1744 17.1734V44.4084H26.5524V31.6584H22.6244V44.4084H19.0024ZM24.4684 11.0864C23.3708 11.0864 22.4354 10.6942 21.6624 9.9099C20.8891 9.12523 20.5024 8.18207 20.5024 7.0804C20.5024 5.97873 20.8869 5.04123 21.6559 4.2679C22.4246 3.4949 23.3548 3.1084 24.4464 3.1084C25.5534 3.1084 26.4931 3.49473 27.2654 4.2674C28.0381 5.04007 28.4244 5.9794 28.4244 7.0854C28.4244 8.1834 28.0394 9.12473 27.2694 9.9094C26.4998 10.6941 25.5661 11.0864 24.4684 11.0864Z" fill="#365D96"/>
<path d="M8.40234 33.2568V44.4068H14.2243V33.2568H8.40234Z" fill="#D94162"/>
</svg>
