<svg width="48" height="49" viewBox="0 0 48 49" fill="none" xmlns="http://www.w3.org/2000/svg">
<mask id="mask0_6554_104713" style="mask-type:alpha" maskUnits="userSpaceOnUse" x="0" y="0" width="48" height="49">
<rect y="0.0244141" width="48" height="48" fill="#D9D9D9"/>
</mask>
<g mask="url(#mask0_6554_104713)">
<path d="M10.6155 43.0244C9.60517 43.0244 8.75 42.6744 8.05 41.9744C7.35 41.2744 7 40.4193 7 39.409V12.6399C7 11.6296 7.35 10.7744 8.05 10.0744C8.75 9.37444 9.60517 9.02445 10.6155 9.02445H13.3845V4.79395H16.4615V9.02445H31.6155V4.79395H34.6155V9.02445H37.3845C38.3948 9.02445 39.25 9.37444 39.95 10.0744C40.65 10.7744 41 11.6296 41 12.6399V22.0669C41 22.4926 40.8563 22.8489 40.569 23.1359C40.282 23.4233 39.9257 23.5669 39.5 23.5669C39.0743 23.5669 38.718 23.4233 38.431 23.1359C38.1437 22.8489 38 22.4926 38 22.0669V20.6399H10V39.409C10 39.563 10.0642 39.7039 10.1925 39.832C10.3205 39.9603 10.4615 40.0244 10.6155 40.0244H22.85C23.2757 40.0244 23.6322 40.1681 23.9195 40.4554C24.2065 40.7424 24.35 41.0988 24.35 41.5244C24.35 41.9501 24.2065 42.3064 23.9195 42.5934C23.6322 42.8808 23.2757 43.0244 22.85 43.0244H10.6155Z" fill="#D63457"/>
<path d="M36.3778 45.0244C34.861 45.0244 33.4689 44.6882 32.2015 44.0159C30.9341 43.3435 29.8942 42.4353 29.0817 41.2913L32.5615 37.8244L35.1751 40.0798L39.6085 35.6463V38.0345H41.2684V32.8728H36.1065V34.5327H38.4949L35.119 37.8945L32.4995 35.6392L28.2551 39.8976C27.9657 39.3093 27.7486 38.6906 27.6038 38.0416C27.4591 37.3925 27.3867 36.7255 27.3867 36.0405C27.3867 34.7767 27.6208 33.599 28.0889 32.5074C28.5569 31.4159 29.1971 30.4653 30.0094 29.6557C30.8218 28.846 31.7739 28.2051 32.8657 27.7329C33.9575 27.2606 35.1277 27.0244 36.3765 27.0244C37.6347 27.0244 38.8105 27.2602 39.904 27.7319C40.9975 28.2034 41.9488 28.8433 42.7577 29.6517C43.5666 30.4601 44.2069 31.4107 44.6788 32.5034C45.1508 33.5963 45.3867 34.7723 45.3867 36.0315C45.3867 37.2807 45.1505 38.4514 44.6782 39.5437C44.206 40.6361 43.5651 41.5885 42.7554 42.4011C41.9458 43.2138 40.995 43.8542 39.9031 44.3222C38.8112 44.7903 37.6361 45.0244 36.3778 45.0244Z" fill="#365D96"/>
</g>
</svg>
