<svg width="48" height="48" viewBox="0 0 48 48" fill="none" xmlns="http://www.w3.org/2000/svg">
<mask id="mask0_2088_54548" style="mask-type:alpha" maskUnits="userSpaceOnUse" x="0" y="0" width="48" height="48">
<rect width="48" height="48" fill="#D9D9D9"/>
</mask>
<g mask="url(#mask0_2088_54548)">
<path d="M18.8086 43.4979V17.1054C16.0443 16.4721 13.7988 15.0376 12.0721 12.8019C10.3451 10.5659 9.42393 8.02876 9.30859 5.19043H12.3081C12.4364 7.77743 13.3731 9.9626 15.1181 11.7459C16.8628 13.5293 18.9903 14.4209 21.5006 14.4209H26.5006C27.3853 14.4209 28.1776 14.5691 28.8776 14.8654C29.5776 15.1614 30.2391 15.6209 30.8621 16.2439L39.6236 25.0054L37.5161 27.1134L29.1926 18.7899V43.4979H26.1931V31.6134H21.8081V43.4979H18.8086Z" fill="#365D96"/>
<path d="M21.3876 10.6888C22.1069 11.4078 22.9781 11.7673 24.0011 11.7673C25.0241 11.7673 25.8953 11.4078 26.6146 10.6888C27.3339 9.96948 27.6936 9.09831 27.6936 8.07531C27.6936 7.05231 27.3339 6.18115 26.6146 5.46181C25.8953 4.74248 25.0241 4.38281 24.0011 4.38281C22.9781 4.38281 22.1069 4.74248 21.3876 5.46181C20.6683 6.18115 20.3086 7.05231 20.3086 8.07531C20.3086 9.09831 20.6683 9.96948 21.3876 10.6888Z" fill="#D63457"/>
</g>
</svg>
