<svg width="48" height="49" viewBox="0 0 48 49" fill="none" xmlns="http://www.w3.org/2000/svg">
<path fill-rule="evenodd" clip-rule="evenodd" d="M25.4021 34.2322V38.6668H43.5805V34.2322H25.4021ZM32.2742 17.6598V30.9091H36.7084V17.6598L40.6214 21.5673L43.7326 18.4561L34.4913 9.21484L25.25 18.4561L28.3611 21.5673L32.2742 17.6598ZM36.3084 16.6962L36.3071 16.6949V30.5088H32.6742V30.5091H36.3084V16.6962ZM32.6729 16.6964V16.6949L28.3606 21.001L28.3613 21.0018L32.6729 16.6964ZM34.4908 9.78105L34.4913 9.78053L43.1669 18.4561L40.6212 21.0018L40.6205 21.001L43.1656 18.4559L34.4908 9.78105ZM43.1805 34.6322V38.2668H25.8021V38.2666H43.1792V34.6322H43.1805Z" fill="#D63457"/>
<path fill-rule="evenodd" clip-rule="evenodd" d="M22.6039 13.8164V9.38184H4.42552L4.42552 13.8164L22.6039 13.8164ZM15.7318 30.3888L15.7318 17.1396L11.2976 17.1396L11.2976 30.3888L7.38458 26.4814L4.27344 29.5925L13.5147 38.8338L22.756 29.5925L19.6449 26.4814L15.7318 30.3888ZM15.3292 17.5396L15.3292 31.3528L15.3318 31.3502L15.3318 17.5396H15.3292ZM19.644 27.0481L22.1877 29.5918L13.5131 38.2665L13.5147 38.2681L22.1903 29.5925L19.6449 27.0471L19.644 27.0481ZM7.38417 27.0482L11.695 31.3528V31.3509L7.38511 27.0472L7.38417 27.0482ZM22.2013 9.78184H22.2039V13.4164L4.82552 13.4164V13.4157L22.2013 13.4157V9.78184Z" fill="#365D96"/>
</svg>
