<svg width="49" height="49" viewBox="0 0 49 49" fill="none" xmlns="http://www.w3.org/2000/svg">
<mask id="mask0_4231_102628" style="mask-type:alpha" maskUnits="userSpaceOnUse" x="0" y="0" width="49" height="49">
<rect x="0.363281" y="0.0693359" width="48" height="48" fill="#D9D9D9"/>
</mask>
<g mask="url(#mask0_4231_102628)">
<path d="M31.3447 41.0167V39.0754H32.9182L32.8569 38.9936C32.1485 38.2716 31.6274 37.4917 31.2936 36.6538C30.9599 35.816 30.793 34.968 30.793 34.1097C30.793 32.3796 31.3515 30.8606 32.4686 29.5528C33.5857 28.2449 35.0025 27.4275 36.7191 27.1006V29.7571C35.7246 29.9887 34.9174 30.5166 34.2975 31.3408C33.6777 32.165 33.3678 33.088 33.3678 34.1097C33.3678 34.641 33.4733 35.1655 33.6845 35.6832C33.8957 36.2009 34.2192 36.6913 34.6551 37.1545L34.696 37.1954V35.7036H36.6373V41.0167H31.3447ZM38.9669 41.0371V38.3806C39.9614 38.149 40.7685 37.6211 41.3884 36.7969C42.0083 35.9727 42.3182 35.0497 42.3182 34.028C42.3182 33.4967 42.2126 32.9722 42.0014 32.4545C41.7903 31.9368 41.4667 31.4464 41.0308 30.9832L40.9899 30.9423V32.4341H39.0486V27.121H44.3412V29.0623H42.7678L42.8291 29.1441C43.5375 29.8661 44.0585 30.646 44.3923 31.4838C44.7261 32.3217 44.893 33.1697 44.893 34.028C44.893 35.7581 44.3344 37.2771 43.2173 38.5849C42.1002 39.8928 40.6834 40.7102 38.9669 41.0371Z" fill="#375D96"/>
<path d="M20.4315 43.2281C15.3606 38.8341 11.558 34.745 9.02387 30.9605C6.48973 27.1758 5.22266 23.7012 5.22266 20.5367C5.22266 15.8868 6.72682 12.1224 9.73515 9.24336C12.7431 6.36432 16.3086 4.9248 20.4315 4.9248C24.5545 4.9248 28.1201 6.36432 31.1284 9.24336C34.1364 12.1224 35.6404 15.8868 35.6404 20.5367V21.3835C35.6404 21.6793 35.6068 21.9718 35.5397 22.261C33.8555 22.6693 32.3785 23.363 31.1088 24.3419C29.8394 25.3212 28.8106 26.4941 28.0224 27.8605C27.2345 29.227 26.7283 30.7013 26.5036 32.2834C26.2789 33.8658 26.3965 35.4682 26.8562 37.0905C25.934 38.0799 24.9376 39.086 23.867 40.1089C22.7961 41.1319 21.6509 42.1716 20.4315 43.2281ZM20.4315 29.608C22.1315 29.608 23.6756 29.2043 25.0639 28.397C26.4526 27.5897 27.5705 26.5209 28.4178 25.1907C27.3069 24.333 26.0741 23.6795 24.7194 23.2302C23.3643 22.7805 21.935 22.5557 20.4315 22.5557C18.928 22.5557 17.4989 22.7805 16.1442 23.2302C14.7892 23.6795 13.5563 24.333 12.4458 25.1907C13.2931 26.5209 14.4108 27.5897 15.7992 28.397C17.1878 29.2043 18.7319 29.608 20.4315 29.608ZM20.4315 19.5332C21.4108 19.5332 22.2433 19.1903 22.9291 18.5046C23.6148 17.8185 23.9577 16.986 23.9577 16.0071C23.9577 15.0281 23.6148 14.1956 22.9291 13.5095C22.2433 12.8238 21.4108 12.4809 20.4315 12.4809C19.4526 12.4809 18.6203 12.8238 17.9345 13.5095C17.2484 14.1956 16.9054 15.0281 16.9054 16.0071C16.9054 16.986 17.2484 17.8185 17.9345 18.5046C18.6203 19.1903 19.4526 19.5332 20.4315 19.5332Z" fill="#D63457"/>
</g>
</svg>
