<svg width="48" height="48" viewBox="0 0 48 48" fill="none" xmlns="http://www.w3.org/2000/svg">
<mask id="mask0_2088_54561" style="mask-type:alpha" maskUnits="userSpaceOnUse" x="0" y="0" width="48" height="48">
<rect width="48" height="48" fill="#D9D9D9"/>
</mask>
<g mask="url(#mask0_2088_54561)">
<path d="M20.098 43.02C15.0646 38.6586 11.2903 34.5998 8.77495 30.8435C6.25962 27.0868 5.00195 23.638 5.00195 20.497C5.00195 15.8816 6.49495 12.1451 9.48095 9.28748C12.4666 6.42981 16.0056 5.00098 20.098 5.00098C24.1903 5.00098 27.7295 6.42981 30.7155 9.28748C33.7011 12.1451 35.194 15.8816 35.194 20.497V21.3375C35.194 21.6311 35.1606 21.9215 35.094 22.2085C33.4223 22.6138 31.9563 23.3023 30.696 24.274C29.436 25.246 28.4148 26.4101 27.6325 27.7665C26.8504 29.1228 26.348 30.5861 26.125 32.1565C25.902 33.7271 26.0186 35.3176 26.475 36.928C25.5596 37.91 24.5706 38.9086 23.508 39.924C22.445 40.9393 21.3083 41.9713 20.098 43.02ZM20.098 29.501C21.7853 29.501 23.318 29.1003 24.696 28.299C26.0743 27.4976 27.184 26.4368 28.025 25.1165C26.9223 24.2651 25.6986 23.6165 24.354 23.1705C23.009 22.7241 21.5903 22.501 20.098 22.501C18.6056 22.501 17.1871 22.7241 15.8425 23.1705C14.4975 23.6165 13.2738 24.2651 12.1715 25.1165C13.0125 26.4368 14.122 27.4976 15.5 28.299C16.8783 29.1003 18.411 29.501 20.098 29.501ZM20.098 19.501C21.07 19.501 21.8963 19.1606 22.577 18.48C23.2576 17.799 23.598 16.9726 23.598 16.001C23.598 15.0293 23.2576 14.203 22.577 13.522C21.8963 12.8413 21.07 12.501 20.098 12.501C19.1263 12.501 18.3001 12.8413 17.6195 13.522C16.9385 14.203 16.598 15.0293 16.598 16.001C16.598 16.9726 16.9385 17.799 17.6195 18.48C18.3001 19.1606 19.1263 19.501 20.098 19.501Z" fill="#D63457"/>
<path d="M35.9719 38.9134L38.0794 41.0019L45.3679 33.7134L38.0794 26.4249L35.9719 28.5134L39.6219 32.2134H30.5794V35.2134H39.6219L35.9719 38.9134Z" fill="#375D96"/>
</g>
</svg>
