<svg width="48" height="49" viewBox="0 0 48 49" fill="none" xmlns="http://www.w3.org/2000/svg">
<mask id="mask0_6554_104288" style="mask-type:alpha" maskUnits="userSpaceOnUse" x="0" y="0" width="48" height="49">
<rect y="0.0244141" width="48" height="48" fill="#D9D9D9"/>
</mask>
<g mask="url(#mask0_6554_104288)">
<path d="M10.6155 43.0244C9.60517 43.0244 8.75 42.6744 8.05 41.9744C7.35 41.2744 7 40.4193 7 39.409V12.6399C7 11.6296 7.35 10.7744 8.05 10.0744C8.75 9.37444 9.60517 9.02445 10.6155 9.02445H13.3845V4.79395H16.4615V9.02445H31.6155V4.79395H34.6155V9.02445H37.3845C38.3948 9.02445 39.25 9.37444 39.95 10.0744C40.65 10.7744 41 11.6296 41 12.6399V22.0669C41 22.4926 40.8563 22.8489 40.569 23.1359C40.282 23.4233 39.9257 23.5669 39.5 23.5669C39.0743 23.5669 38.718 23.4233 38.431 23.1359C38.1437 22.8489 38 22.4926 38 22.0669V20.6399H10V39.409C10 39.563 10.0642 39.7039 10.1925 39.832C10.3205 39.9603 10.4615 40.0244 10.6155 40.0244H22.85C23.2757 40.0244 23.6322 40.1681 23.9195 40.4554C24.2065 40.7424 24.35 41.0988 24.35 41.5244C24.35 41.9501 24.2065 42.3064 23.9195 42.5934C23.6322 42.8808 23.2757 43.0244 22.85 43.0244H10.6155Z" fill="#D63457"/>
<path fill-rule="evenodd" clip-rule="evenodd" d="M36.3867 45.0244C33.8894 45.0244 31.7651 44.1488 30.0137 42.3974C28.2624 40.6461 27.3867 38.5217 27.3867 36.0244C27.3867 33.5271 28.2624 31.4027 30.0137 29.6514C31.7651 27.9001 33.8894 27.0244 36.3867 27.0244C38.8844 27.0244 41.0087 27.9001 42.7597 29.6514C44.5111 31.4027 45.3867 33.5271 45.3867 36.0244C45.3867 38.5217 44.5111 40.6461 42.7597 42.3974C41.0087 44.1488 38.8844 45.0244 36.3867 45.0244ZM39.7163 40.6008L40.9623 39.3548L37.2703 35.6623V30.1393H35.5008V36.3853L39.7163 40.6008Z" fill="#365D96"/>
</g>
</svg>
