<svg width="49" height="49" viewBox="0 0 49 49" fill="none" xmlns="http://www.w3.org/2000/svg">
<mask id="mask0_4231_100499" style="mask-type:alpha" maskUnits="userSpaceOnUse" x="0" y="0" width="49" height="49">
<rect x="0.472656" y="0.569336" width="48" height="48" fill="#D9D9D9"/>
</mask>
<g mask="url(#mask0_4231_100499)">
<path d="M19.4727 11.5693C18.3727 11.5693 17.431 11.1777 16.6477 10.3943C15.8643 9.611 15.4727 8.66934 15.4727 7.56934C15.4727 6.46934 15.8643 5.52767 16.6477 4.74434C17.431 3.961 18.3727 3.56934 19.4727 3.56934C20.5727 3.56934 21.5143 3.961 22.2977 4.74434C23.081 5.52767 23.4727 6.46934 23.4727 7.56934C23.4727 8.66934 23.081 9.611 22.2977 10.3943C21.5143 11.1777 20.5727 11.5693 19.4727 11.5693ZM6.47266 46.5693L11.9727 18.3693L8.47266 19.8693V26.5693H4.47266V17.1693L14.9727 12.8693C15.8727 12.5027 16.7893 12.461 17.7227 12.7443C18.656 13.0277 19.3727 13.6027 19.8727 14.4693L21.7727 17.6693C22.6727 19.136 23.881 20.3193 25.3977 21.2193C26.9143 22.1193 28.606 22.5693 30.4727 22.5693V26.5693C28.2727 26.5693 26.231 26.1027 24.3477 25.1693C22.4643 24.236 20.8727 22.9693 19.5727 21.3693L18.3727 27.3693L22.4727 31.4693V46.5693H18.4727V34.5693L14.1727 30.5693L10.6727 46.5693H6.47266ZM33.9727 46.5693V18.5693H26.4727V4.56934H44.4727V18.5693H36.9727V46.5693H33.9727ZM36.5227 16.5193L41.4727 11.5693L36.5227 6.61934L34.3727 8.76934L35.6727 10.0693H29.4727V13.0693H35.6727L34.3727 14.3693L36.5227 16.5193Z" fill="#D63457"/>
<path d="M16.6477 10.3943C17.431 11.1777 18.3727 11.5693 19.4727 11.5693C20.5727 11.5693 21.5143 11.1777 22.2977 10.3943C23.081 9.611 23.4727 8.66934 23.4727 7.56934C23.4727 6.46934 23.081 5.52767 22.2977 4.74434C21.5143 3.961 20.5727 3.56934 19.4727 3.56934C18.3727 3.56934 17.431 3.961 16.6477 4.74434C15.8643 5.52767 15.4727 6.46934 15.4727 7.56934C15.4727 8.66934 15.8643 9.611 16.6477 10.3943Z" fill="#365D96"/>
<path d="M11.9727 18.3693L6.47266 46.5693H10.6727L14.1727 30.5693L18.4727 34.5693V46.5693H22.4727V31.4693L18.3727 27.3693L19.5727 21.3693C20.8727 22.9693 22.4643 24.236 24.3477 25.1693C26.231 26.1027 28.2727 26.5693 30.4727 26.5693V22.5693C28.606 22.5693 26.9143 22.1193 25.3977 21.2193C23.881 20.3193 22.6727 19.136 21.7727 17.6693L19.8727 14.4693C19.3727 13.6027 18.656 13.0277 17.7227 12.7443C16.7893 12.461 15.8727 12.5027 14.9727 12.8693L4.47266 17.1693V26.5693H8.47266V19.8693L11.9727 18.3693Z" fill="#365D96"/>
</g>
</svg>
