<svg width="56" height="56" viewBox="0 0 56 56" fill="none" xmlns="http://www.w3.org/2000/svg">
<mask id="mask0_6448_142099" style="mask-type:alpha" maskUnits="userSpaceOnUse" x="0" y="0" width="56" height="56">
<rect x="0.5" y="0.524414" width="55" height="55" fill="#D9D9D9"/>
</mask>
<g mask="url(#mask0_6448_142099)">
<path d="M9.61828 21.6779V10.0431H13.0558V15.4726C14.9155 13.278 17.1426 11.5747 19.7371 10.3628C22.3313 9.15088 25.0695 8.54492 27.9516 8.54492C33.3577 8.54492 37.9557 10.4399 41.7457 14.23C45.5358 18.02 47.4308 22.618 47.4308 28.0241V28.3329H43.9933V28.0241C43.9933 23.5553 42.4369 19.7645 39.324 16.6517C36.2112 13.5388 32.4204 11.9824 27.9516 11.9824C25.4484 11.9824 23.1025 12.5385 20.9139 13.6508C18.725 14.7626 16.8401 16.2925 15.2592 18.2404H21.2531V21.6779H9.61828ZM8.60938 30.3158H12.1173C12.6196 33.8972 14.1245 36.9308 16.6319 39.4165C19.1398 41.9018 22.1419 43.3899 25.6382 43.8807L27.727 47.5033C22.8381 47.4299 18.5691 45.7633 14.9201 42.5034C11.271 39.2435 9.1674 35.181 8.60938 30.3158ZM31.7506 34.1721L26.2993 28.7202V16.5658H29.7363V27.328L33.5616 31.1534L31.7506 34.1721Z" fill="#365D96"/>
<path d="M41.4613 47.69L48.6775 40.474L47.0993 38.8897L41.4613 44.5277L38.6534 41.7197L37.0754 43.304L41.4613 47.69ZM42.8945 53.2324C41.4642 53.2324 40.1222 52.9619 38.8684 52.4208C37.6144 51.8798 36.5237 51.1456 35.5962 50.2182C34.6689 49.2907 33.9347 48.2 33.3936 46.9461C32.8526 45.6923 32.582 44.3502 32.582 42.9199C32.582 41.4896 32.8526 40.1476 33.3936 38.8938C33.9347 37.6398 34.6689 36.5491 35.5962 35.6216C36.5237 34.6943 37.6144 33.9601 38.8684 33.419C40.1222 32.878 41.4642 32.6074 42.8945 32.6074C44.3249 32.6074 45.6669 32.878 46.9207 33.419C48.1746 33.9601 49.2654 34.6943 50.1929 35.6216C51.1202 36.5491 51.8544 37.6398 52.3954 38.8938C52.9365 40.1476 53.207 41.4896 53.207 42.9199C53.207 44.3502 52.9365 45.6923 52.3954 46.9461C51.8544 48.2 51.1202 49.2907 50.1929 50.2182C49.2654 51.1456 48.1746 51.8798 46.9207 52.4208C45.6669 52.9619 44.3249 53.2324 42.8945 53.2324Z" fill="#D63457"/>
</g>
</svg>
