<svg width="49" height="49" viewBox="0 0 49 49" fill="none" xmlns="http://www.w3.org/2000/svg">
<mask id="mask0_4231_102594" style="mask-type:alpha" maskUnits="userSpaceOnUse" x="0" y="0" width="49" height="49">
<rect x="0.472656" y="0.569336" width="48" height="48" fill="#D9D9D9"/>
</mask>
<g mask="url(#mask0_4231_102594)">
<path d="M11.0882 43.6846C10.0778 43.6846 9.22266 43.3346 8.52266 42.6346C7.82266 41.9346 7.47266 41.0794 7.47266 40.0691V13.3001C7.47266 12.2898 7.82266 11.4346 8.52266 10.7346C9.22266 10.0346 10.0778 9.6846 11.0882 9.6846H13.8572V5.4541H16.9342V9.6846H32.0882V5.4541H35.0882V9.6846H37.8572C38.8675 9.6846 39.7227 10.0346 40.4227 10.7346C41.1227 11.4346 41.4727 12.2898 41.4727 13.3001V40.0691C41.4727 41.0794 41.1227 41.9346 40.4227 42.6346C39.7227 43.3346 38.8675 43.6846 37.8572 43.6846H11.0882ZM11.0882 40.6846H37.8572C38.0112 40.6846 38.1522 40.6204 38.2802 40.4921C38.4085 40.3641 38.4727 40.2231 38.4727 40.0691V21.3001H10.4727V40.0691C10.4727 40.2231 10.5368 40.3641 10.6652 40.4921C10.7932 40.6204 10.9342 40.6846 11.0882 40.6846Z" fill="#365D96"/>
<path d="M23.224 28.1997C23.569 28.5447 23.9864 28.7172 24.476 28.7172C24.9657 28.7172 25.383 28.5447 25.728 28.1997C26.0727 27.855 26.245 27.4377 26.245 26.9477C26.245 26.458 26.0727 26.0407 25.728 25.6957C25.383 25.351 24.9657 25.1787 24.476 25.1787C23.9864 25.1787 23.569 25.351 23.224 25.6957C22.8794 26.0407 22.707 26.458 22.707 26.9477C22.707 27.4377 22.8794 27.855 23.224 28.1997Z" fill="#365D96"/>
<path d="M15.224 28.1997C15.569 28.5447 15.9864 28.7172 16.476 28.7172C16.9657 28.7172 17.383 28.5447 17.728 28.1997C18.0727 27.855 18.245 27.4377 18.245 26.9477C18.245 26.458 18.0727 26.0407 17.728 25.6957C17.383 25.351 16.9657 25.1787 16.476 25.1787C15.9864 25.1787 15.569 25.351 15.224 25.6957C14.8794 26.0407 14.707 26.458 14.707 26.9477C14.707 27.4377 14.8794 27.855 15.224 28.1997Z" fill="#365D96"/>
<path d="M23.224 36.0457C23.569 36.3907 23.9864 36.5632 24.476 36.5632C24.9657 36.5632 25.383 36.3907 25.728 36.0457C26.0727 35.701 26.245 35.2839 26.245 34.7942C26.245 34.3042 26.0727 33.8869 25.728 33.5422C25.383 33.1972 24.9657 33.0247 24.476 33.0247C23.9864 33.0247 23.569 33.1972 23.224 33.5422C22.8794 33.8869 22.707 34.3042 22.707 34.7942C22.707 35.2839 22.8794 35.701 23.224 36.0457Z" fill="#365D96"/>
<path d="M15.224 36.0457C15.569 36.3907 15.9864 36.5632 16.476 36.5632C16.9657 36.5632 17.383 36.3907 17.728 36.0457C18.0727 35.701 18.245 35.2839 18.245 34.7942C18.245 34.3042 18.0727 33.8869 17.728 33.5422C17.383 33.1972 16.9657 33.0247 16.476 33.0247C15.9864 33.0247 15.569 33.1972 15.224 33.5422C14.8794 33.8869 14.707 34.3042 14.707 34.7942C14.707 35.2839 14.8794 35.701 15.224 36.0457Z" fill="#365D96"/>
<path d="M31.7631 28.1997C32.1081 28.5447 32.5254 28.7172 33.0151 28.7172C33.5048 28.7172 33.9221 28.5447 34.2671 28.1997C34.6118 27.855 34.7841 27.4377 34.7841 26.9477C34.7841 26.458 34.6118 26.0407 34.2671 25.6957C33.9221 25.351 33.5048 25.1787 33.0151 25.1787C32.5254 25.1787 32.1081 25.351 31.7631 25.6957C31.4184 26.0407 31.2461 26.458 31.2461 26.9477C31.2461 27.4377 31.4184 27.855 31.7631 28.1997Z" fill="#D63457"/>
<path d="M31.7631 36.0457C32.1081 36.3907 32.5254 36.5632 33.0151 36.5632C33.5048 36.5632 33.9221 36.3907 34.2671 36.0457C34.6118 35.701 34.7841 35.2839 34.7841 34.7942C34.7841 34.3042 34.6118 33.8869 34.2671 33.5422C33.9221 33.1972 33.5048 33.0247 33.0151 33.0247C32.5254 33.0247 32.1081 33.1972 31.7631 33.5422C31.4184 33.8869 31.2461 34.3042 31.2461 34.7942C31.2461 35.2839 31.4184 35.701 31.7631 36.0457Z" fill="#D63457"/>
</g>
</svg>
