<svg width="48" height="49" viewBox="0 0 48 49" fill="none" xmlns="http://www.w3.org/2000/svg">
<mask id="mask0_6448_142187" style="mask-type:alpha" maskUnits="userSpaceOnUse" x="0" y="0" width="48" height="49">
<rect y="0.0244141" width="48" height="48" fill="#D9D9D9"/>
</mask>
<g mask="url(#mask0_6448_142187)">
<path d="M3 37.0244V9.02441H6V28.0244H22.5V13.0244H38C39.925 13.0244 41.5728 13.7099 42.9435 15.0809C44.3145 16.4516 45 18.0994 45 20.0244V37.0244H42V31.0244H6V37.0244H3Z" fill="#D63457"/>
<path d="M10.3772 23.6462C11.3709 24.6415 12.5784 25.1392 13.9997 25.1392C15.4214 25.1392 16.6297 24.6424 17.6247 23.6487C18.6201 22.655 19.1177 21.4475 19.1177 20.0262C19.1177 18.6045 18.6209 17.3962 17.6272 16.4012C16.6336 15.4059 15.4261 14.9082 14.0047 14.9082C12.5831 14.9082 11.3747 15.405 10.3797 16.3987C9.38438 17.3924 8.88672 18.5999 8.88672 20.0212C8.88672 21.4429 9.38355 22.6512 10.3772 23.6462Z" fill="#365D96"/>
</g>
</svg>
