<svg width="54" height="54" viewBox="0 0 54 54" fill="none" xmlns="http://www.w3.org/2000/svg">
<path d="M15.7582 22.0933L13.3984 19.744L23.7375 9.43668L28.9649 14.6645L34.9334 8.65348H31.452V5.30957H40.5951V14.4422H37.2722V11.024L28.944 19.384L23.7162 14.1565L15.7582 22.0933Z" fill="#365D96"/>
<path d="M26.9982 27.7746H42.6523C43.7885 27.7746 44.7601 28.181 45.5671 28.9937C46.3741 29.8064 46.7776 30.7752 46.7776 31.9V48.7375H43.4639V42.4556H10.5325V48.7375H7.21875V24.5664H10.5325V39.1419H26.9982V27.7746Z" fill="#D63457"/>
<path d="M15.6008 28.9417C14.7445 29.8032 14.3164 30.8601 14.3164 32.1123C14.3164 33.3641 14.7445 34.4181 15.6008 35.2744C16.4565 36.1302 17.5106 36.5581 18.7628 36.5581C20.0151 36.5581 21.072 36.1302 21.9335 35.2744C22.795 34.4181 23.2257 33.3641 23.2257 32.1123C23.2257 30.8601 22.795 29.8032 21.9335 28.9417C21.072 28.0802 20.0151 27.6494 18.7628 27.6494C17.5106 27.6494 16.4565 28.0802 15.6008 28.9417Z" fill="#365D96"/>
</svg>
