<svg width="48" height="48" viewBox="0 0 48 48" fill="none" xmlns="http://www.w3.org/2000/svg">
<mask id="mask0_2088_54533" style="mask-type:alpha" maskUnits="userSpaceOnUse" x="0" y="0" width="48" height="48">
<rect width="48" height="48" fill="#D9D9D9"/>
</mask>
<g mask="url(#mask0_2088_54533)">
<path d="M3.83984 34.3841V38.8306H33.8393V34.3841C33.8393 33.3534 33.5733 32.4336 33.0413 31.6246C32.5093 30.8156 31.7988 30.1863 30.9098 29.7366C29.0092 28.8069 27.0978 28.0901 25.1758 27.5861C23.2542 27.0824 21.142 26.8306 18.8393 26.8306C16.537 26.8306 14.4248 27.0824 12.5028 27.5861C10.5812 28.0901 8.67001 28.8069 6.76934 29.7366C5.88034 30.1863 5.16984 30.8156 4.63784 31.6246C4.10584 32.4336 3.83984 33.3534 3.83984 34.3841Z" fill="#D63457"/>
<path d="M13.8958 21.5436C15.2665 22.9143 16.9143 23.5996 18.8393 23.5996C20.7643 23.5996 22.4123 22.9143 23.7833 21.5436C25.154 20.1726 25.8393 18.5246 25.8393 16.5996C25.8393 14.6746 25.154 13.0268 23.7833 11.6561C22.4123 10.2851 20.7643 9.59961 18.8393 9.59961C16.9143 9.59961 15.2665 10.2851 13.8958 11.6561C12.5252 13.0268 11.8398 14.6746 11.8398 16.5996C11.8398 18.5246 12.5252 20.1726 13.8958 21.5436Z" fill="#D63457"/>
<path d="M37.5922 38.6138V33.9213C37.5922 32.6086 37.2708 31.3575 36.6282 30.1678C35.9852 28.9785 35.0732 27.958 33.8922 27.1063C35.2332 27.3063 36.5063 27.6158 37.7117 28.0348C38.9167 28.4541 40.0667 28.9496 41.1617 29.5213C42.195 30.0726 42.993 30.7225 43.5557 31.4708C44.1183 32.2188 44.3997 33.0356 44.3997 33.9213V38.6138H37.5922ZM35.8612 16.3828C35.8612 18.3078 35.1758 19.9558 33.8052 21.3268C32.4345 22.6975 30.7867 23.3828 28.8617 23.3828C28.636 23.3828 28.3488 23.3571 28.0002 23.3058C27.6512 23.2545 27.364 23.1981 27.1387 23.1368C27.9273 22.1885 28.5335 21.1365 28.9572 19.9808C29.3805 18.8251 29.5922 17.6251 29.5922 16.3808C29.5922 15.1361 29.3762 13.9406 28.9442 12.7943C28.5122 11.6483 27.9103 10.5933 27.1387 9.62931C27.4257 9.52665 27.7128 9.45998 28.0002 9.42931C28.2872 9.39831 28.5743 9.38281 28.8617 9.38281C30.7867 9.38281 32.4345 10.0683 33.8052 11.4393C35.1758 12.81 35.8612 14.4578 35.8612 16.3828Z" fill="#365D96"/>
</g>
</svg>
