<svg width="49" height="49" viewBox="0 0 49 49" fill="none" xmlns="http://www.w3.org/2000/svg">
<mask id="mask0_4231_105297" style="mask-type:alpha" maskUnits="userSpaceOnUse" x="0" y="0" width="49" height="49">
<rect x="0.363281" y="0.0976562" width="48" height="48" fill="#D9D9D9"/>
</mask>
<g mask="url(#mask0_4231_105297)">
<path d="M8.86328 47.0986C8.43828 47.0986 8.08211 46.9548 7.79478 46.6671C7.50711 46.3798 7.36328 46.0236 7.36328 45.5986V30.2526L11.4478 18.5986C11.5968 18.1396 11.8699 17.775 12.2673 17.5046C12.6646 17.234 13.1069 17.0986 13.5943 17.0986H35.2093C35.6773 17.0986 36.1023 17.2361 36.4843 17.5111C36.8659 17.7861 37.1308 18.1486 37.2788 18.5986L41.3633 30.2526V45.5986C41.3633 46.0236 41.2194 46.3798 40.9318 46.6671C40.6444 46.9548 40.2883 47.0986 39.8633 47.0986H38.6328C38.2078 47.0986 37.8514 46.9548 37.5638 46.6671C37.2764 46.3798 37.1328 46.0236 37.1328 45.5986V43.0986H11.5938V45.5986C11.5938 46.0236 11.4501 46.3798 11.1628 46.6671C10.8751 46.9548 10.5188 47.0986 10.0938 47.0986H8.86328ZM11.5788 27.2526H37.1478L34.6248 20.0986H14.1018L11.5788 27.2526ZM15.2908 37.7911C16.0184 37.7911 16.6356 37.5363 17.1423 37.0266C17.6486 36.5173 17.9018 35.8988 17.9018 35.1711C17.9018 34.4435 17.6471 33.8263 17.1378 33.3196C16.6281 32.8133 16.0094 32.5601 15.2818 32.5601C14.5541 32.5601 13.9371 32.8148 13.4308 33.3241C12.9241 33.8338 12.6708 34.4525 12.6708 35.1801C12.6708 35.9078 12.9256 36.5248 13.4353 37.0311C13.9446 37.5378 14.5631 37.7911 15.2908 37.7911ZM33.4448 37.7911C34.1724 37.7911 34.7894 37.5363 35.2958 37.0266C35.8024 36.5173 36.0558 35.8988 36.0558 35.1711C36.0558 34.4435 35.8009 33.8263 35.2913 33.3196C34.7819 32.8133 34.1634 32.5601 33.4358 32.5601C32.7081 32.5601 32.0909 32.8148 31.5843 33.3241C31.0779 33.8338 30.8248 34.4525 30.8248 35.1801C30.8248 35.9078 31.0794 36.5248 31.5888 37.0311C32.0984 37.5378 32.7171 37.7911 33.4448 37.7911Z" fill="#365D96"/>
<path d="M11.0742 7.47578L16.3627 12.7643L18.4512 10.6758L13.1627 5.38728L11.0742 7.47578Z" fill="#D63457"/>
<path d="M30.2742 10.6758L32.3627 12.7643L37.6512 7.47578L35.5627 5.38728L30.2742 10.6758Z" fill="#D63457"/>
<path d="M22.8627 1.17578V10.1758H25.8627V1.17578H22.8627Z" fill="#D63457"/>
</g>
</svg>
