<svg width="48" height="48" viewBox="0 0 48 48" fill="none" xmlns="http://www.w3.org/2000/svg">
<mask id="mask0_2088_54558" style="mask-type:alpha" maskUnits="userSpaceOnUse" x="0" y="0" width="48" height="48">
<rect width="48" height="48" fill="#D9D9D9"/>
</mask>
<g mask="url(#mask0_2088_54558)">
<path d="M24.0035 43C21.3755 43 18.9053 42.5013 16.593 41.504C14.2807 40.5067 12.2693 39.1532 10.559 37.4435C8.84867 35.7338 7.4945 33.7233 6.4965 31.412C5.49883 29.1007 5 26.6312 5 24.0035C5 21.3755 5.49867 18.9053 6.496 16.593C7.49333 14.2807 8.84683 12.2693 10.5565 10.559C12.2662 8.84867 14.2767 7.4945 16.588 6.4965C18.8993 5.49883 21.3688 5 23.9965 5C26.6245 5 29.0947 5.49867 31.407 6.496C33.7193 7.49333 35.7307 8.84683 37.441 10.5565C39.1513 12.2662 40.5055 14.2767 41.5035 16.588C42.5012 18.8993 43 21.3688 43 23.9965C43 26.6245 42.5013 29.0947 41.504 31.407C40.5067 33.7193 39.1532 35.7307 37.4435 37.441C35.7338 39.1513 33.7233 40.5055 31.412 41.5035C29.1007 42.5012 26.6312 43 24.0035 43ZM22 39.9V36C20.9 36 19.9583 35.6083 19.175 34.825C18.3917 34.0417 18 33.1 18 32V30L8.4 20.4C8.3 21 8.20833 21.6 8.125 22.2C8.04167 22.8 8 23.4 8 24C8 28.0333 9.325 31.5667 11.975 34.6C14.625 37.6333 17.9667 39.4 22 39.9ZM35.8 34.8C36.4667 34.0667 37.0667 33.275 37.6 32.425C38.1333 31.575 38.575 30.6917 38.925 29.775C39.275 28.8583 39.5417 27.9167 39.725 26.95C39.9083 25.9833 40 25 40 24C40 20.7237 39.0948 17.7315 37.2845 15.0235C35.4742 12.3155 33.046 10.3615 30 9.1615V10C30 11.1 29.6083 12.0417 28.825 12.825C28.0417 13.6083 27.1 14 26 14H22V18C22 18.5667 21.8083 19.0417 21.425 19.425C21.0417 19.8083 20.5667 20 20 20H16V24H28C28.5667 24 29.0417 24.1917 29.425 24.575C29.8083 24.9583 30 25.4333 30 26V32H32C32.8667 32 33.65 32.2583 34.35 32.775C35.05 33.2917 35.5333 33.9667 35.8 34.8Z" fill="#365D96"/>
</g>
</svg>
