<svg width="49" height="49" viewBox="0 0 49 49" fill="none" xmlns="http://www.w3.org/2000/svg">
<path d="M4.46964 42.6762L9.52037 16.4755L5.9578 18.0989V24.232H2.21484V15.5285L11.3693 11.7404C12.3013 11.3496 13.2934 11.2519 14.3456 11.4473C15.3979 11.6427 16.1945 12.1914 16.7357 13.0933L18.7199 16.0696C19.5316 17.3323 20.5914 18.3921 21.8992 19.2489C23.207 20.1057 24.7477 20.5341 26.5215 20.5341V24.232C24.6575 24.232 22.8838 23.8637 21.2002 23.1271C19.5166 22.3905 18.0284 21.1504 16.7357 19.4067L15.2475 25.0888L19.216 28.7866V42.6762H15.473V31.5826L11.5497 27.9298L8.25768 42.6762H4.46964ZM16.7357 9.48563C15.6835 9.48563 14.7891 9.10983 14.0525 8.35823C13.3159 7.60663 12.9477 6.70472 12.9477 5.65248C12.9477 4.57018 13.3159 3.66075 14.0525 2.92418C14.7891 2.18762 15.6835 1.81934 16.7357 1.81934C17.818 1.81934 18.7274 2.18762 19.464 2.92418C20.2006 3.66075 20.5688 4.57018 20.5688 5.65248C20.5688 6.70472 20.2006 7.60663 19.464 8.35823C18.7274 9.10983 17.818 9.48563 16.7357 9.48563ZM37.0739 43.1722L35.1348 41.2331L36.9837 39.3842H27.1979V36.6333H36.9837L35.1348 34.7844L37.0739 32.8453L42.2148 38.0313L37.0739 43.1722ZM32.2487 33.5217L27.1077 28.3357L32.2487 23.1948L34.1878 25.1339L32.3389 26.9377H42.1246V29.7337H32.3389L34.1878 31.5826L32.2487 33.5217Z" fill="#D63457"/>
<path d="M9.52037 16.4755L4.46964 42.6762H8.25768L11.5497 27.9298L15.473 31.5826V42.6762H19.216V28.7866L15.2475 25.0888L16.7357 19.4067C18.0284 21.1504 19.5166 22.3905 21.2002 23.1271C22.8838 23.8637 24.6575 24.232 26.5215 24.232V20.5341C24.7477 20.5341 23.207 20.1057 21.8992 19.2489C20.5914 18.3921 19.5316 17.3323 18.7199 16.0696L16.7357 13.0933C16.1945 12.1914 15.3979 11.6427 14.3456 11.4473C13.2934 11.2519 12.3013 11.3496 11.3693 11.7404L2.21484 15.5285V24.232H5.9578V18.0989L9.52037 16.4755Z" fill="#365D96"/>
<path d="M14.0525 8.35823C14.7891 9.10983 15.6835 9.48563 16.7357 9.48563C17.818 9.48563 18.7274 9.10983 19.464 8.35823C20.2006 7.60663 20.5688 6.70472 20.5688 5.65248C20.5688 4.57018 20.2006 3.66075 19.464 2.92418C18.7274 2.18762 17.818 1.81934 16.7357 1.81934C15.6835 1.81934 14.7891 2.18762 14.0525 2.92418C13.3159 3.66075 12.9477 4.57018 12.9477 5.65248C12.9477 6.70472 13.3159 7.60663 14.0525 8.35823Z" fill="#365D96"/>
</svg>
