<svg width="24" height="25" viewBox="0 0 24 25" fill="none" xmlns="http://www.w3.org/2000/svg">
<mask id="mask0_1422_56293" style="mask-type:alpha" maskUnits="userSpaceOnUse" x="0" y="0" width="24" height="25">
<rect y="0.0429688" width="24" height="24" fill="#D9D9D9"/>
</mask>
<g mask="url(#mask0_1422_56293)">
<path d="M7.25 16.793H13.75V15.293H7.25V16.793ZM7.25 12.793H16.75V11.293H7.25V12.793ZM7.25 8.79297H16.75V7.29297H7.25V8.79297ZM5.30775 20.543C4.80258 20.543 4.375 20.368 4.025 20.018C3.675 19.668 3.5 19.2404 3.5 18.7352V5.35072C3.5 4.84555 3.675 4.41797 4.025 4.06797C4.375 3.71797 4.80258 3.54297 5.30775 3.54297H18.6923C19.1974 3.54297 19.625 3.71797 19.975 4.06797C20.325 4.41797 20.5 4.84555 20.5 5.35072V18.7352C20.5 19.2404 20.325 19.668 19.975 20.018C19.625 20.368 19.1974 20.543 18.6923 20.543H5.30775ZM5.30775 19.043H18.6923C18.7692 19.043 18.8398 19.0109 18.9038 18.9467C18.9679 18.8827 19 18.8122 19 18.7352V5.35072C19 5.27372 18.9679 5.20322 18.9038 5.13922C18.8398 5.07505 18.7692 5.04297 18.6923 5.04297H5.30775C5.23075 5.04297 5.16025 5.07505 5.09625 5.13922C5.03208 5.20322 5 5.27372 5 5.35072V18.7352C5 18.8122 5.03208 18.8827 5.09625 18.9467C5.16025 19.0109 5.23075 19.043 5.30775 19.043Z" fill="#333333"/>
</g>
</svg>
