<svg width="32" height="32" viewBox="0 0 32 32" fill="none" xmlns="http://www.w3.org/2000/svg">
<rect width="32" height="31.9998" rx="2.66665" fill="#F4F4F4"/>
<path d="M23.6095 14.2761C23.3594 14.5262 23.0203 14.6667 22.6667 14.6667H21.3333V17.4C21.9233 17.5206 22.4695 17.7987 22.9141 18.2048C23.3586 18.611 23.6849 19.1299 23.8582 19.7066C24.0314 20.2833 24.0453 20.8961 23.8982 21.48C23.7511 22.0639 23.4486 22.5971 23.0228 23.0228C22.5971 23.4486 22.0639 23.7511 21.48 23.8982C20.8961 24.0452 20.2833 24.0314 19.7066 23.8581C19.1299 23.6849 18.611 23.3586 18.2048 22.9141C17.7987 22.4695 17.5206 21.9233 17.4 21.3333H14.6667V22.6667C14.6667 23.0203 14.5262 23.3594 14.2761 23.6095C14.0261 23.8595 13.687 24 13.3333 24H9.33334C8.97972 24 8.64058 23.8595 8.39053 23.6095C8.14048 23.3594 8.00001 23.0203 8.00001 22.6667V18.6667C8.00001 18.313 8.14048 17.9739 8.39053 17.7239C8.64058 17.4738 8.97972 17.3333 9.33334 17.3333H10.6667V14.6C9.85731 14.4348 9.13812 13.9749 8.64854 13.3096C8.15896 12.6443 7.93386 11.8209 8.01689 10.999C8.09991 10.1771 8.48515 9.41535 9.0979 8.86138C9.71066 8.3074 10.5073 8.00068 11.3333 8.00068C12.1594 8.00068 12.956 8.3074 13.5688 8.86138C14.1815 9.41535 14.5668 10.1771 14.6498 10.999C14.7328 11.8209 14.5077 12.6443 14.0181 13.3096C13.5286 13.9749 12.8094 14.4348 12 14.6V17.3333H13.3333C13.687 17.3333 14.0261 17.4738 14.2761 17.7239C14.5262 17.9739 14.6667 18.313 14.6667 18.6667V20H17.4C17.5306 19.3594 17.8468 18.7714 18.3091 18.3091C18.7714 17.8468 19.3594 17.5306 20 17.4V14.6667H18.6667C18.313 14.6667 17.9739 14.5262 17.7239 14.2761C17.4738 14.0261 17.3333 13.687 17.3333 13.3333V9.33333C17.3333 8.97971 17.4738 8.64057 17.7239 8.39052C17.9739 8.14048 18.313 8 18.6667 8H22.6667C23.0203 8 23.3594 8.14048 23.6095 8.39052C23.8595 8.64057 24 8.97971 24 9.33333V13.3333C24 13.687 23.8595 14.0261 23.6095 14.2761Z" fill="#D63457"/>
</svg>
