<svg width="32" height="32" viewBox="0 0 32 32" fill="none" xmlns="http://www.w3.org/2000/svg">
<rect width="32" height="31.9998" rx="2.66665" fill="#F4F4F4"/>
<path d="M19.666 15C19.9312 15 20.1856 14.8946 20.3731 14.7071C20.5607 14.5196 20.666 14.2652 20.666 14V11C20.666 10.7348 20.5607 10.4804 20.3731 10.2929C20.1856 10.1054 19.9312 10 19.666 10H16.666C16.4008 10 16.1465 10.1054 15.9589 10.2929C15.7714 10.4804 15.666 10.7348 15.666 11V14C15.666 14.2652 15.7714 14.5196 15.9589 14.7071C16.1465 14.8946 16.4008 15 16.666 15H17.666V17.05C17.1856 17.148 16.7446 17.3851 16.3978 17.7318C16.0511 18.0785 15.814 18.5196 15.716 19H13.666V18C13.666 17.7348 13.5607 17.4804 13.3731 17.2929C13.1856 17.1054 12.9312 17 12.666 17H11.666V14.95C12.273 14.8261 12.8124 14.4812 13.1796 13.9822C13.5468 13.4832 13.7156 12.8656 13.6534 12.2492C13.5911 11.6328 13.3022 11.0615 12.8426 10.646C12.383 10.2306 11.7856 10.0005 11.166 10.0005C10.5465 10.0005 9.94901 10.2306 9.48944 10.646C9.02988 11.0615 8.74095 11.6328 8.67868 12.2492C8.61641 12.8656 8.78524 13.4832 9.15242 13.9822C9.51961 14.4812 10.059 14.8261 10.666 14.95V17H9.66602C9.4008 17 9.14645 17.1054 8.95891 17.2929C8.77138 17.4804 8.66602 17.7348 8.66602 18V21C8.66602 21.2652 8.77138 21.5196 8.95891 21.7071C9.14645 21.8946 9.4008 22 9.66602 22H12.666C12.9312 22 13.1856 21.8946 13.3731 21.7071C13.5607 21.5196 13.666 21.2652 13.666 21V20H15.716C15.8065 20.4425 16.0151 20.8522 16.3197 21.1856C16.6243 21.519 17.0135 21.7637 17.446 21.8936C17.8785 22.0236 18.3381 22.0339 18.776 21.9236C19.2139 21.8133 19.6138 21.5865 19.9331 21.2671C20.2525 20.9478 20.4793 20.5479 20.5897 20.11C20.7 19.6721 20.6896 19.2125 20.5596 18.78C20.4297 18.3475 20.185 17.9582 19.8516 17.6536C19.5182 17.349 19.1085 17.1404 18.666 17.05V15H19.666ZM9.66602 12.5C9.66602 12.2033 9.75399 11.9133 9.91882 11.6666C10.0836 11.42 10.3179 11.2277 10.592 11.1142C10.8661 11.0006 11.1677 10.9709 11.4587 11.0288C11.7496 11.0867 12.0169 11.2296 12.2267 11.4393C12.4365 11.6491 12.5793 11.9164 12.6372 12.2074C12.6951 12.4983 12.6654 12.7999 12.5518 13.074C12.4383 13.3481 12.2461 13.5824 11.9994 13.7472C11.7527 13.912 11.4627 14 11.166 14C10.7682 14 10.3867 13.842 10.1054 13.5607C9.82406 13.2794 9.66602 12.8978 9.66602 12.5ZM12.666 21H9.66602V18H12.666V21ZM19.666 19.5C19.666 19.7967 19.578 20.0867 19.4132 20.3334C19.2484 20.58 19.0141 20.7723 18.74 20.8858C18.466 20.9994 18.1644 21.0291 17.8734 20.9712C17.5824 20.9133 17.3151 20.7704 17.1054 20.5607C16.8956 20.3509 16.7527 20.0836 16.6948 19.7926C16.637 19.5017 16.6667 19.2001 16.7802 18.926C16.8937 18.6519 17.086 18.4176 17.3327 18.2528C17.5793 18.088 17.8693 18 18.166 18C18.5638 18 18.9454 18.158 19.2267 18.4393C19.508 18.7206 19.666 19.1022 19.666 19.5ZM16.666 11H19.666V14H16.666V11Z" fill="black"/>
<path d="M7 7L25 7L25 25L7 25L7 7ZM9 9L9 23L23 23L23 9L9 9Z" fill="#D63457"/>
<path d="M11 13L11 11L21 11L21 13L11 13Z" fill="#418AEC"/>
<path d="M11 17L11 15L21 15L21 17L11 17Z" fill="#418AEC"/>
<path d="M11 21L11 19L21 19L21 21L11 21Z" fill="#418AEC"/>
</svg>
