<svg width="32" height="33" viewBox="0 0 32 33" fill="none" xmlns="http://www.w3.org/2000/svg">
<rect y="0.257812" width="32" height="32" rx="2.66667" fill="#F4F4F4"/>
<path d="M9.95692 8.62891H7.66602V12.5113H23.3751V14.1797H25.666V8.62891H23.3751V10.2974H9.95692V8.62891Z" fill="#D63457"/>
<path d="M9.6842 12.5H7.66602V16.3857H9.95692V14.7221C11.5793 14.7638 12.7419 15.1785 13.6827 15.7867C14.6847 16.4344 15.4483 17.3086 16.2594 18.2424C17.0637 19.1684 17.9331 20.1681 19.0881 20.9305C20.1967 21.6621 21.5601 22.1709 23.3751 22.2173V23.8878H25.666V18.341H23.3751V20.0036C22.084 19.9601 21.1392 19.6068 20.3454 19.0751C19.4896 18.5018 18.8001 17.7165 18.0331 16.8383C15.8069 13.6526 12.0272 12.5007 9.6842 12.5Z" fill="#418AEC"/>
</svg>
