<svg width="32" height="33" viewBox="0 0 32 33" fill="none" xmlns="http://www.w3.org/2000/svg">
<rect y="0.0703125" width="32" height="32" rx="2.66667" fill="#F4F4F4"/>
<mask id="mask0_9711_196537" style="mask-type:alpha" maskUnits="userSpaceOnUse" x="6" y="6" width="20" height="21">
<rect x="6" y="6.07031" width="20" height="20" fill="white"/>
</mask>
<g mask="url(#mask0_9711_196537)">
<path d="M16.0604 24.6644C16.6266 25.2291 17.3129 25.5114 18.1194 25.5114C18.9261 25.5114 19.6117 25.2283 20.1762 24.6619C20.7408 24.0958 21.0231 23.4094 21.0231 22.6027C21.0231 21.7962 20.74 21.1107 20.1737 20.5462C19.6073 19.9815 18.9209 19.6992 18.1144 19.6992C17.3079 19.6992 16.6224 19.9824 16.0579 20.5487C15.4933 21.1148 15.2109 21.8012 15.2109 22.6077C15.2109 23.4144 15.4941 24.1 16.0604 24.6644Z" fill="#418AEC"/>
<path d="M10.0174 22.3155C8.91253 22.3155 7.96675 21.9221 7.18005 21.1354C6.39335 20.3487 6 19.403 6 18.2984C6 17.1937 6.39335 16.248 7.18005 15.4613C7.96675 14.6746 8.91253 14.2812 10.0174 14.2812C11.1221 14.2812 12.0678 14.6746 12.8545 15.4613C13.6412 16.248 14.0345 17.1937 14.0345 18.2984C14.0345 19.403 13.6412 20.3487 12.8545 21.1354C12.0678 21.9221 11.1221 22.3155 10.0174 22.3155Z" fill="#F9C74F"/>
<path d="M16.501 16.1243C17.5758 17.1992 18.8903 17.7366 20.4445 17.7366C21.9986 17.7366 23.3131 17.1992 24.388 16.1243C25.4628 15.0494 26.0003 13.7349 26.0003 12.1808C26.0003 10.6267 25.4628 9.31215 24.388 8.23729C23.3131 7.16243 21.9986 6.625 20.4445 6.625C18.8903 6.625 17.5758 7.16243 16.501 8.23729C15.4261 9.31215 14.8887 10.6267 14.8887 12.1808C14.8887 13.7349 15.4261 15.0494 16.501 16.1243Z" fill="#D63457"/>
</g>
</svg>
