<svg width="32" height="33" viewBox="0 0 32 33" fill="none" xmlns="http://www.w3.org/2000/svg">
<rect y="0.257812" width="32" height="32" rx="2.66667" fill="#F4F4F4"/>
<path fill-rule="evenodd" clip-rule="evenodd" d="M16.0847 7.60156L15.9987 7.53906L15.9127 7.60156H16.0847ZM16.4991 7.90261V16.5246L24.7065 13.8657L20.582 10.869L16.4991 7.90261ZM25.148 14.1864L25.1587 14.2195L25.1654 14.199L25.148 14.1864ZM24.9587 14.8351L16.8094 17.4752L21.8522 24.3958L23.4147 19.5871L24.9587 14.8351ZM21.037 24.9751L15.9991 18.0612L10.9611 24.9751H15.9987H21.037ZM10.1454 24.3965L15.1887 17.4752L7.03862 14.8349L8.58271 19.5871L10.1454 24.3965ZM6.83906 14.2207L6.85038 14.1857L6.83203 14.199L6.83906 14.2207ZM7.29112 13.8655L15.4991 16.5246V7.90206L11.4154 10.869L7.29112 13.8655Z" fill="#D63457"/>
</svg>
