<svg width="32" height="32" viewBox="0 0 32 32" fill="none" xmlns="http://www.w3.org/2000/svg">
<rect width="32" height="32" rx="2.66667" fill="#F4F4F4"/>
<path d="M13.524 23.3307H16.6669V20.9131H13.524V23.3307Z" fill="#418AEC"/>
<path d="M10.3811 17.1456H16.6669V14.7282L10.3811 14.7282V17.1456Z" fill="#418AEC"/>
<path d="M7.23828 11.0817L16.6669 11.0817V8.66406H7.23828V11.0817Z" fill="#418AEC"/>
<path d="M13.524 23.3307H16.6669V20.9131H13.524V23.3307Z" fill="#418AEC"/>
<path d="M10.3811 17.1456H16.6669V14.7282L10.3811 14.7282V17.1456Z" fill="#418AEC"/>
<path d="M7.23828 11.0817L16.6669 11.0817V8.66406H7.23828V11.0817Z" fill="#418AEC"/>
<path d="M19.81 23.3307H16.6671V20.9131H19.81V23.3307Z" fill="#D63457"/>
<path d="M22.9528 17.1456H16.6671V14.7282L22.9528 14.7282V17.1456Z" fill="#D63457"/>
<path d="M26.0957 11.0817L16.6671 11.0817V8.66406H26.0957V11.0817Z" fill="#D63457"/>
<path d="M19.81 23.3307H16.6671V20.9131H19.81V23.3307Z" fill="#D63457"/>
<path d="M22.9528 17.1456H16.6671V14.7282L22.9528 14.7282V17.1456Z" fill="#D63457"/>
<path d="M26.0957 11.0817L16.6671 11.0817V8.66406H26.0957V11.0817Z" fill="#D63457"/>
</svg>
