<svg width="32" height="33" viewBox="0 0 32 33" fill="none" xmlns="http://www.w3.org/2000/svg">
<rect y="0.257812" width="32" height="32" rx="2.66667" fill="#F4F4F4"/>
<mask id="mask0_9711_196531" style="mask-type:alpha" maskUnits="userSpaceOnUse" x="6" y="6" width="20" height="21">
<rect x="6" y="6.25781" width="20" height="20" fill="#D9D9D9"/>
</mask>
<g mask="url(#mask0_9711_196531)">
<path d="M16.8535 18.5898V24.5482C18.8396 24.3537 20.5306 23.5586 21.9264 22.1628C23.3223 20.7669 24.1174 19.076 24.3118 17.0898H18.3535C18.2285 17.451 18.0375 17.76 17.7806 18.0169C17.5237 18.2739 17.2146 18.4648 16.8535 18.5898Z" fill="#EFB92F"/>
<path d="M17.7806 14.4753C18.0375 14.7461 18.2285 15.0621 18.3535 15.4232H24.3118C24.1174 13.4371 23.3223 11.7461 21.9264 10.3503C20.5306 8.95443 18.8396 8.15929 16.8535 7.96484V13.8815C17.2146 14.0065 17.5237 14.2044 17.7806 14.4753Z" fill="#D63457"/>
<path d="M15.1875 24.5482C13.0486 24.3398 11.2639 23.444 9.83333 21.8607C8.40278 20.2773 7.6875 18.4093 7.6875 16.2565C7.6875 14.1037 8.40278 12.2357 9.83333 10.6523C11.2639 9.06901 13.0486 8.17318 15.1875 7.96484V13.8815C14.6875 14.0621 14.2847 14.3711 13.9792 14.8086C13.6736 15.2461 13.5208 15.7287 13.5208 16.2565C13.5208 16.7843 13.6736 17.26 13.9792 17.6836C14.2847 18.1072 14.6875 18.4093 15.1875 18.5898V24.5482Z" fill="#418AEC"/>
</g>
</svg>
