<svg width="146" height="38" viewBox="0 0 146 38" fill="none" xmlns="http://www.w3.org/2000/svg">
<rect width="146" height="36" rx="18" fill="#333333"/>
<path d="M20.7578 15.2812C20.7578 17.1133 21.7969 19.1094 23.6973 20.0117L22.8496 21.1602C21.5166 20.5381 20.5459 19.3145 20.0332 17.8652C19.4863 19.4238 18.4678 20.7432 17.0527 21.3789L16.2188 20.2031C18.1602 19.3281 19.2539 17.2227 19.2539 15.2812V14.6387H16.6152V13.4219H19.2539V11.6172H20.7715V13.4219H23.3691V14.6387H20.7578V15.2812ZM26.0898 11.3574V16.252H27.9902V17.5234H26.0898V23.7168H24.5723V11.3574H26.0898ZM38.5586 17.8379V19.041H29.8906V12.3281H38.4492V13.5586H31.4355V15.0488H38.1621V16.2383H31.4355V17.8379H38.5586ZM39.8027 20.9688V22.2129H28.5098V20.9688H39.8027ZM48.6895 12.6426V17.1816H45.7637V19.5059C47.042 19.4922 48.252 19.4375 49.6465 19.1777L49.7695 20.4219C48.1152 20.7227 46.7207 20.7637 45.1621 20.7637H44.3008V15.9785H47.2266V13.8594H44.2871V12.6426H48.6895ZM54.5684 11.3574V23.7168H53.1191V11.3574H54.5684ZM52.0254 11.6172V23.0879H50.5898V16.8945H49.2363V15.6504H50.5898V11.6172H52.0254ZM66.3125 11.3574V23.7305H64.7812V11.3574H66.3125ZM59.6543 12.2598C61.5137 12.2598 62.8672 13.9551 62.8809 16.6211C62.8672 19.3145 61.5137 20.9961 59.6543 20.9961C57.7812 20.9961 56.4277 19.3145 56.4277 16.6211C56.4277 13.9551 57.7812 12.2598 59.6543 12.2598ZM59.6543 13.627C58.6016 13.627 57.8906 14.7344 57.8906 16.6211C57.8906 18.5215 58.6016 19.6289 59.6543 19.6289C60.6934 19.6289 61.4043 18.5215 61.4043 16.6211C61.4043 14.7344 60.6934 13.627 59.6543 13.627ZM71.0977 11.5762V12.5469H76.4297V11.5762H77.9336V15.7051H69.5938V11.5762H71.0977ZM71.0977 14.5566H76.4297V13.6543H71.0977V14.5566ZM79.3965 16.498V17.6875H68.1309V16.498H79.3965ZM77.9883 18.5625V21.543H70.9609V22.4453H78.3301V23.6074H69.4707V20.4766H76.498V19.6836H69.457V18.5625H77.9883ZM94.8457 21.0645V22.2949H83.5527V21.0645H86.4785V18.5215H84.5234V17.291H86.2598V13.627H84.4824V12.4102H93.8613V13.627H92.0566V17.291H93.8203V18.5215H91.8652V21.0645H94.8457ZM87.7773 17.291H90.5527V13.627H87.7773V17.291ZM87.9961 21.0645H90.3477V18.5215H87.9961V21.0645ZM100.328 14.3242C100.314 16.5938 101.504 18.8633 103.514 19.7246L102.611 20.9414C101.189 20.2852 100.144 18.9727 99.5762 17.3594C99.0088 19.1025 97.9492 20.5244 96.4453 21.2285L95.5156 19.957C97.5801 19.0684 98.7832 16.7031 98.7832 14.3242V12.3555H100.328V14.3242ZM105.934 11.3574V23.7305H104.402V11.3574H105.934Z" fill="white"/>
<g filter="url(#filter0_d_4218_132253)">
<circle cx="127" cy="18" r="11" fill="white"/>
</g>
<defs>
<filter id="filter0_d_4218_132253" x="108" y="0" width="38" height="38" filterUnits="userSpaceOnUse" color-interpolation-filters="sRGB">
<feFlood flood-opacity="0" result="BackgroundImageFix"/>
<feColorMatrix in="SourceAlpha" type="matrix" values="0 0 0 0 0 0 0 0 0 0 0 0 0 0 0 0 0 0 127 0" result="hardAlpha"/>
<feOffset dy="1"/>
<feGaussianBlur stdDeviation="4"/>
<feComposite in2="hardAlpha" operator="out"/>
<feColorMatrix type="matrix" values="0 0 0 0 0.388235 0 0 0 0 0.423529 0 0 0 0 0.517647 0 0 0 0.1 0"/>
<feBlend mode="normal" in2="BackgroundImageFix" result="effect1_dropShadow_4218_132253"/>
<feBlend mode="normal" in="SourceGraphic" in2="effect1_dropShadow_4218_132253" result="shape"/>
</filter>
</defs>
</svg>
