<svg width="146" height="38" viewBox="0 0 146 38" fill="none" xmlns="http://www.w3.org/2000/svg">
<rect x="0.5" y="0.5" width="145" height="35" rx="17.5" fill="#F3F3F3"/>
<rect x="0.5" y="0.5" width="145" height="35" rx="17.5" stroke="#EAEAEA"/>
<g filter="url(#filter0_d_4218_132257)">
<circle cx="19" cy="18" r="11" fill="white"/>
</g>
<path d="M42.7578 15.2812C42.7578 17.1133 43.7969 19.1094 45.6973 20.0117L44.8496 21.1602C43.5166 20.5381 42.5459 19.3145 42.0332 17.8652C41.4863 19.4238 40.4678 20.7432 39.0527 21.3789L38.2188 20.2031C40.1602 19.3281 41.2539 17.2227 41.2539 15.2812V14.6387H38.6152V13.4219H41.2539V11.6172H42.7715V13.4219H45.3691V14.6387H42.7578V15.2812ZM48.0898 11.3574V16.252H49.9902V17.5234H48.0898V23.7168H46.5723V11.3574H48.0898ZM60.5586 17.8379V19.041H51.8906V12.3281H60.4492V13.5586H53.4355V15.0488H60.1621V16.2383H53.4355V17.8379H60.5586ZM61.8027 20.9688V22.2129H50.5098V20.9688H61.8027ZM70.6895 12.6426V17.1816H67.7637V19.5059C69.042 19.4922 70.252 19.4375 71.6465 19.1777L71.7695 20.4219C70.1152 20.7227 68.7207 20.7637 67.1621 20.7637H66.3008V15.9785H69.2266V13.8594H66.2871V12.6426H70.6895ZM76.5684 11.3574V23.7168H75.1191V11.3574H76.5684ZM74.0254 11.6172V23.0879H72.5898V16.8945H71.2363V15.6504H72.5898V11.6172H74.0254ZM88.3125 11.3574V23.7305H86.7812V11.3574H88.3125ZM81.6543 12.2598C83.5137 12.2598 84.8672 13.9551 84.8809 16.6211C84.8672 19.3145 83.5137 20.9961 81.6543 20.9961C79.7812 20.9961 78.4277 19.3145 78.4277 16.6211C78.4277 13.9551 79.7812 12.2598 81.6543 12.2598ZM81.6543 13.627C80.6016 13.627 79.8906 14.7344 79.8906 16.6211C79.8906 18.5215 80.6016 19.6289 81.6543 19.6289C82.6934 19.6289 83.4043 18.5215 83.4043 16.6211C83.4043 14.7344 82.6934 13.627 81.6543 13.627ZM93.0977 11.5762V12.5469H98.4297V11.5762H99.9336V15.7051H91.5938V11.5762H93.0977ZM93.0977 14.5566H98.4297V13.6543H93.0977V14.5566ZM101.396 16.498V17.6875H90.1309V16.498H101.396ZM99.9883 18.5625V21.543H92.9609V22.4453H100.33V23.6074H91.4707V20.4766H98.498V19.6836H91.457V18.5625H99.9883ZM115.451 19.4102V23.5664H106.879V19.4102H110.406V18.1387H105.553V16.9082H116.818V18.1387H111.938V19.4102H115.451ZM108.383 20.6133V22.3359H113.975V20.6133H108.383ZM111.965 11.959C111.965 13.3125 113.66 14.707 116.217 15.0215L115.684 16.1973C113.612 15.9238 111.979 15.001 111.199 13.75C110.393 15.0146 108.745 15.917 106.688 16.1973L106.127 15.0215C108.711 14.6934 110.393 13.3398 110.406 11.959V11.4805H111.965V11.959ZM124.188 12.1094C124.188 15.3223 122.014 17.5508 118.336 18.4941L117.734 17.3184C120.612 16.5732 122.301 15.1172 122.561 13.3125H118.445V12.1094H124.188ZM127.947 11.3711V18.2891H126.416V11.3711H127.947ZM127.947 18.8223V23.5527H119.785V18.8223H127.947ZM121.289 20.0254V22.3496H126.457V20.0254H121.289Z" fill="#333333" fill-opacity="0.2"/>
<defs>
<filter id="filter0_d_4218_132257" x="0" y="0" width="38" height="38" filterUnits="userSpaceOnUse" color-interpolation-filters="sRGB">
<feFlood flood-opacity="0" result="BackgroundImageFix"/>
<feColorMatrix in="SourceAlpha" type="matrix" values="0 0 0 0 0 0 0 0 0 0 0 0 0 0 0 0 0 0 127 0" result="hardAlpha"/>
<feOffset dy="1"/>
<feGaussianBlur stdDeviation="4"/>
<feComposite in2="hardAlpha" operator="out"/>
<feColorMatrix type="matrix" values="0 0 0 0 0.388235 0 0 0 0 0.423529 0 0 0 0 0.517647 0 0 0 0.1 0"/>
<feBlend mode="normal" in2="BackgroundImageFix" result="effect1_dropShadow_4218_132257"/>
<feBlend mode="normal" in="SourceGraphic" in2="effect1_dropShadow_4218_132257" result="shape"/>
</filter>
</defs>
</svg>
