<svg width="29" height="29" viewBox="0 0 29 29" fill="none" xmlns="http://www.w3.org/2000/svg">
<path d="M17.2763 12.1654C17.2763 11.5237 17.0478 10.9744 16.5909 10.5174C16.1339 10.0605 15.5846 9.83203 14.943 9.83203C14.7485 9.83203 14.5638 9.85148 14.3888 9.89037C14.2138 9.92925 14.0485 9.99731 13.893 10.0945L17.0138 13.2154C17.111 13.0598 17.1791 12.8945 17.218 12.7195C17.2569 12.5445 17.2763 12.3598 17.2763 12.1654ZM22.1763 18.3779L20.4846 16.6862C20.9707 15.8695 21.3353 15.1063 21.5784 14.3966C21.8214 13.6869 21.943 13.0209 21.943 12.3987C21.943 10.2793 21.2673 8.54384 19.9159 7.19245C18.5645 5.84106 16.9069 5.16536 14.943 5.16536C14.0874 5.16536 13.2853 5.29661 12.5367 5.55911C11.7881 5.82161 11.1124 6.20564 10.5096 6.7112L8.84714 5.0487C9.68325 4.32925 10.6263 3.77995 11.6763 3.40078C12.7263 3.02161 13.8152 2.83203 14.943 2.83203C17.4124 2.83203 19.5853 3.69731 21.4617 5.42786C23.3381 7.15842 24.2763 9.48203 24.2763 12.3987C24.2763 13.332 24.1013 14.2897 23.7513 15.2716C23.4013 16.2536 22.8763 17.289 22.1763 18.3779ZM17.5971 20.4487L8.05964 10.9112C8.02075 11.1445 7.99158 11.3876 7.97214 11.6404C7.95269 11.8931 7.94297 12.1459 7.94297 12.3987C7.94297 13.7793 8.51658 15.3591 9.6638 17.1383C10.811 18.9174 12.5707 20.8959 14.943 23.0737C15.4485 22.6265 15.9201 22.1841 16.3576 21.7466C16.7951 21.3091 17.2082 20.8765 17.5971 20.4487ZM24.8305 27.682L19.2305 22.082C18.6082 22.7431 17.9471 23.414 17.2471 24.0945C16.5471 24.7751 15.7791 25.4654 14.943 26.1654C11.8124 23.5015 9.47422 21.0272 7.92839 18.7424C6.38255 16.4577 5.60964 14.3431 5.60964 12.3987C5.60964 11.7765 5.65825 11.1834 5.75547 10.6195C5.85269 10.0556 5.9888 9.52092 6.1638 9.01537L1.73047 4.58203L3.39297 2.91953L26.493 26.0195L24.8305 27.682Z" fill="currentColor"/>
</svg>
