<svg width="24" height="25" viewBox="0 0 24 25" fill="none" xmlns="http://www.w3.org/2000/svg">
<path fill-rule="evenodd" clip-rule="evenodd" d="M12 20.5859C16.6944 20.5859 20.5 16.7804 20.5 12.0859C20.5 7.39152 16.6944 3.58594 12 3.58594C7.30558 3.58594 3.5 7.39152 3.5 12.0859C3.5 16.7804 7.30558 20.5859 12 20.5859ZM12 22.0859C17.5228 22.0859 22 17.6088 22 12.0859C22 6.56309 17.5228 2.08594 12 2.08594C6.47715 2.08594 2 6.56309 2 12.0859C2 17.6088 6.47715 22.0859 12 22.0859Z" fill="#263238"/>
<path fill-rule="evenodd" clip-rule="evenodd" d="M12.1558 6.78217L16.9288 11.5551C17.2217 11.848 17.2217 12.3229 16.9288 12.6158L12.1558 17.3888C11.8629 17.6817 11.388 17.6817 11.0951 17.3888C10.8022 17.0959 10.8022 16.621 11.0951 16.3281L14.5878 12.8355L2.39844 12.8355V11.3355L14.5878 11.3355L11.0951 7.84283C10.8022 7.54994 10.8022 7.07506 11.0951 6.78217C11.388 6.48928 11.8629 6.48928 12.1558 6.78217Z" fill="#263238"/>
</svg>
