<svg width="24" height="25" viewBox="0 0 24 25" fill="none" xmlns="http://www.w3.org/2000/svg">
<path fill-rule="evenodd" clip-rule="evenodd" d="M12 20.5859C16.6944 20.5859 20.5 16.7804 20.5 12.0859C20.5 7.39152 16.6944 3.58594 12 3.58594C7.30558 3.58594 3.5 7.39152 3.5 12.0859C3.5 16.7804 7.30558 20.5859 12 20.5859ZM12 22.0859C17.5228 22.0859 22 17.6088 22 12.0859C22 6.56309 17.5228 2.08594 12 2.08594C6.47715 2.08594 2 6.56309 2 12.0859C2 17.6088 6.47715 22.0859 12 22.0859Z" fill="#263238"/>
<path fill-rule="evenodd" clip-rule="evenodd" d="M11.9926 17.3897L7.21967 12.6167C6.92678 12.3238 6.92678 11.849 7.21967 11.5561L11.9926 6.7831C12.2855 6.49021 12.7604 6.49021 13.0533 6.7831C13.3462 7.076 13.3462 7.55087 13.0533 7.84376L9.56066 11.3364L21.75 11.3364L21.75 12.8364L9.56066 12.8364L13.0533 16.329C13.3462 16.6219 13.3462 17.0968 13.0533 17.3897C12.7604 17.6826 12.2855 17.6826 11.9926 17.3897Z" fill="#263238"/>
</svg>
