<svg width="24" height="24" viewBox="0 0 24 24" fill="none" xmlns="http://www.w3.org/2000/svg">
<mask id="mask0_2812_82415" style="mask-type:alpha" maskUnits="userSpaceOnUse" x="0" y="0" width="24" height="24">
<rect width="24" height="24" fill="currentColor"/>
</mask>
<g mask="url(#mask0_2812_82415)">
<path d="M11.825 21.5002C11.457 21.5002 11.1073 21.4316 10.776 21.2945C10.4445 21.1573 10.1468 20.9566 9.88275 20.6925L4.86925 15.6732L5.48475 15.0522C5.69358 14.8496 5.9355 14.7152 6.2105 14.6492C6.4855 14.5832 6.75958 14.5874 7.03275 14.6617L9.25 15.2425V7.00022C9.25 6.78739 9.32183 6.60922 9.4655 6.46572C9.609 6.32206 9.78717 6.25022 10 6.25022C10.2128 6.25022 10.391 6.32206 10.5345 6.46572C10.6782 6.60922 10.75 6.78739 10.75 7.00022V14.135H12.1635V10.7502C12.1635 10.5374 12.2352 10.3592 12.3787 10.2157C12.5224 10.0721 12.7007 10.0002 12.9135 10.0002C13.1263 10.0002 13.3045 10.0721 13.448 10.2157C13.5917 10.3592 13.6635 10.5374 13.6635 10.7502V14.135H15.0865V11.7502C15.0865 11.5374 15.1583 11.3592 15.302 11.2157C15.4455 11.0721 15.6237 11.0002 15.8365 11.0002C16.0493 11.0002 16.2276 11.0721 16.3712 11.2157C16.5147 11.3592 16.5865 11.5374 16.5865 11.7502V14.135H18V13.7502C18 13.5374 18.0718 13.3592 18.2155 13.2157C18.359 13.0721 18.5372 13.0002 18.75 13.0002C18.9628 13.0002 19.141 13.0721 19.2845 13.2157C19.4282 13.3592 19.5 13.5374 19.5 13.7502V17.7502C19.5 18.7861 19.134 19.6701 18.402 20.4022C17.6698 21.1342 16.7858 21.5002 15.75 21.5002H11.825ZM2.5 7.19247C3.10267 5.56697 4.278 4.25197 6.026 3.24747C7.774 2.24297 9.75575 1.74072 11.9713 1.74072C13.4673 1.74072 14.9147 1.99422 16.3135 2.50122C17.7122 3.00822 19.0436 3.76306 20.3078 4.76572V2.50022H21.5V7.19247H16.8077V6.00022H19.9C18.7038 4.98872 17.4403 4.22464 16.1095 3.70797C14.7788 3.19131 13.3994 2.93297 11.9713 2.93297C10.1263 2.93297 8.47042 3.31214 7.00375 4.07047C5.53708 4.82881 4.45508 5.86947 3.75775 7.19247H2.5Z" fill="currentColor"/>
</g>
</svg>
